<mxfile host="app.diagrams.net" modified="2023-05-25T03:39:40.284Z" agent="Mozilla/5.0 (Windows NT 10.0; Win64; x64) AppleWebKit/537.36 (KHTML, like Gecko) Chrome/113.0.0.0 Safari/537.36" etag="6-S8R60TYSj1SImIcobU" version="21.3.3" type="device">
  <diagram name="Page-1" id="KkufPg1bUzOBQjNBm15R">
    <mxGraphModel dx="1944" dy="784" grid="0" gridSize="10" guides="1" tooltips="1" connect="1" arrows="1" fold="1" page="0" pageScale="1" pageWidth="850" pageHeight="1100" math="0" shadow="0">
      <root>
        <mxCell id="0" />
        <mxCell id="1" parent="0" />
        <mxCell id="VGHG7tD8Mx53YYruA2e2-2" style="edgeStyle=orthogonalEdgeStyle;rounded=0;orthogonalLoop=1;jettySize=auto;html=1;" edge="1" parent="1" source="OxTTLq5b9ruWIfGuJGXQ-27" target="eG4zZ3PQQGwzWUUY02vt-3">
          <mxGeometry relative="1" as="geometry" />
        </mxCell>
        <mxCell id="OxTTLq5b9ruWIfGuJGXQ-27" value="" style="html=1;shadow=0;dashed=0;shape=mxgraph.bootstrap.checkbox2;labelPosition=right;verticalLabelPosition=middle;align=left;verticalAlign=middle;gradientColor=#DEDEDE;fillColor=#EDEDED;checked=0;spacing=5;checkedFill=#0085FC;checkedStroke=#ffffff;sketch=0;" parent="1" vertex="1">
          <mxGeometry x="-363" y="491.25" width="97.37" height="99.5" as="geometry" />
        </mxCell>
        <mxCell id="eG4zZ3PQQGwzWUUY02vt-20" value="" style="html=1;shadow=0;dashed=0;shape=mxgraph.bootstrap.checkbox2;labelPosition=right;verticalLabelPosition=middle;align=left;verticalAlign=middle;gradientColor=#DEDEDE;fillColor=#EDEDED;checked=0;spacing=5;checkedFill=#0085FC;checkedStroke=#ffffff;sketch=0;" parent="1" vertex="1">
          <mxGeometry x="170" y="319" width="430" height="446" as="geometry" />
        </mxCell>
        <mxCell id="OxTTLq5b9ruWIfGuJGXQ-6" style="edgeStyle=orthogonalEdgeStyle;rounded=0;orthogonalLoop=1;jettySize=auto;html=1;entryX=0.5;entryY=0;entryDx=0;entryDy=0;entryPerimeter=0;" parent="1" source="eG4zZ3PQQGwzWUUY02vt-1" target="eG4zZ3PQQGwzWUUY02vt-4" edge="1">
          <mxGeometry relative="1" as="geometry" />
        </mxCell>
        <mxCell id="OxTTLq5b9ruWIfGuJGXQ-15" style="edgeStyle=orthogonalEdgeStyle;rounded=0;orthogonalLoop=1;jettySize=auto;html=1;" parent="1" source="eG4zZ3PQQGwzWUUY02vt-1" target="OxTTLq5b9ruWIfGuJGXQ-14" edge="1">
          <mxGeometry relative="1" as="geometry" />
        </mxCell>
        <mxCell id="eG4zZ3PQQGwzWUUY02vt-1" value="" style="sketch=0;points=[[0,0,0],[0.25,0,0],[0.5,0,0],[0.75,0,0],[1,0,0],[0,1,0],[0.25,1,0],[0.5,1,0],[0.75,1,0],[1,1,0],[0,0.25,0],[0,0.5,0],[0,0.75,0],[1,0.25,0],[1,0.5,0],[1,0.75,0]];outlineConnect=0;fontColor=#232F3E;gradientColor=#F78E04;gradientDirection=north;fillColor=#D05C17;strokeColor=#ffffff;dashed=0;verticalLabelPosition=bottom;verticalAlign=top;align=center;html=1;fontSize=12;fontStyle=0;aspect=fixed;shape=mxgraph.aws4.resourceIcon;resIcon=mxgraph.aws4.lambda;" parent="1" vertex="1">
          <mxGeometry x="313.5" y="503" width="78" height="78" as="geometry" />
        </mxCell>
        <mxCell id="eG4zZ3PQQGwzWUUY02vt-27" style="edgeStyle=orthogonalEdgeStyle;rounded=0;orthogonalLoop=1;jettySize=auto;html=1;" parent="1" source="eG4zZ3PQQGwzWUUY02vt-2" target="eG4zZ3PQQGwzWUUY02vt-3" edge="1">
          <mxGeometry relative="1" as="geometry" />
        </mxCell>
        <mxCell id="OxTTLq5b9ruWIfGuJGXQ-21" style="edgeStyle=orthogonalEdgeStyle;rounded=0;orthogonalLoop=1;jettySize=auto;html=1;" parent="1" source="eG4zZ3PQQGwzWUUY02vt-2" target="eG4zZ3PQQGwzWUUY02vt-4" edge="1">
          <mxGeometry relative="1" as="geometry">
            <Array as="points">
              <mxPoint x="49" y="682" />
            </Array>
          </mxGeometry>
        </mxCell>
        <mxCell id="eG4zZ3PQQGwzWUUY02vt-2" value="" style="sketch=0;points=[[0,0,0],[0.25,0,0],[0.5,0,0],[0.75,0,0],[1,0,0],[0,1,0],[0.25,1,0],[0.5,1,0],[0.75,1,0],[1,1,0],[0,0.25,0],[0,0.5,0],[0,0.75,0],[1,0.25,0],[1,0.5,0],[1,0.75,0]];outlineConnect=0;fontColor=#232F3E;gradientColor=#F78E04;gradientDirection=north;fillColor=#D05C17;strokeColor=#ffffff;dashed=0;verticalLabelPosition=bottom;verticalAlign=top;align=center;html=1;fontSize=12;fontStyle=0;aspect=fixed;shape=mxgraph.aws4.resourceIcon;resIcon=mxgraph.aws4.lambda;" parent="1" vertex="1">
          <mxGeometry x="10" y="502" width="78" height="78" as="geometry" />
        </mxCell>
        <mxCell id="OxTTLq5b9ruWIfGuJGXQ-33" style="edgeStyle=orthogonalEdgeStyle;rounded=0;orthogonalLoop=1;jettySize=auto;html=1;" parent="1" source="eG4zZ3PQQGwzWUUY02vt-3" target="eG4zZ3PQQGwzWUUY02vt-2" edge="1">
          <mxGeometry relative="1" as="geometry" />
        </mxCell>
        <mxCell id="VGHG7tD8Mx53YYruA2e2-4" style="edgeStyle=orthogonalEdgeStyle;rounded=0;orthogonalLoop=1;jettySize=auto;html=1;" edge="1" parent="1" source="eG4zZ3PQQGwzWUUY02vt-3" target="OxTTLq5b9ruWIfGuJGXQ-27">
          <mxGeometry relative="1" as="geometry" />
        </mxCell>
        <mxCell id="eG4zZ3PQQGwzWUUY02vt-3" value="" style="sketch=0;points=[[0,0,0],[0.25,0,0],[0.5,0,0],[0.75,0,0],[1,0,0],[0,1,0],[0.25,1,0],[0.5,1,0],[0.75,1,0],[1,1,0],[0,0.25,0],[0,0.5,0],[0,0.75,0],[1,0.25,0],[1,0.5,0],[1,0.75,0]];outlineConnect=0;fontColor=#232F3E;gradientColor=#945DF2;gradientDirection=north;fillColor=#5A30B5;strokeColor=#ffffff;dashed=0;verticalLabelPosition=bottom;verticalAlign=top;align=center;html=1;fontSize=12;fontStyle=0;aspect=fixed;shape=mxgraph.aws4.resourceIcon;resIcon=mxgraph.aws4.api_gateway;" parent="1" vertex="1">
          <mxGeometry x="-167" y="502" width="78" height="78" as="geometry" />
        </mxCell>
        <mxCell id="OxTTLq5b9ruWIfGuJGXQ-18" style="edgeStyle=orthogonalEdgeStyle;rounded=0;orthogonalLoop=1;jettySize=auto;html=1;" parent="1" source="eG4zZ3PQQGwzWUUY02vt-4" target="eG4zZ3PQQGwzWUUY02vt-2" edge="1">
          <mxGeometry relative="1" as="geometry" />
        </mxCell>
        <mxCell id="eG4zZ3PQQGwzWUUY02vt-4" value="" style="sketch=0;points=[[0,0,0],[0.25,0,0],[0.5,0,0],[0.75,0,0],[1,0,0],[0,1,0],[0.25,1,0],[0.5,1,0],[0.75,1,0],[1,1,0],[0,0.25,0],[0,0.5,0],[0,0.75,0],[1,0.25,0],[1,0.5,0],[1,0.75,0]];outlineConnect=0;fontColor=#232F3E;gradientColor=#4D72F3;gradientDirection=north;fillColor=#3334B9;strokeColor=#ffffff;dashed=0;verticalLabelPosition=bottom;verticalAlign=top;align=center;html=1;fontSize=12;fontStyle=0;aspect=fixed;shape=mxgraph.aws4.resourceIcon;resIcon=mxgraph.aws4.dynamodb;" parent="1" vertex="1">
          <mxGeometry x="313.5" y="643" width="78" height="78" as="geometry" />
        </mxCell>
        <mxCell id="eG4zZ3PQQGwzWUUY02vt-8" value="" style="shape=image;html=1;verticalAlign=top;verticalLabelPosition=bottom;labelBackgroundColor=#ffffff;imageAspect=0;aspect=fixed;image=https://cdn1.iconfinder.com/data/icons/bootstrap-vol-3/16/filetype-html-128.png" parent="1" vertex="1">
          <mxGeometry x="-348.7" y="506.62" width="68.76" height="68.76" as="geometry" />
        </mxCell>
        <mxCell id="eG4zZ3PQQGwzWUUY02vt-16" value="&lt;b&gt;&lt;font style=&quot;font-size: 14px;&quot;&gt;NASA API&lt;/font&gt;&lt;/b&gt;" style="text;strokeColor=none;align=center;fillColor=none;html=1;verticalAlign=middle;whiteSpace=wrap;rounded=0;" parent="1" vertex="1">
          <mxGeometry x="468" y="464" width="72" height="30" as="geometry" />
        </mxCell>
        <mxCell id="OxTTLq5b9ruWIfGuJGXQ-5" style="edgeStyle=orthogonalEdgeStyle;rounded=0;orthogonalLoop=1;jettySize=auto;html=1;" parent="1" source="eG4zZ3PQQGwzWUUY02vt-22" target="eG4zZ3PQQGwzWUUY02vt-1" edge="1">
          <mxGeometry relative="1" as="geometry" />
        </mxCell>
        <mxCell id="eG4zZ3PQQGwzWUUY02vt-22" value="" style="sketch=0;points=[[0,0,0],[0.25,0,0],[0.5,0,0],[0.75,0,0],[1,0,0],[0,1,0],[0.25,1,0],[0.5,1,0],[0.75,1,0],[1,1,0],[0,0.25,0],[0,0.5,0],[0,0.75,0],[1,0.25,0],[1,0.5,0],[1,0.75,0]];outlineConnect=0;fontColor=#232F3E;gradientColor=#FF4F8B;gradientDirection=north;fillColor=#BC1356;strokeColor=#ffffff;dashed=0;verticalLabelPosition=bottom;verticalAlign=top;align=center;html=1;fontSize=12;fontStyle=0;aspect=fixed;shape=mxgraph.aws4.resourceIcon;resIcon=mxgraph.aws4.eventbridge;" parent="1" vertex="1">
          <mxGeometry x="313.5" y="373" width="78" height="78" as="geometry" />
        </mxCell>
        <mxCell id="OxTTLq5b9ruWIfGuJGXQ-3" value="&lt;font style=&quot;font-size: 14px;&quot;&gt;EventBridge invokes the Lambda function every six hours&lt;/font&gt;" style="text;strokeColor=none;align=center;fillColor=none;html=1;verticalAlign=middle;whiteSpace=wrap;rounded=0;" parent="1" vertex="1">
          <mxGeometry x="402.25" y="397" width="123.5" height="30" as="geometry" />
        </mxCell>
        <mxCell id="OxTTLq5b9ruWIfGuJGXQ-4" value="&lt;font style=&quot;font-size: 14px;&quot;&gt;Python Lambda function pulls data from the NASA API and writes the data to the DynamoDB Table using Boto3&lt;/font&gt;" style="text;strokeColor=none;align=center;fillColor=none;html=1;verticalAlign=middle;whiteSpace=wrap;rounded=0;" parent="1" vertex="1">
          <mxGeometry x="180" y="526" width="125" height="30" as="geometry" />
        </mxCell>
        <mxCell id="OxTTLq5b9ruWIfGuJGXQ-16" style="edgeStyle=orthogonalEdgeStyle;rounded=0;orthogonalLoop=1;jettySize=auto;html=1;" parent="1" source="OxTTLq5b9ruWIfGuJGXQ-14" target="eG4zZ3PQQGwzWUUY02vt-1" edge="1">
          <mxGeometry relative="1" as="geometry" />
        </mxCell>
        <mxCell id="OxTTLq5b9ruWIfGuJGXQ-14" value="" style="shape=image;verticalLabelPosition=bottom;labelBackgroundColor=default;verticalAlign=top;aspect=fixed;imageAspect=0;image=data:image/png,iVBORw0KGgoAAAANSUhEUgAABoEAAAVnCAYAAACdMMQrAAAACXBIWXMAAAsTAAALEwEAmpwYAAAGtGlUWHRYTUw6Y29tLmFkb2JlLnhtcAAAAAAAPD94cGFja2V0IGJlZ2luPSLvu78iIGlkPSJXNU0wTXBDZWhpSHpyZVN6TlRjemtjOWQiPz4gPHg6eG1wbWV0YSB4bWxuczp4PSJhZG9iZTpuczptZXRhLyIgeDp4bXB0az0iQWRvYmUgWE1QIENvcmUgNi4wLWMwMDIgNzkuMTY0MzUyLCAyMDIwLzAxLzMwLTE1OjUwOjM4ICAgICAgICAiPiA8cmRmOlJERiB4bWxuczpyZGY9Imh0dHA6Ly93d3cudzMub3JnLzE5OTkvMDIvMjItcmRmLXN5bnRheC1ucyMiPiA8cmRmOkRlc2NyaXB0aW9uIHJkZjphYm91dD0iIiB4bWxuczp4bXA9Imh0dHA6Ly9ucy5hZG9iZS5jb20veGFwLzEuMC8iIHhtbG5zOnhtcE1NPSJodHRwOi8vbnMuYWRvYmUuY29tL3hhcC8xLjAvbW0vIiB4bWxuczpzdFJlZj0iaHR0cDovL25zLmFkb2JlLmNvbS94YXAvMS4wL3NUeXBlL1Jlc291cmNlUmVmIyIgeG1sbnM6c3RFdnQ9Imh0dHA6Ly9ucy5hZG9iZS5jb20veGFwLzEuMC9zVHlwZS9SZXNvdXJjZUV2ZW50IyIgeG1sbnM6ZGM9Imh0dHA6Ly9wdXJsLm9yZy9kYy9lbGVtZW50cy8xLjEvIiB4bWxuczpwaG90b3Nob3A9Imh0dHA6Ly9ucy5hZG9iZS5jb20vcGhvdG9zaG9wLzEuMC8iIHhtcDpDcmVhdG9yVG9vbD0iQWRvYmUgUGhvdG9zaG9wIENTNiAoV2luZG93cykiIHhtcDpDcmVhdGVEYXRlPSIyMDIzLTA1LTIzVDE0OjUzOjQ4LTA3OjAwIiB4bXA6TW9kaWZ5RGF0ZT0iMjAyMy0wNS0yM1QxNDo1NzowMi0wNzowMCIgeG1wOk1ldGFkYXRhRGF0ZT0iMjAyMy0wNS0yM1QxNDo1NzowMi0wNzowMCIgeG1wTU06SW5zdGFuY2VJRD0ieG1wLmlpZDphOGViOGQyYi0xMGE4LTJkNDUtYmIwNy0xYjM4MGRhMjQ2YzgiIHhtcE1NOkRvY3VtZW50SUQ9InhtcC5kaWQ6NTYwNUFEMDdDQThCMTFFNUFERDJGQjY3MjUyRTRCMzEiIHhtcE1NOk9yaWdpbmFsRG9jdW1lbnRJRD0ieG1wLmRpZDo1NjA1QUQwN0NBOEIxMUU1QUREMkZCNjcyNTJFNEIzMSIgZGM6Zm9ybWF0PSJpbWFnZS9wbmciIHBob3Rvc2hvcDpDb2xvck1vZGU9IjMiIHBob3Rvc2hvcDpJQ0NQcm9maWxlPSJzUkdCIElFQzYxOTY2LTIuMSI+IDx4bXBNTTpEZXJpdmVkRnJvbSBzdFJlZjppbnN0YW5jZUlEPSJ4bXAuaWlkOjU2MDVBRDA0Q0E4QjExRTVBREQyRkI2NzI1MkU0QjMxIiBzdFJlZjpkb2N1bWVudElEPSJ4bXAuZGlkOjU2MDVBRDA1Q0E4QjExRTVBREQyRkI2NzI1MkU0QjMxIi8+IDx4bXBNTTpIaXN0b3J5PiA8cmRmOlNlcT4gPHJkZjpsaSBzdEV2dDphY3Rpb249InNhdmVkIiBzdEV2dDppbnN0YW5jZUlEPSJ4bXAuaWlkOjM1ZjViNDQ1LTBmNjAtNzQ0YS1iOWZkLWFjZWM0NDExOTc4NyIgc3RFdnQ6d2hlbj0iMjAyMy0wNS0yM1QxNDo1NDozOC0wNzowMCIgc3RFdnQ6c29mdHdhcmVBZ2VudD0iQWRvYmUgUGhvdG9zaG9wIDIxLjEgKFdpbmRvd3MpIiBzdEV2dDpjaGFuZ2VkPSIvIi8+IDxyZGY6bGkgc3RFdnQ6YWN0aW9uPSJzYXZlZCIgc3RFdnQ6aW5zdGFuY2VJRD0ieG1wLmlpZDphOGViOGQyYi0xMGE4LTJkNDUtYmIwNy0xYjM4MGRhMjQ2YzgiIHN0RXZ0OndoZW49IjIwMjMtMDUtMjNUMTQ6NTc6MDItMDc6MDAiIHN0RXZ0OnNvZnR3YXJlQWdlbnQ9IkFkb2JlIFBob3Rvc2hvcCAyMS4xIChXaW5kb3dzKSIgc3RFdnQ6Y2hhbmdlZD0iLyIvPiA8L3JkZjpTZXE+IDwveG1wTU06SGlzdG9yeT4gPC9yZGY6RGVzY3JpcHRpb24+IDwvcmRmOlJERj4gPC94OnhtcG1ldGE+IDw/eHBhY2tldCBlbmQ9InIiPz4EAI61AAGrVElEQVR4nOz9T2yU573//7/aqfCCicdfCUuuoJgzwIKcYMarJK194y6IIIEv7oHk02Ck2HRBQpoJZ5MTk0WcRU2aTendkxAWtY2ESU8CLRFQLLyIGbsNWXmw+eAFZg4m8K0lI/2wGRZGGvFbzJh/scGeue+57rnv50NCSeyZa16HwhnP/brf1/Wje/fuCQAAAAAAAAAAAP7yY9MBAAAAAAAAAAAA4DxKIAAAAAAAAAAAAB+iBAIAAAAAAAAAAPAhSiAAAAAAAAAAAAAfogQCAAAAAAAAAADwIUogAAAAAAAAAAAAH6IEAgAAAAAAAAAA8CFKIAAAAAAAAAAAAB+iBAIAAAAAAAAAAPAhSiAAAAAAAAAAAAAfogQCAAAAAAAAAADwIUogAAAAAAAAAAAAH6IEAgAAAAAAAAAA8CFKIAAAAAAAAAAAAB+iBAIAAAAAAAAAAPAhSiAAAAAAAAAAAAAfogQCAAAAAAAAAADwIUogAAAAAAAAAAAAH6IEAgAAAAAAAAAA8CFKIAAAAAAAAAAAAB+iBAIAAAAAAAAAAPAhSiAAAAAAAAAAAAAfogQCAAAAAAAAAADwoZ+YDgAAAAAEQdiyY5Iq5vh2haRYkaIsRN8TvncrnYgni5QDAAAAAJCHH927d890BgAAAMCTZiluHv/vFblfeuxr1W5lKgFjkq4+9rWrs3yt76F/p1ACAAAAABdQAgEAACAQHit0Gh761sNfX6FgFzhe8XCRdEtS8qHv9c38SzoR7xMAAAAAYE6UQAAAAChZYcteoQeTOA25fz78tZikSPESwZBJPSiKrupBgdQ387V0In5VAAAAABAwlEAAAADwpIcmd1bkflXowbk564ufCD5xLvfPpLJTRldzv9iSDgAAAIDvUAIBAADAiIdKntn+yfQOTJmZKrr1+D8piQAAAACUGkogAAAAuCJs2RXKFjorHvsVEyUPStdMSXT1sV/JdCJ+y0wkAAAAAJgdJRAAAADyNkvRE1N2moft2hBU5/RgeuiqKIgAAAAAGEQJBAAAgKcKW/YKZUueBjHRA+Tj8QmiPklX04n4VVOBAAAAAPgfJRAAAADuy5U9sYd+VYipHsBtD08PJZWdHLpqLg4AAAAAv6AEAgAACKCHtnFr0IPJHsoewFvO6dHJIbaVAwAAALAglEAAAAA+F7bsmB6c29MgtnEDStnMtnJ9enDeUNJcHAAAAABeRgkEAADgI2HLbtCDrdxWiOkeIChmpoaSyhZDfSbDAAAAAPAGSiAAAIAS9VjhE5O0zlwaAB50QY+eM9RnMgwAAACA4qMEAgAAKAG5Ld0aROEDoDAPF0N9bCUHAAAA+BslEAAAgMeELXuFskVPQ+6fbOkGwE3n9OCcoWQ6Eb9qMgwAAAAA51ACAQAAGPbQtm4z/6w2lwYANKZHS6E+k2EAAAAA5I8SCAAAoIjCll2hbNnTIKZ8AJSOh6eF+tKJ+C2TYQAAAADMDyUQAACAi3JbuzXoQenDWT4A/GDmbKE+ZUuhqybDAAAAAJgdJRAAAICDwpYd04Ot3RrE1m4AgmFMuUJI2S3kkibDAAAAAMiiBAIAAChAbtKnUQ9Kn4i5NADgGZN6UAqdYFIIAAAAMIMSCAAAYAEe296tQUz6AMB8PDwpxPZxAAAAQJFQAgEAADxB2LIr9OikD6UPABRuphQ6oWwpdMtkGAAAAMCvKIEAAAAeE7bsBj0oftaZzAIAAXFBD7aO6zMbBQAAAPAPSiAAABB4YcuO6cGkz1aTWQAAkqSv9WDruKTZKAAAAEDpogQCAACBk9virUEPpn3Y4g0AvIut4wAAAIA8UQIBAIBAeGjap1HSepNZAAAFOacHhVDSbBQAAADA2yiBAACAb4Utu1FM+wCAn92fEkon4ifMRgEAAAC8hxIIAAD4RtiyV+jBtA9n+wBA8HytB1NCV81GAQAAAMyjBAIAACUtt81bY+7XOpNZAACeckHZQugE28YBAAAgqCiBAABAyclt89agbPHDNm8AgKcZ04NCqM9sFAAAAKB4KIEAAEBJeOh8n0ZJEZNZAAAlbVIPCqETZqMAAAAA7qIEAgAAnhS27Ao9KH0aRPEDAHDepKQ+PSiFbpkMAwAAADiNEggAAHjGY8XPVpNZAACB9LUohAAAAOAjlEAAAMAoih8AgEdRCAEAAKDkUQIBAICio/gBAJQYCiEAAACUJEogAABQFBQ/AACfoBACAABAyaAEAgAArgpbdqMelD8Rk1kAAHDQpB6UQSfMRgEAAABmRwkEAAAcF7bsBknNovgBAATDTCHUlU7E+8xGAQAAAB6gBAIAAI4IW3ZMD4qfapNZAAAwaEwPCqGk2SgAAAAIOkogAACQt7Blr1C29GmWtM5kFgAAPOiCpC5lt4y7ajYKAAAAgogSCAAALFjYspuVLX+2mk0CAEDJ+FrZMqjLdBAAAAAEByUQAACYl9x2b3vFOT8AABRi5vygA2wXBwAAALdRAgEAgDk9tN3bXnHODwAAThuTdEBsFwcAAACXUAIBAIAfYLs3AACKju3iAAAA4DhKIAAAIOn+dm/NuV9s9wYAgBmTkrokdbFdHAAAAApFCQQAQICFLbtCD7Z7W2cyCwAA+IELerBd3C2zUQAAAFCKKIEAAAig3NTPXmULIKZ+AADwtklJJyQdYDoIAAAAC0EJBABAQDD1AwCALzAdBAAAgHmjBAIAwOeY+gGCpbqqXMt/Wi5JGro8ocn0tOFEAFzCdBAAAACeihIIAACfClt2s6RmSevNJgFQDDWrK/XJO5bqYksf+Xp3z4jaO77T2PiUoWQAiuCcpK50It5lOggAAAC8hRIIAAAfCVv2CmWnfprF1A8QGDs3rdHnrRvm/P7UnbvaGD+uocsTRUwFwIBJSV3KTgddNRsFAAAAXkAJBACAD4Qtu0HZ8mer2SQAiq26qlzfdu5Q+eJFT3zc8OhNvbjraJFSAfCAr5Utg/pMBwEAAIA5lEAAAJSosGVXKDvxs1dStcksAMz5JG5pz/bYvB77+gendbL/iruBAHjNmKQDym4Xd8tsFAAAABTbj00HAAAACxO27BVhy+6SdFXSH0QBBARazarKeT927aolLiYB4FHVyv68cDVs2V25rWMBAAAQED8xHQAAAMwPW74BAIACRCS9IemNsGWzVRwAAEBAUAIBAOBhuS3fGiW1iYkfAADgjK2StoYte0xSWzoR7zKcBwAAwPcyVjQWSqSSxX5dSiAAADwot1VLs7KTPxGTWQB429DohOpiS+f12OHRmy6nAVBiqiV1hi37gB6cG3TVZCAAAAA/yljRNknJ3K+i+tG9e/eK/ZoAAGAOufKnTdntWgDgqaqryvVt5w6VL170xMcNj97Ui7uOFikVgBJ2WNnpoKumgwAAAPhBxoo2SuoKJVIVJl7/xyZeFAAAPCps2Q1hy+6T9L+iAAKwAGPjU3rPPvfEx0zduavd+3uLlAhAiXtD0v+GLbsvdx4hAAAA8pSxojFJXZJOmMrAJBAAAAaFLbtZnPcDwAE1qyv1yTvWD7aG6+4Z0Xt2QpPpaUPJAJQ4zg0CAADIQ8aKVkjqk7RO0q9CidQJEzkogQAAKLKwZVfowXk/lD8AHFVdVa7lPy2XJA1dnqD8AeCUMT04N+iW2SgAAADel7GiJyRtlTQWSqRWmMpBCQQAQJHkyp+9uV8Rk1kAAADyNKlsGXSAMggAAGB2GSvaJunD3H/+MZRI7TWVhRIIAACXhS17hbJbvnHWDwAA8JPDym4Vd9V0EAAAAK/IWNFGSX976Eu1oUQqaSYNJRAAAK6h/AEAAAFBGQQAACApY0Vjyp4DNLMDjNGt4CRKIAAAHBe27AZlt3zbajYJAABAUX2t7DZxfaaDAAAAFFvGilYoWwCte+jL/xlKpA6YyDODEggAAIfkyp82SevNJgEAADDqnLKTQX2mgwAAABRLxoqe0A9vCP63UCJ1tfhpHqAEAgCgQJQ/AAAAs6IMAgAAgZCxom2SPnzsy+dCiVRD0cM8hhIIAIA8Uf4AAADMC2UQAADwrYwVbZbUOcu3WkKJVFdx0/wQJRAAAAsUtuxmSc2i/AEAAFiIc8qeGXTCdBAAAAAnZKxoTNlzgCKPfWtS0opQInWryJF+gBIIAIB5ypU/bZKqzSYBAAAoaWPKTgZ1mQ4CAACQr4wVrZCU1OzXiQ6HEqnmYuaZCyUQAABPEbbsRkkHRPkDAADgpDFJe5kMAgAApShjRZOS1s3x7V+GEqm+4qWZGyUQAABz4MwfAACAouDMIAAAUFIyVrRL0htzfHsslEitKF6aJ6MEAgDgMZQ/AAAARlAGAQAAz8tY0WZJnU94yEehRKqtOGmejhIIAIAcyh8AAABPoAwCAACelLGiDZK+ecrD/i2USF11P838UAIBAAKP8gcAAMCTKIMAAIBnZKxoTFKfpMgTHvZ1KJFqLEae+aIEAgAEVtiyV0g6IGmr2SQAAAB4gq8l7U0n4ldNBwEAAMGUsaIVyhZA657y0JZQItXldp6FoAQCAAROrvxp09wH+AEAAMB7Dis7GXTVdBAAABAsGSvap6fvIDMZSqQq3E+zMJRAAIDACFt2hbKTP5Q/AAAApeuPypZBt0wHAQAA/pexol2a37WkP4YSqb3uplk4SiAAgO/lyp+9uV9P2rcVAAAApWFS2Zt7DlAGAQAAt2SsaLOkznk+/N9CidRV99LkhxIIAOBrYcveq+zWb5Q/AAAA/jOp7FTQAdNBAACAv2SsaIOkb+b58HOhRKrBvTT5owQCAPhS2LKblS1/qs0mAQAAQBGMKVsGdZkOAgAASl/GisYk9Wn+NxW3hBKpLrfyFIISCADgK2HLblC2/HnaYX0AAADwn3PKlkF9poMAAIDSlLGiFcoWQOvm+ZTJUCJV4VaeQlECAQB8IWzZKyR1ifIHAAAA2TKoOZ2IXzUdBAAAlJaMFU1q/gWQJP0xlEjtdSdN4SiBAAAlLWzZFcoeCvyG2SQAAADwoMOS9qYT8VumgwAAAO/LWNEuLfwa07+FEqmrzqdxxo9NBwAAIF9hy26TdFUUQAAAAJjdG5Ku5n5uBAAAmFPGirZp4deYznm5AJKYBAIAlKCwZTcre+5PtdkkAAAAKCFjyp4X1GU6CAAA8JaMFW2W1JnHU1tCiVSXs2mcRQkEACgZYctuULb84dwfAAAA5OucsmVQn+kgAADAvIwVjUnqkxRZ4FPHQonUCqfzOI0SCADgeWHLXqFs+cO2bwAAAHDKYWXLoKumgwAAADMKKIAk6aNQItXmZB43UAIBADwrbNkVkvbmfuXzZgwAAAA8yaSkA+lEvM10EAAAUFwZK1qhbAG0Ls8l/s3r5wFJlEAAAI8KW3ajpAPi3B8AAAC4b0zS3nQifsJ0EAAAUBwZK5pU/gXQ4VAi1excGvdQAgEAPCVs2TFlyx/O/QEAAECxnVO2DEqaDgIAANyTsaJdKuzYgV+GEqk+Z9K4ixIIAOAJua3f2iS9azYJAAAAoD8qe17QLdNBAACAszJW9IAKu/50IZRIxZxJ474fmw4AAEDYspslXRUFEAAAALzhXUlXcz+nAgAAn8hY0WYVfv3pQOFJiodJIACAMWz9BgAAgBLAFnEAAPhAxoo2SPqmwGUmQ4lUReFpiocSCABQdGz9BgAAgBLEFnEAAJSojBWNSeqTFClwqY9CiVRboXmKie3gAABFxdZvAACYUV+7TPW1y0zHAEoZW8QBAFCCMlZ0hZwpgCSpy4E1iuonpgMAAIKBrd8AAADgAxFJnbkiiC3iAADwuIwVrZB0Qs4UQIdDidRVB9YpKiaBAACuClt2RdiyD0gaFAUQAABGVVc9YzoC4BfrJQ2GLftAbqtjAADgTX2S1jm0VpdD6xQVJRAAwDVhy24UW78BAOAZy6vKTUcA/GZmi7hG00EAAMCjMla0S84VQOdCiVSfQ2sVFdvBAQAcF7bsFcreHcHkDwAAHlGzaonpCIBfRST9LWzZ5yQ1pxPxq4bzAAAQeLkC6A0Hl+xycK2iYhIIAOCosGW3SUqKAggAAE+JhMtk1S4zHQPws/WSkrmfhwEAgCEZK9osZwugsVAi1eXgekXFJBAAwBFhy26QdEDOjdkCAAAApSYi6cPc9nB704l4n9k4AAAES64A6nR42QMOr1dUlEAAgILkDsJtE+f+AADgeZFwmekIQFCsk/RN2LL/KKktnYjfMpwHAADfy1jRmJwvgCZVwlvBSWwHBwAoQO4Ox6uiAAIAwPMqninTWs4FAortXUlXcz83AwAAl+QKoD4Xlj4QSqRuubBu0TAJBABYsLBlr1B2FHar2SQAAGC+alZVmo4ABFVE0t/Clv21pGamggAAcFbGiq5QtgCKuLB8lwtrFhWTQACABQlb9l5JSVEAAQBQkmpWUwYBhmxVdipor+kgAAD4RcaKVkg6IXcKoMOhROqqC+sWFZNAAIB5yU3/dElabzYJAAAoBOcCAUZFJP0htz1cczoRv2o2DgAApStXAPUpexafG9pcWreomAQCADxV2LLblJ3+oQACAAAACrdeUpKpIAAACnJC7hVA5/wwBSRRAgEAniBs2bGwZSclfSh3xmoBAECRzGwDVx9bajgJgJyZqaBk2LJjpsMAAFBKMla0S+7erNzm4tpFRQkEAJhVbvpnUO7dUQEAAIqofPEi0xEAzG6dpMHcz98AAOApcgXQGy6+xLlQItXn4vpFxZlAAIBH5O5C7BLlDwAAvlT903LTEQDM7sOHzgpKGs4CAIAnZaxom9wtgCTpgMvrFxWTQACA+5j+AQDA/6qrKIEAD2MqCACAOWSsaLOyRxa4aSyUSJ1w+TWKikkgAADTPwAA+BzFD1BymAoCAOAhuQKoswgv1VaE1ygqJoEAIOCY/gEAwN8i4TJtro/e/++62FLta3leNasrDaYCMA9MBQEAICljRRtVnAJoLJRIdRXhdYrqR/fu3TOdAQBgANM/AAD4376W5/Xb12pVvnjRrN8fSN7Qe39KaOjyRJGTAVigC2IqCAAQQBkrGpPUJylShJdroQQCAPhC2LL3KjveWow3UAAAUGSRcJl67G1au2rJvB7/5v5eHTkz4nIqAAWalNSWTsQPmA4CAEAxFLkAmgwlUhVFeJ2iowQCgAAJW/YKZad/1ptNAgAA3PRtx455F0AzXv/gtE72X3EpEQAHnVN2Kuiq6SAAALilyAWQJH0USqTaivRaRcWZQAAQELnpn6QogAAA8LV9Lc8vuACSpEP7NigSLnMhEQCHrZeUzP18DwCA72SsaIWkEypeATQp6UCRXqvomAQCAJ8LW3aFstM/W80mAQAAbouEyzTyVcucZwA9TXvnd2rv/M7hVABc9LWyU0G3TAcBAMAJuQKoT8U9w9q3U0ASk0AA4Gthy26UdFUUQAAABMKW+mjeBVD2+SsdTAOgCLZKupr7uR8AgJJmqADy9RSQxCQQAPhSbvqnTdK7ZpMAgH/UrK7U5rroI187NZDS0OUJQ4mAB+prl0mSdm5ao6aNawpaayB5Q4nB64987dr4lMbGb9//78n0NH/2Ae/5o6Q2poIAAKXIUAEk+XwKSKIEAgDfCVt2TNl9U6vNJgEAf6hZXalDrRvmPGNlePSmdu/v5YI4HDdT7FSEy+7/+av+abmqq8olZf9sFjL147Th0ZuaTE/fL5D6kzfU/1iZBMB1Y5Ia04l40nQQAAAWImNF+1T8c6wnJa0IJVK3ivy6RUUJBAA+ErbsNkkfGo4BAL6xc9Mafd66YV6PfXN/r46cGXE5EfyovnaZ6mNLJWWLnYpwmepy/+0V18Zv69r4lCRpaHRCt25PZ6eBRm9mv/+vKY3lvg/AEz5KJ+JtpkMAADAfGSvaJekNAy/t+ykgiRIIAHwhbNkrJHWp+HdMAIBv1ayu1D///PqCnvPz33zBRBBcEQmXqWZ15SNfq656RstzU0Ezdm56Vsurnsn7dabu3NV79rn7W78xyQOUtHOSmtOJ+FXTQQAAmIvBAigQU0ASJRAAlLzcIbBdkiJmkwCAv3zbsWPOLeDmMjx6Uy/uOupSIuDp8ikvH3ZqIKVf7zvlYCIAhk0qWwSdMB0EAIDHGSyApIBMAUnSj00HAADkJ2zZFWHL7pL0N1EAAYCjalZXLrgAkqS1q5b8YFoDKKahyxMaSN7I+/mffpV0LgwAL4hI+lvYsrvCll1hOgwAADMMF0CTkg4Yeu2iowQCgBIUtuyYpKTMvVkCgK9trosaeS7ghPf+lMjreacGUmz/BvjXG5KSuc8RAAAYZbgAkqQDQdgGbgYlEACUmLBl75U0KKnacBQAAOBBQ5cn9Ob+3gU9Z3j0pna3L+w5AEpOtaTB3OcJAACMyFjRZpktgAI1BSRJPzEdAAAwP7ntG7okbTWbBAAAeN2RMyOaTN/VoX0bVL540RMfe2ogpd3tvZpMTxcpHQDD/hC27AZlzwq6ZTgLACBAcgVQp+EYgZoCkpgEAoCSkPuQdlUUQAAAYJ5O9l/Rmlc71d75na6N337ke1N37urUQEqb3v2rfr3vFAUQEDxbJV3Nfc4AAMB1HimAAjcFJEk/unfvnukMAIAnCFt2m6QPDccAgECpWV2pf/759bye+/PffKGhyxMOJypNNasrf3BG0qmBFL8/hvTY21QXWypJ+vfXujQ2PmU4EQCP+CidiLeZDgEA8C+PFECS9FEokWozHaLY2A4OADwqt/3bCUnrzSYBgOAZujyh4dGbWrtqyYKeNzx6k4JD2fLnUOuGWX//9rU8nz1/Zn8vv1cGUQABeMiHuYmgRraHAwA4zUMFUCCngCS2gwMAT3po+zcKIAAwZPf+3qI8x292blqjf/759ScWaGtXLdE///y6dm5aU8RkuMWWbwDmtl5sDwcAcJiHCiBJagvaWUAzKIEAwGNy2799IyliNgkABNvQ5Qm9uYBS500mW1SzulKft26Y9+M/b92gmtWVLibCw4L+5xPAU0UkfZP7PAIAQEE8VgCNhRKpA6ZDmEIJBAAeEbbsirBl94nzfwDAM46cGdHPf/OFhkdvzvmY4dGb+vlvvtCRMyNFTOZNhxZQABXyHACAqz4MW3ZfbntqAAAWzGMFkCS1mQ5gEmcCAYAH5LZdOCGmfwDAc4YuT+jFXUdVs7pSm+uij3zv1ECK6YqcmtWVCz5DScpuDVezupLfxyK4ljsHaCB5w3ASACVgZnu4xnQi3mc6DACgdHiwABoLJVJdpkOYRAkEAIbltltg+gcAPG7o8gRFxRM8XpAt9Ln83rpvbPy26QgASsvM9nAfpRPxNtNhAADe58ECSAr4FJBECQQAxuS2V+iStNVsEgAAAACY04dhy45Jak4n4rcMZwEAeFTGisbkvQLoQtCngCTOBAIAI3IfopKiAAIAAEXCtBWAAmyVlMx9jgEA4BG5AqjPcIzZ7DUdwAsogQCgyMKW3SxpUFK14SgAACBAJtPTkqRbuX8CwAJVSxrMfZ4BAEDSIwWQ1865PhdKpPpMh/ACSiAAKJKwZVeELbtL3huNBQCgYKcGUkaei4VjIghAgTrDlt2V294aABBgHi6AJM4Cuo8SCACKIGzZK5R9U3zDbBIAANwxdHlCw6M3F/y84dGblBJFNJC8YToCAH94Q1Jf7nMOACCAPF4AHWYK6AFKIABwWdiyG5Q9/2ed2SQAALhr9/7eojwHAOAJ65Q9J6jBdBAAQHF5vACSmAJ6BCUQALgobNltkr6Rd98UAQBwzNDlCb25gFLnzf29TAEVGecBAXBYRNI3uc89AIAAKIEC6HAokbpqOoSX/OjevXumMwCA7+T2x+6StNVsEgAAiq9mdaUOtW7Q2lVLZv3+8OhN7aYAMmJfy/O6Nj6lI2dGTEcB4D9fS2pOJ+K3TAcBALgjY0WbJR2QdwugSUkrQonULdNBvIQSCAAcFrbsmLIFENu/AQACrWZ1pTbXRR/52qmBFOWPQftanld/8ob6B6+bjgLAny4oWwQlTQcBADgrVwB1ms7xFB+FEqk20yG8hhIIABwUtuxGZQsgr94RAQAAAmznpjUaG79NCQTATZPKFkEnTAcBADijRAqgMUkxpoB+iDOBAMAhuX2w/yYKIAAA4FFj47dNRwDgfxFJf+OcIADwhxIpgCSpjQJodkwCAUCBcuf/HJD0htkkAAAAT1Zfu0ySmAQCUCyHJe3lnCAAKE0lVACNhRKpFaZDeBUlEAAUIGzZKySdEOf/AAAAAMBsLkhqTCfiV00HAQDMXwkVQJL0y1Ai1Wc6hFexHRwA5Cls2Q2SkqIAAgAAAIC5rJOUzH1+AgCUgBIrgM5RAD0ZJRAA5CFs2c2SvhHn/wAAAADA00QkfZP7HAUA8LASK4Akqdl0AK+jBAKABQpbdpdK680QAAAAALygM/d5CgDgQSVYAB0OJVJXTYfwOs4EAoB5Clt2hbLn/6w3mwQAAAAASto5Zc8JumU6CAAgqwQLoElJK0KJ1C3TQbyOSSAAmIewZcck9YkCCAAAAAAKtV5SX+5zFgDAsIwVbVNpFUCSdIACaH6YBAKAp8gdYHpCnP8DAAAAAE6aVHYiqM90EAAIqowV7ZL0hukcCzQWSqRWmA5RKpgEAoAnyB1c+o0ogAAAAADAaRFJ3+Q+dwEAiqxECyBJ2ms6QClhEggA5pA7sLQU3wgBAAAAoNQcTifizaZDAEBQlHABdC6USDWYDlFKKIEA4DFhy66Q1CVpq9kkAAAAABAoX0tqTifit0wHAQA/K+ECSJJqQ4lU0nSIUkIJBAAPyRVAfZLWmU0CAAAAAIF0QVIDRRAAOC9jRSskHVDpFkB/DCVSe02HKDWUQACQE7bsmLIFEOf/AAAAAIA5k8oWQUnTQQDAL3IFUJ9K98bnSUkrQonULdNBSs2PTQcAAC8IW3ajKIAAAAAAwAsikvpyn9MAAAXyQQEkSW0UQPlhEghA4IUtu1lSp+kcAAAAAIAfaEkn4l2mQwBAqfJJAXQhlEjFTIcoVUwCAQi0sGV3iQIIAAAAALyqM/e5DQCwQBkrukKlXwBJ0l7TAUoZk0AAAils2RUq7YPwAAAAACBIDkvam07Eb5kOAgClIGNFY/LH0QeHQ4lUs+kQpYwSCEDg5AqgPpX+XRAAAAAAECQXJDVQBAHAk/moAJqUFAslUldNByllbAcHIFDClh0TBRAAAAAAlKJ1kvpyn+sAALPwUQEkSQcogArHJBCAwHioAPLDmyAAAAAABNWkshNBSdNBAMBLMla0WdnjD/xw7WsslEitMB3CD5gEAhAIYctuFAUQAAAAAPhBRNmJoEbTQQDAK3IFUKf8c+2r2XQAv6AEAuB7YctulvQ3+edNEAAAAACCLiLpb7nPewAQaA8VQH7xdSiR6jMdwi8ogQD4Wtiy2+SvN0EAAAAAwAOduc99ABBIGSt6QP669jUpaa/pEH7CmUAAfCts2V2S3jCdAwAAAADgusPpRLzZdAgAKKaMFe2S/659/WcokTpgOoSfUAIB8CUKIAAAAAAIHIogAIGQsaIVkg7If9e+LoQSqZjpEH5DCQTAV8KWXSGpT9I6s0kAAAAAAAZckNSQTsRvmQ4CAG7IFUB98ue1r19yFpDzOBMIgG9QAAEAAABA4K2T1Jf7fAgAvuLzAugwBZA7KIEA+ELYsmPy75sgAAAAAGD+ZoqgmOkgAOCUjBWNSUrKn9e+JiXtNR3Cr9gODkDJe6gAiphNAgAAAADwkEllt4ZLmg4CAIXIFUB98u+1r5ZQItVlOoRfUQIBKGkUQADwQ9VV5Vr+03JJ0tDlCU2mpw0nAgAAMIYiCEBJy1jRBkkn5N9rX+dCiVSD6RB+RgkEoGSFLbtRUpf8+yYIAAtSs7pSn7xjqS629JGvd/eMqL3jO42NTxlKBgAAYNSkpOZ0In7CdBAAWIiMFW2W1Gk6h8v+LZRIXTUdws8ogQCUpLBlN8v/b4IAMG87N63R560b5vz+1J272hg/rqHLE0VMhblUV5Xr7ddiqllVef9rQ6MT+vTLJGUdAADuaUkn4l2mQwDAfGSs6F5JfzCdw2UfhRKpNtMh/I4SCEDJoQACgEdVV5Xr284dKl+86ImPGx69qRd3HS1SKsxl56Y1+iS+ftb/vabu3NV79jkdOTNiIBkAAIFAEQTA8zJWtEvSG6ZzuGwslEitMB0iCH5sOgAALAQFEAD80NuvxZ5aAEnS2lVLtKV+ZRESYS71tcv0eeuGOf/3Kl+8SJ+3blDN6spZvw8AAArWmftcCQCeFJACSJKaTQcICkogACUjbNltogACgB94eEuxp1m7aomLSfA0H7Q8P6/HffKO5XISAAACrTP3+RIAPCNjRSsyVjSpYBRAh0OJVJ/pEEFBCQSgJIQtu0vSh6ZzAACQr+qqctXFls7rsXWxpaquKnc5EQAAgfZh7nMmABiXsaIrJPVJWmc2SVFMStprOkSQUAIB8LzcD+ZBuAsCAOBjy3+6sFJnoY8HAAAL9gZFEADTMlY0JimpYBRAktQcSqRumQ4RJJRAADyNAggAnm5odGLejx0eveliEgAAgJJDEQTAmIwVbVB2AihiNknRfB1KpE6YDhE0lEAAPIsCCADm59Mvk5q6c/epjxsevamT/VeKkAizGbo8/7Iun8cDAIC8UQQBKLqMFW2W9I2CUwCxDZwhlEAAPIkCCADmb2x8Su/Z5574mKk7d7V7f2+REmE2k+lpdfeMzOux3T0jmkxPu5wIAAA8hCIIQNFkrGibpE7DMYqtLZRIXTUdIoh+dO/ePdMZAOC+sGVXSDohab3ZJABQempWV+qTdyzVxZY+8vXunhG9ZyfmVSpUV5XfP4tm6PIERYTDIuEyjXzVovLFi+Z8zNSdu1rzaie/9wAAmHFOUmM6Eb9lOggAf8pY0S4F78bnc6FEqsF0iKCiBALgGbkCqE/BOQgPAFyRT5HzpAKpveM7jY1PuZI1iGpWV+pQ6watXbXkB98bHr2p3ft72QoOAACzLkhqoAgC4KSMFa1QcG98/jemgMyhBALgCRRAAGDOzk1r9Hnrhjm/P3XnrjbGj1NMOGxL/cpHiiDObAIAwFMoggA4JmNFVyhbAAXxutdHoUSqzXSIIKMEAmAcBRAAmFNdVa5vO3c8cXsyKVtQvLjraJFSAQAAeAJFEICCZaxoTNnrXhGzSYy4EEqkYqZDBN2PTQcAEGwUQABg1tuvxZ5aAEnS2lVLtKV+ZRESAQAAeMY6SX25z60AsGAZK9qo4BZAktRsOgAogQAYRAEEAObVrKqc92NnO8MGAADA5yiCAOQlY0WbJf1NwS2APgolUknTIUAJBMAQCiAAAAAAQImgCAKwIBkr2iWp03QOgy5wDpB3UAIBKDoKIAAAAABAiaEIAvBUGStakbGiJyS9YTqLYc2mA+ABSiAARUUBBADeMjQ6Me/HDo/edDEJAACA51EEAZhTxoquUPaa11azSYxjGziPoQQCUDQUQADgPZ9+mdTUnbtPfdzw6E2d7L9ShEQAAACeRhEE4AcyVjQmKSmuebENnAdRAgEoCgogAPCmsfEpvWefe+Jjpu7c1e79vUVKBAAA4HkUQQDuy1jRZmWveUXMJvGEZtMB8EM/unfvnukMAHyOAggAvK9mdaU+ecdSXWzpI1/v7hnRe3ZCk+npBa0VCZdpMj2tocvz324OAACgxFyQ1JBOxG+ZDgLAjIwV3SvpD6ZzeMRHTAF5EyUQAFdRAAFAaamuKtfyn5ZLkoYuTyyo/NnX8rx++1qtyhcvuv+1qTt39d9fDqq98zvHswIAAHgARRAQUBkr2iXpDdM5POJCKJGKmQ6B2VECAXANBRAABMehfRvUtHHNnN/v7hnR7na2lAMAAL5EEQQESMaKVojrXY+rDSVSSdMhMDvOBALgpj7xhggAvrev5fknFkCS1LRxjfa1PF+kRAAAAEW1TtIJ0yEAuC9jRWOSkuJ618M+ogDyNkogAK4IW3aXeEMEgED47Wu1jj4OAACgBK3PfQ4G4FMZK9qo7A3P1WaTeMoFzgHyPkogAI7L/eDLnqgAEAA1qysfOQPoScoXL1LN6kqXEwEAABjzBkUQ4E8ZK7pX0t8kRQxH8ZJJSc2mQ+DpKIEAOIoCCACCJRIuc/XxAAAAJYYiCPCZjBXtkvQH0zk8qI1t4EoDJRAAx1AAAUDwTKanXX08AABACaIIAnwgY0UrMlY0Ka51zeZcKJE6YDoE5ocSCIAjKIAAIJiGLk9o6s7deT126s5dDV2ecDkRAACAJ1AEASUsY0VjkpLivOvZsA1ciaEEAlCwsGUfEAUQAATWf3856OjjAAAAfOKNsGW3mQ4BYGEyVrRZUp+karNJPGtvKJG6ajoE5u9H9+7dM50BQAkLW3azpE7TOQAAZh3at0FNG9fM+f3unhHtbu8tYiIAAADPaEkn4l2mQwB4uowVbZP0oeEYXvZ1KJFqNB0CC0MJBCBvFEAAgIfta3lev32tVuWLF93/2tSdu/rvLwfV3vmdwWQwrbqqXMt/Wi4pu4UgZ0MBAAKIIgjwsIwVrZDUJWmr2SSeNilpRSiRumU6CBaGEghAXiiAAABzqVldqUi4TJPpac4ACria1ZX65B1LdbGlj3y9u2dE7R3faWx8ylAyAACMoAgCPChjRVdIOiHO/3maX4YSqT7TIbBwlEAAFixs2Y2S/mY6BwAA8K6dm9bo89YNc35/6s5dbYwfpygEAATNr9KJ+AnTIQBkZaxog7IFUMRsEs/7YyiR2ms6BPLzY9MBAJSWsGXHlB2PBQAAmFV1Vbk+ia9/4mPKFy/SoSeURAAA+FRX7nM1AMMyVrRZ0jeiAHqaC5LaTIdA/iiBAMxb7gfVPvHmCAAAnuDt12KPnA01l7WrlmhL/coiJAIAwDMikvooggCzMla0SxxzMF/NnANU2iiBAMwLBRAAAJivmlWV837s2lVLXEwCAIAnUQQBhmSsaEXGiiYlvWE6S4n4z1AilTQdAoWhBALwVGHLrlB2CzgKIAAAAAAAChdRdmu4CtNBgKDIWNGYpKuS1plNUjLOhRKpA6ZDoHCUQACeKPcDaZ94gwQAAAAAwEnrlJ0IqjAdBPC73Pk/g+IG5/malNRsOgScQQkE4Gn6RAEEAAAWYGh0Yt6PHR696WISAAA8b52yn7sBuITzf/LSHEqkrpoOAWdQAgGYU9iyu0QBBAAAFujTL5OaunP3qY8bHr2pk/1XipAIAABPW5f7/A3AQZz/k7c/hhKpE6ZDwDmUQABmlfsBlDdJAACwYGPjU3rPPvfEx0zduavd+3uLlAgAAM97gyIIcA7n/+TtgqQ20yHgLEogAD8Qtuw2UQABAIACHDkzop//5gsNJG/84HvdPSNa82qnhi7Pf9s4AAAC4I3c53EABchY0b3i/J98NYcSqVumQ8BZP7p3757pDAA8JGzZzWKfVADwneqqcr39Wkw1qyrvf21odEKffpnU2PiUwWQIguqqci3/abkkaejyhCbT04YTAQDgaS3pRLzLdAig1GSsaIWkA+LG5nz9ZyiROmA6BJxHCQTgvrBlN0r6m+kcAABn7dy0Rp/E16t88aIffG/qzl29Z5/TkTMjBpIBAABgDr9KJ+InTIcASkXGiq6QdEJs/5avr0OJVKPpEHAHJRAASVLYsmOS+sSoLAD4Sn3tMp3543889XE//80XbM0FAADgHZOSGtKJeNJ0EMDrMla0UVKXuKaVr0lJK9gGzr84EwgABRAA+NgHLc/P63GfvGO5nAQAAAALEJHUl/u8DmAOGSvapuyuNlzTyl8jBZC/MQkEBFzYsiuULYAYlwUCqL52mSSpuuoZLa/KntdR8UzZI+fGSNLyqnItr3rmqetN3bk76zRJYvD6/X+/Nj6lsfHbkjgbxG3VVeX6v182z/vx//5aF+cDAQAAeMsFZSeCbpkOAnhJ7vyfLklbzSYpeR+FEqk20yHgLkogIMAogIBgqK9ddr/ksXKlT11sqeFUj5opj26lp+8XQ0OjN3XtX1OUEgWY71ZwMza9+1f1P1TYAQAAwBMogoCHZKxoTNnzf6rNJil5F0KJVMx0CLjvJ6YDADDqgCiAAN+IhMtUs7pS9bGlqlldqZpVlfOa3vGC8sWL7hdTm+uiP/j+8OhNTaanlRi8fn+SiLICAAAAAbFO2c/vzWZjAOZlrGizsn8f2P6tMJOSGk2HQHEwCQQEVNiyuyS9YToHgPxVV5Wrvnap6muXqT62rGQKHycNj97U2PiUhi5PqD95g+3lHhMJl+nG33fP+/FLXz7E7x8AAIB3HU4n4s2mQwAm5LZ/OyCuZTnlV6FE6oTpECgOSiAggMKW3Syp03QOAAu3pX6l6muXanPdykCWPvNxbfy2hkYn7hdDQZ8YOrRvg5o2rnnq47p7RrS7vbcIiQAAAFCAlnQi3mU6BFBMGSu6Qtnt39jNxhl/DCVSe02HQPFQAgEBE7bsRkl/M50DwPxEwmXaUh/V5vqVs26ThvkZHr2p/uR19Q9mp4WCdM5QJFymka9aVL540ZyPmbpzV2te7WQKCAAAoDT8Kp2InzAdAiiGjBVtlNQltn9zCucABRAlEBAgYcuOSeoTb5yAp1H8uO/a+O1cKZQthvxeCtWsrtSh1g1au2rJD743PHpTu/f3aujyhIFkAAAAyMOkpIZ0Ip40HQRwU8aKHpD0rukcPjIpKRZKpK6aDoLiogQCAiJs2RWSrooCCPCs+tpl2rlpjbbUr3zi1Aacd238tk4NXFH/4A0lBq/7diJmS/3KR4qg4dGbOtl/xWAiAAAA5GlS0op0In7LdBDAabnzf05IWm82ie9wDlBAUQIBAZArgPrE3qmA58xM/exreYEzfjxkIJktg04NpJiQAQAAgFddUHYi6JbpIIBTMla0QdkCiJuYncU5QAFGCQQEQNiyT0jaajoHgAeqq8r19msx7dz0LFM/Hjd1565O9l/Rqf6Ur6eEAAAAUJK+TifijaZDAE7IWNE2SR8ajuFHnAMUcJRAgM+FLbtL0humcwDIqq4q175dz6tp4xrTUZCnUwMp9Q9e16n+lO/PEgIAAEBJOJxOxJtNhwDyxfZvruIcIFACAX4WtuxmSZ2mcwCg/PGr4dGbOnLmEoUQAAAATGtJJ+JdpkMAC8X2b67jHCBQAgF+FbbsBknfmM4BBB3lT3BQCAEAAMCwX6YT8T7TIYD5Yvs313EOECRRAgG+FLbsmKQ+cRcFYEwkXKa3X43pt6/V+u7Mn4HkjQU/py621IUk3kUhBAAAAAMmJTWkE/Gk6SDAk7D9W1GcCyVSDaZDwBsogQCfCVt2hbIF0DqzSYDg2lK/Ur9/x9LyqmdMR5m3a+O3dW18SmPjUxr711Tu329LkoYuT2gyPe3o69WsrlQkXJb991VLFAmXqeKZMtWsyn597aoljr6eSRRCAAAAKKILyhZBt0wHAWbD9m9FMSlpRSiRumU6CLyBEgjwmbBl94k7KQAjqqvKdWjfBk9PvUzduauhyxNKDF7X8OhNjY1PaejyhOlYs4qEy1SzulLVVc9oeVV57t/LS7ogOjWQ0qn+KzrZn3K8WAMAAAByzqUT8QbTIYDHsf1b0fwylEj1mQ4B76AEAnwkbNldkt4wnQMIordfjemDXS94buu34dGb6k9eV//gDQ1dnvDNJMrDhVDN6krVrKosqcmrqTt3dbL/io6cGVH/4HXTcQAAAOA/h9OJeLPpEIDE9m9F9lEokWozHQLeQgkE+ETYspsldZrOAQRNdVW5/tK+2TPTKdfGb6s/eV2n+lNKDF4P1LTJzORQfWxpSRVD18Zv68iZS+o+M+Kbkg4AAACe0JJOxLtMh0Cwsf1bUX0dSqQaTYeA91ACAT4QtuwGSd+YzgEEjVemf2bOnOlP3vDs1m6mVOe2kauvXar62DLPlHVzGUje0JEzl3TkzIjpKAAAAPCHX6YT8T7TIRBMbP9WVGOSYpwDhNlQAgElLmzZKyQlxR0VQNFEwmU6tG+DNtdFjWW4Nn5bpwau6NMvk0yPLEAkXCardpnnS6GpO3d15Mwl/vcFAABAoSYlxdKJ+FXTQRAcGSu6QlKX2P6tWCYlNYQSqaTpIPAmSiCghIUtu0JSn6R1ZpMAwVGzulJ/+d1mY9uMdfeMcI6Mgx4uhTbXrfTk9nFMBwEAAKBAFyQ1pBPxW6aDwP8yVrRR2QKIm5WLpyWUSHWZDgHvogQCSljYsk9I2mo6BxAUOzet0eetG4r+ujNnxnz6VTJQZ/yYUF1Vni2E6lfKql1mfKu/h03duav//nKQs4MAAACQj8PpRLzZdAj4W8aKHpD0rukcAXM4lEg1mw4Bb6MEAkpU2LLbxL6qQNEc2rdBTRvXFPU1r43fVnvneSZADNpSv9KTU0KnBlL69KskE2EAAABYiI/SiXib6RDwn4wVjSk7/cNONcV1IZRIxUyHgPdRAgElKGzZjZL+ZjoHEAQmzv+h/PGmmtWV2lwX1Zb6lZ45S2jmz8rJ/hRTYgAAAJiPX6UT8ROmQ8A/Mla0WdIBsf1bsU1KWhFKpG6ZDgLvowQCSkzYsmPKngPEmyvgski4TD32tqJd8Kf8KR3VVeXaXB/Vzk3PeqIQYqs4AAAAzNOksucDJU0HQWnLWNEKZad/OKbAjF+GEqk+0yFQGiiBgBIStuwKZQsgxmsBl9WsrtRffre5KFuAzVzAb+/8zvXXgvO8Vgh194zo06+SGro8YToKAAAAvOmCskXQLdNBUJpy27+dkFRtNklg/WcokTpgOgRKByUQUELCln1C3GEBuK5mdaV67G0qX7zI9dfq7hnRe3aCrbx8wkuF0EDyhj79KqmT/VeM5gAAAIAnfZ1OxBtNh0DpyVjRNnFGtUmHQ4lUs+kQKC2UQECJCFt2m3iTBVxXrALo2vht7d7fq/7B666+DsypWV2pnZvWaHPdyqJMlM2FbQYBAAAwh4/SiXib6RAoDRkrukLZ7d/Wm00SaBckNXAOEBaKEggoAWHLbpD0jekcgN8VqwBq7/yOrd8CZkv9Sm2uj6pp4xpjGa6N39aRM5f06VdJJs8AAAAw45fpRLzPdAh4W8aKNipbAHE+tTmTkmKhROqq6SAoPZRAgMeFLXuFpKR4owVcVYwCiOkfRMJl2lIf1duv1hrbLm7mDCrKIAAAACh3YTmdiF81HQTek7GiFZIOSHrDbBJI+mUokeozHQKliRII8LCwZVdI6pO0zmwSwN8i4TKNfNXiagHE2T94XHVVud5+Laadm54tyvlTs+nuGVF7x3caG58y8voAAADwhAuSGtKJ+C3TQeAdGSsak3RCUrXZJJD0n6FE6oDpEChdlECAh4Utu0vcbQG4KhIuU4+9zdWpjDf393IeC55o56Y12rnpWdXFlhp5fcogAACAwDucTsSbTYeAN2SsaJs4l9orDocSqWbTIVDaKIEAjwpbdrOkTtM5AL/7tmOHawXQtfHb+vUHpzR0ecKV9eE/pqeDKIMAAAACrSWdiHeZDgFzMlZ0hbJn/6w3mwQ5FyQ1hBKpW6aDoLRRAgEeFLbsmKRB0zkAvzu0b4OaNq5xZe3h0ZvaGD/O9m/I285Na4ydHUQZBAAAEFi16UQ8aToEii9jRZuVPf+HM6m9YVJSLJRIXTUdBKWPEgjwmNw5QEmx5yrgqrdfjen371iurN3dM6Ld7b2urI3gqa9dpp2b1rhWWD4JZRAAAEDgjEmKcT5QcGSsaIWy0z9bzSbBY2pDiVTSdAj4AyUQ4DFhyz4h3ngBV9XXLtOZP/6HK2tTAMEt1VXlatq0Rr99rbboW8VRBgEAAATK1+lEvNF0CLgvY0UblC2AuBHZW1pCiVSX6RDwD0ogwEPClt0mDt4DXFVdVa5vO3e4chH9zf29OnJmxPF1gcft3LRG+1pe0PKqZ4r6upRBAAAAgfFROhFvMx0C7slY0QOS3jWdAz9wOJRINZsOAX+hBAI8ImzZDZK+MZ0D8LtvO3a4csYKBRBMqK9dpg9anlddbGlRX5cyCAAAIBB+mU7E+0yHgLMyVjSm7PTPOrNJMItzoUSqwXQI+A8lEOABuXOArorD9wBX7Wt5Xvtannd8XQogmFZdVa59u54v+rlB7Z3f6dOvkppMTxf1dQEAAFAUk5JWcD6Qf2Ss6F5JfzCdA7MakxQLJVK3TAeB/1ACAR4Qtuw+SetN5wD8zK1zgCiA4CXVVeV6+7WYdm56tmjnBk3duav//nKQMggAAMCfzqUT8QbTIVCYjBVdoez0D9eevGlSUkMokUqaDgJ/ogQCDOMcIMB9kXCZvu3Y4fj5Kf/1p4Q+/Srp6JqAEyLhMr39aky/fa22qGXQ7zrO83cC8Lia1ZXaXBd95GunBlIaujxhKBEAoARwPlAJy03/tIndZ7zsV6FE6oTpEPAvSiDAIM4BAorjk7ilPdtjjq7Z3TOi3e29jq4JOC0SLtPOTWv09qu1jpegc7k2flvtneeZkAM8pmZ1pQ61bpjzXLzh0Zvavb+XMggAMBfOByoxGStaoez0z1azSfAU/xlKpA6YDgF/owQCDOEcIKA43NgGjgIIpWjnpjXa1/JC0cqg4dGbeu9PCfUPXi/K6wGY285Na/R564Z5PZZtTgEAc+B8oBKSsaKNyhZAXHPytsOhRKrZdAj4HyUQYAjnAAHuc2MbuOHRm9oYP87ZJyhZxS6DBpI39N6fEkwXAIbUrK7UP//8+oKe8/PffMHfWQDAbDgfyOOY/ikpF0KJVMx0CATDj00HAIIodw4QBRDgsrdfjTl6oXvqzl0KIJS8I2dG9OxrnXpzf6+ujd92/fXqYkv1zz+/rkP7Nqi6qtz11wPwqEPznAAq9DkAgEBYn7ueAQ/KWNEGSUlRAJWCMUkNpkMgOJgEAoqMc4CA4qiuKtf//bLZ0TW5Mxp+VMzJoKk7d/XfXw7q06+SlKlAEeQzBTSD9zwAwBNwPpCH5KZ/2iS9azYJ5mlSUkMokUqaDoLgYBIIKKLcOUAnDMcAAuHQPmfvYv4vtrOCTxVzMqh88SLta3le33bs0M5Na1x9LQDS5rqokecCAHzvRO76Bgx7aPqHAqh0NFMAodgogYDi6hKH8gGu21K/UnWxpY6td2ogpU+/Sjq2HuBFxSyDllc9o89bN+jbjh2qr13m6msBAADAcRFlr2/AkIwVrchY0QPK7jRTbTgO5u8/Q4nUCdMhEDyUQECRhC17r9iXFSiK379jObbWtfHb2t3e69h6gNfNlEH/9aeEpu7cdfW11q5aojN//A/9pX0z5wUBAACUlq256xwosowVjUnqE9M/peZwKJE6YDoEgokSCCiCsGXHJP3BdA4gCN5+Nebo2Sa//uAUZ5cgkD79Kqk1r3aqvfM718ugzXVRfdu5Q/tanlckXObqawEAAMAxf8hd70CRZKxom6RBSevMJsECnQslUs2mQyC4fnTv3j3TGQBfy+2TmxTjuYDrIuEyjXzVovLFixxZr73zO7V3fufIWkApi4TL9ParMf32tVrH/n7N5dr4bbV3nteRMyOuvg4QBDWrK/XPP7+e13N//psvOAsPADAfY5Ji6UT8lukgfpab/ukS5U8puiCpIZRI3TIdBMHFJBDgvgOiAAKK4u1XY45doB4evUkBBORMpqfV3vmdXmw5qu4ed8uZmfOCeuxtqlld6eprAX43dHlCw6M3F/y84dGbFEAAgPmqVva6B1zC9E9Jm5TUTAEE05gEAlwUtuxGSX8znQMIAqengLgDGphbdVW5Du3boLrYUtdf67NjSf2u4zu2ZQTylM80EO+BAIA8/CqdiJ8wHcJPmP7xhdpQIpU0HQJgEghwSdiyVyj7Zg2gCJycAvrsWJKLX8ATjI1PaWP8uDa9+1cNJG+4+lp7tsc08lWLdm5a4+rrAH41dHlCb+7vnffj39zfy3sgACAfXbnrIHAA0z++0EIBBK9gEghwSdiy+yStN50DCAInp4Cujd/Wi7uOMnUALMDOTWu0r+UFLa96xtXXGUje0Ht/SnCBGshDzepKHWrdoLWrlsz6/eHRm9pNAQQAKMy5dCLeYDpEKWP6xzc+CiVSbaZDADMogQAXhC27TdKHhmMAgfH2qzH9/h3LkbXe3N/LgfRAnva1PK/fvlbr2FTeXNgiDshfzepKba6LPvK1UwMpyh8AgFM+SifibaZDlKLc9A/Xkkrf4VAi1Ww6BPAwSiDAYWHLjik7sgugSC592eLIBMJA8oY2xo87kAgIrki4TB/sel57tsdcfZ2pO3f1nn2O0hYAAMB7atOJeNJ0iFLB9I+vXAglUjHTIYDHcSYQ4KCwZVdIOmE4BhAoOzetcWwLqt91fufIOkCQTaan9Z6d0L+/1uXqeUHlixfp89YN6rG3qbqq3LXXAQAAwIKdyF0fwRNkrGhFxooeEGf/+MUFSQ2mQwCzoQQCnNUmqdp0CCBIdm561pF1untG1D943ZG1AEhj41PaGD+uTe/+VdfGb7v2OnWxpfq/XzZrX8vzioTLXHsdAAAAzFu1stdHMIeMFW2QlJT0rtkkcMikpMZQInXLdBBgNmwHBzgkbNmNkv5mOgcQJDWrK/XPP7/uyFr//lqXxsanHFkLwA+9/WpMH+x6wdXzgq6N39bu/b0UugAAAN7wq3QifsJ0CC/JWNEKZQsyyh//mJTUEEqkkqaDAHNhEghwQG7MuctwDCBw3n415sg63T0jFECAyz79Kqk1r3aqu8e9M3yWVz2jM3/8D/2lfTNTQQAAAOZ1sS3cA0z/+NZeCiB4HSUQ4IwuSRHTIYAgiYTLtKV+pSNrtXdwFhBQDJPpae1u79XPf/OFq+cFba6LauSrFseKYgAAAOQlIm6YnTn754Skb8QRAn7TEkqkukyHAJ6GEggoUNiy90raajoHEDRb6qOObCvFFBBQfEOXJ7Qxflxv7u/V1J27rrxG+eJF+v07lnrsbaquKnflNQAAAPBUW3PXTQIpY0UbJV0V14386DAFEEoFZwIBBQhb9gplR3mZAgKK7NuOHVq7aknB63AWEGBWJFymD3Y9rz3bY66+Tnvnd2rvZOoPAADAgElJsXQiftV0kGLJnf3TJcofvzocSqSaTYcA5otJIKAwXaIAAoquuqrckQKIKSDAvMn0tN6zE65vEbev5Xl927FDNasrXXsNAAAAzCpQ28JlrOheMf3jZxcogFBqKIGAPOXGmdebzgEE0duvxRxZ59Ovko6sA6Bwxdgibu2qJfrnn1/XJ3FLkXCZK68BAACAWa33+7ZwGSu6ImNF+yT9Qdww7FcXJDWYDgEsFNvBAXkIW3ZM0qDpHEBQXfqyRcurnilojYHkDW2MH3coEQAnFWOLuGvjt7V7f6/6B6+79hoAAAB4xKSkhnQinjQdxGkZK9om6UPDMeCuSUmxUCJ11XQQYKGYBALy02U6ABBUNasrCy6AJKaAAC+b2SJu07t/1fDoTVdeY3nVMzrzx/9gKggAAKB4fLctXMaKxjJWNCkKIL+blNRAAYRSRQkELFDYstskrTMcAwisnZvWFLzGtfHbOtl/xYE0ANzUP3hdL+46qv/6U8K1LeL2bI/p244dqq9d5sr6AAAAeMS63HWVkpaxohUZK3pA2V1iuEbkf42hRCppOgSQL0ogYAFy28Bxdwdg0Oa6lQWvceTMJQeSACiWT79K6sWWozo1kHJl/ZmpoL+0b2YqCAAAwH0f5q6vlKSMFW2QlJT0rtkkKJKWUCLVZzoEUAhKIGBhukwHAILMqa3gus+MOJAGQDGNjU/p1/tO6fUPTuva+G1XXmNzXVQjX7VoS33hZTMAAACeqMt0gIXKTf+ckPSNpGrDcVAcLaFEqst0CKBQlEDAPLENHGDe5rpowWucGkhpbHzKgTQATDjZf0Uv7jqqz44lXVm/fPEiffG7V5gKAgAAcFdJbQuXsaJ7JV2VtNVsEhTRYQog+MWP7t27ZzoD4Hm5MeVB0zmAoPu2Y4fWrlpS0Bpv7u/VESaBAF+or12mT96xCv7/C3O5Nn5bu/f3qn/wuivrAwAAQLXpRDxpOsRcMlZ0hbJTS+vNJkGRHQ4lUs2mQwBOYRIImJ8u0wGAoIuEywq+0Dt15y4FEOAj/YPX9eKuo2rv/M6V9WfOCvokbjEVBAAA4I4u0wHmkrGibZL+VxRAQXOOAgh+QwkEPAXbwAHesKW+8K3gTvZfcSAJAK9p7/xOP//NFxpI3nBl/T3bY/q2Y4fqa5e5sj4AAECAeW5buIwVbchY0auSPjSdBUV3QVKj6RCA0yiBgCfIbQPHmz7gAU5cfD3Vn3IgCQAvGro8oY3x4/qvPyU0deeu4+szFQQAAOCaD3PXX4zKWNGKjBXtkvSNpGrDcVB8FyQ1hBKpW6aDAE6jBAKerMt0AABZW+pXFvT8qTt3mQTCEzHl4Q+ffpXUiy1HXZ0K6rG3qWZ1pSvrAwAABFSXyRfPWNFmSVclvWEyB4yZlNRMAQS/ogQC5sA2cIB31KyuVPniRQWtQQGEp6mPLTUdAQ4ZG59ydSpo7aol+uefX9e+lucdXxsAACCg1oUte2+xXzRjRVdkrGifpE5JkWK/PjxhUtkJoKTpIIBbKIGAWYQte4WkvYZjAMhx4uI8W8EBweP2VNC+luf1bccOVVeVu7I+AABAwLTlrse4Lrf1W5uk/5W0vhivCU+iAEIgUAIBs+sSd4AAnlHoNl1sBYf5YHsvfyrGVNC3nTv09qsxx9cGAAAImIiKsC1cxoo2SEqKM6Ah7aUAQhBQAgGPyY0fcxcI4CFWgSVQYvC6Q0ngV5FwmSrCZaZjwEVuTgWVL16k379j6S/tmxXhzxEAAEAh1ru1LVxu67cTkr6RVO3Ga6CktIQSqS7TIYBioAQCHhK27ApJbYZjAHhIdVV5wecBnWIKCE9Rs7qSi/cB4PZU0Oa6qEa+atGW+pWOrw0AABAgbbnrM47JWNG9yk7/bHVyXZQsCiAECiUQ8KgusQ0c4Cn1tYWfB9Q/6M55IPCXtauWmI6AInF7KuiL372iT+IWxSIAAEB+HNsWLmNFGzJWNCnpD+J6D7IOUwAhaCiBgJywZTeKO0IAzyn0nJbh0ZsaG59yKA0Av3B7KmjP9ph67G2cNQUAAJCfrbnrNHnJWNGKjBU9oOzWb+ucCoWSdziUSDWbDgEUGyUQoPvbwHUZjgFgFvWxws4D6k9yHhDmr7qq3HQEFNnMVNDw6E3H1167aon++efX9farMcfXBgAACICufLaFy1jRZklXJb3rcB6UNgogBBYlEJDVJsaCAU8qdIsutoLDfNTk/pwt/yklUBCNjU/pxV1H1d75nSvr//4dSz32NraHAwAAWJiIFnBuc8aKxjJWtE9Sp7jGg0ddoABCkFECIfDClt0g7g4BPKm+trApIElKDDIJNKO6qlyfxLMXo2d+fRK3mH6RuDgPSVJ753f6+W++cGUqqC62VCNftWhL/UrH1wYAAPCxd3PXbeb00NZvg5LWFyMUSsoFSQ2mQwAmUQIB0gHTAQDMrqbAKaDh0ZuaTE87lKa07dy0Rt927tCe7THVxZbe/7Vne0zfdu7Qzk1rTEf0hPrYUtMRYNjQ5Qm9uOuoPjuWdHzt8sWL9MXvXtEnccvxtQEAAHzswFzfyFjRRrH1G+Z2QVJDKJG6ZToIYBIlEAItbNlt4oBAwLOqC9yai/OAsuprl+nz1g0qX7xo1u+XL16kz1s3cIA98JD37IQ2vftXXRu/7fjae7bH9G3HDv7OAQAAzM+63PWb+zJWdEVu67e/ia3fMDsKICCHEgiBFbbsFZL2Go4B4AlqVhV2gXTo8oRDSUrbBy3Pz+txn7wT3OmEmcKx0OIR/tI/eF0v7jqqUwMpx9deu2qJeuxtTOEBAADMz96wZa/Ibf3WJul/xdZvmNukpEYKICCLEghB1iXuFgE8ra7Arbn6B284lKR0VVeVz/v3sS62NLDnA8383x3U//sxt8n0tH6975Te3N+rqTt3HV17Zgrv0L4NnEsFAADwZJEmXTolKSnpQ8NZ4G2Tyk4AXTUdBPAKSiAEUtiyG8UdI4CnFXoxfurOXY2NTzmUpnQtX+Bky0IfDwTFkTMjerHlqAaSzpfLTRvXsD0cAADAHJZrSqd1TJ/p7L9LqjadB542UwAlTQcBvIQSCIETtuwKZaeAAHhYoWUEW8EhH1yEx5OMjU9pY/y42ju/c3zt5VXP6J9/fl1vvxpzfG0AAIBSFNG0WnVew+pQnTjvFU9FAQTMgRIIQdQmtoEDPK++wK3gEoN8SJAWXoYFvTwrX7zIdASUgPbO7/Tz33yha+O3HV/79+9Y+kv7ZraHAwAAgbZZV/QPdet9nTcdBaWDAgiYAyUQAiVs2TFJ75rOAeDpKp4p7ALo8OhNh5KUtsn0tLp7Rub12O6eEU2mp11O5E0Pn5vExXfMx9DlCb2466hODaQcX3tzXZTt4QAAQCDNbP3WrZP6mdjeG/PWQgEEzI0SCEFzwHQAAPNTs6qwi59Bn2h52Ht24qkH2k/duav37ESREnlHfe0yHdq34ZGvfduxQ4f2bVB97TJDqVAqJtPT+vW+U3pzf+9T/44tFNvDAQCAIIloWh/rHFu/IR8toUSqy3QIwMt+dO/ePdMZgKIIW3azpE7TOQDMz6UvW7S86pm8nx+2bAfTlL6a1ZU61LpBa1ct+cH3hkdvavf+3kAVZ5Fwmf6nffMjE0CzGUje0P/ZdyqwE1KYv+qqcv2lffOsf8cKdWogpd3tvfw5BAAAvtSkS/pY51QuftbBglEAAfNACYRACFt2haSr4iwgoGSkE/G8nzuQvKGN8eMOpvGPLfUrH7lIPTx6Uyf7rxhMVHzVVeX6tnPHvM//uTZ+W5vixzU2znYUeLpP4pb2bI85vu618dv69QenAlXWAgAAf1urCX2sc0z+IF8UQMA8UQIhEMKWfUCcBQSUjOqqcv3fL5vzfn53z4h2t/c6Fwi+8m3HjgVPawyP3tSLu466lAh+s6V+pQ7t2zDvonEh3tzfqyNn5nfOFwAAgBdFNK1WnddbGjQdBaWLAghYAM4Egu+FLbtBFEBASVn+0/KCnj/2LyY2MLt9Lc/ntV3X2lVLtK/leRcSwY9O9l/Rmlc7NZC84fjan7du0KF9GxQJlzm+NgAAgNv2aFAX1UEBhEJ8RAEELAwlEIKgzXQAAAtTXcBZQJLU78KFV/jDzk3PGnkugmcyPa2N8eNq7/zO8bWbNq5Rj71NNasrHV8bAADADXW6rn+oW/s5+weFORxKpNpMhwBKDSUQfC1s2c2S1pvOAWBhllcVNgnE4emYTc3qSi0voGBcXvUMF92xYO2d32nTu3/V1J27jq67dtUS9djbtHPTGkfXBQAAcFJE0zqoszqtY3pOnG2IghwOJVLNpkMApYgzgeBbYcuukHRVUsRsEgALVejB6mHLdi4MSk7N6sr7W2XVx5ZKkiqeKVN9bFleW8HN5fGtvsbGp36wFeHjU2lDlycoKQMqEi7T/7RvVl3uz6STPjuW1Ht2wvF1AQAACtGq89qjQSZ/4AQKIKAAlEDwrbBlHxBnAQElqcfelveF0mvjt/Xsa50OJ4JpcxU7NauykznLq8oLmvJxy7Xx27o2ni2GhkYndOv2tCbT0+pP3tDQZe6EDKJ9Lc+7cr7U8OhNbYwfp2QEAADG1em6PtdZ/Uyc1QpHUAABBfqJ6QCAG8KWHRMFEBBIMxfc4Q/VVeVa/tNyVYTLfjDF8/C2gdfGp3RtfMqVKYvZDI/e1GR6WrfS0/fLnOHRm7qVuwDfP3i9KDlQeto7v1N/8ob+p32zyhcvcmzdtauWaOSrFv2ffaf48wcAAIxYrikd1FnViZ9F4BgKIMABTALBl8KW3SfOAgJK1v935s28L45294xod3uvw4lQqiLhsvvn+FSEy/TF714paL1/f61LYxSNcICb28P9158S+vSrpOPrAgAAzCaiae3RoN7XedNR4C8UQIBDfmw6AOC0sGU3igIIKGmF3B3/+JksCLbJ9LT6B6+rf/C6TvZf0fDozbzXGh69SQEEx0ymp7Uxflztnd85vvbv37F0aN+G+1soAgAAuKVJl/QPdVMAwWkUQICDKIHgK2HLrpB0wHAMAAZxHgae5NOvBvN+rhsX64H2zu+06d2/aurOXUfXbdq4Rj32tvuTcAAAAE6q03Wd1jF9xtk/cB4FEOAwSiD4zV5J1aZDAMhfoRcshwqY9ID/HTkzolMDqQU/79RASif7r7iQCMieIbXm1c6CJtVms3bVEvXY27SlfqWj6wIAgOCaOffntI5x9g/cQAEEuIASCL4RtuwVypZAAEoY2xfBbbvbexd0sX0geYNzpuC6yfS0Xtx1VJ8dSzq6bvniRfrid69oX8vzjq4LAACCp1Xn9Q91a4cumY4Cf7ogrusBrqAEgp+0SYqYDgHArKHLE6YjwONmLra3d373xC24pu7cVXvnd9oYP842gyia9+yEXv/gtOPbw+1reV5/ad9M0Q4AABasSZd0UR16X+dVLn4uhisuSGoIJVK3TAcB/OhH9+7dM50BKFjYshskfWM6B4DCbalfqS9+90rezw9btoNp4HeRcJl2blqjLfUrVRdbKik7+XPkzCWd7E9R/sCYmtWVOtS6QWtXLXF03eHRm9q9v5fCHAAAPFWdrqtV59n2DW6jAAJcxiQQ/KLNdAAAznD6gifwJJPpaX36VVKJwQcfbH/X+Z2OnBmhAIJRQ5cntDF+XN09I46uyzlBAADgaTj3B0VEAQQUASUQSl7YspslrTedA4B5A8kbpiMAgGMm09Pa3d6r//pTwtF1OScIAADMJqJpzv1BMVEAAUVCCQQ/aDMdAABQ2oZHb5qOAMzp06+S2vTuXzknCAAAuKZJl/QPdXPuD4qFAggoop+YDgAUImzZbZKqDccAAEiqrirX26/FVLOq8v7XhkYn9OmXSY2NTxlM9nS32PoNHtc/eF1rXu1Uj73N0W0zN9dF1WNv06/3nfL831MAAOC8Ol3X73VOz4nzAlE0FEBAkTEJhJIVtuwKSXsNxwDgsOqfluf9XC5gmrNz0xp927lDe7bHVBdbev/Xnu0xfdu5Qzs3rTEdcd6u/Ys/R/CmyfS0Xtx11JVzgr7t3KH62mWOrgsAALxruaZ0Wsd0WscogFBMFECAAZRAKGUHJEVMhwDgrOqqAkogLt4bUV+7TJ+3blD54kWzfr988SJ93rpBNasrZ/2+F/QPPjjwljIRXre7vVdv7u91dM3yxYt05o//UVKFLQAAWLiIpnVQZzWsDtXp+tOfADiHAggwhBIIJSls2SskvWE6BwBA+mCeh8t/8o7lchIgOI6cGdHPf/OF4+cEfd66QYf2bXB0TQAAYF5E02rVeV1Uh3bokuk4CB4KIMAgSiCUqi7TAQAA2cmtutjSeT22Lra0oEkvtzl9MR1w29DlCa15tVPDozcdXbdp4xp927FDkXCZo+sCAAAzmnRJ/1C33td5lYuzMFF0FECAYZRAKDlhy26QtN50DgCAtHyBZzgt9PHFNHSZvdBRelw9J6hjh6e3cQQAAE9Wp+v6h7r1mc7qZ2LLYxhBAQR4ACUQSlGb6QAAvKk/ecN0BJQ4pycqgGJx45yg5VXPqMfepi31Kx1dFwAAuGutJnRax3Rax/ScuNEJxlAAAR5BCYSSErbsZjEFBACesdDpGS9P24yNT2kyzfYYKF1unBNUvniRvvjdK3r71ZhjawIAAHcs15QO6qwG1K06XTcdB8F2OJRIxSiAAG+gBEKpaTMdAADwwGR6et7bUHX3jHi6ZBn7F1tkoPS5dU7Q79+xdGjfBkfXBAAAzohoWq06r2F1aIcumY4DHA4lUs2mQwB4gBIIJSNs2XslVZvOAQB41Ht24qmTB1N37uo9O1GkRECwuXVOUNPGNfq2Y4ci4TJH1wUAAPmZKX8uqkPv67zpOIBEAQR4EiUQSkLYsivEFBAAeNJkelob48fnnDwYHr2pjfHjnp4CkjgPCP6zu71X//UnZ8vXtauW6NuOHapZXenougAAYGGadEn/ULfe13mVy9s/ZyMwKIAAj/qJ6QDAPO2VFDEdAgAwu6HLE3px11FtqV+ptauW3P/68OhNney/YjDZ/N1KTysxyN7p8JdPv0pqaPSm/qd9s8oXL3JkzeVVz6jH3qbd7b0l8/cbAAC/2Kwr+ljn9DOxlTE8hQII8DBKIHhebgpor+EYAIB5ONl/hYvCgMf0D17XxvhxHWrd8EhJW4jyxYv0xe9e0Zv7e3XkjLPbzgEAgB+q03W16rzqxE1L8BwKIMDj2A4OpeCAmAICALisnykg+NjQ5QltjB/XQPKGo+t+3rpBh/ZtcHRNAADwwHJN6bSO6bSOUQDBiyiAgBJACQRPC1v2CklvmM4BAABQ6mbO7+rucXZyp2njGv2lfbMi4TJH1wUAIMiWa0oHdVbD6qD8gVdRAAElghIIXtdmOgAAIDiGR2+ajgC4bnd7r97c3+vompvrouqxt1EEAQBQoIim75c/O3TJdBxgLhRAQAmhBIJnMQUEACg2zjNCUBw5M6JN7/5VU3fuOrbm2lVLNPJVi2pWVzq2JgAAQRHRtFp1Xhcpf+B9H1EAAaWFEghedsB0AAAAAL/qH7yujfHjjk7AlS9epB57m7bUr3RsTQAA/Ozh8ud9nVe5pk1HAp6kJZRItZkOAWBhKIHgSWHLbpC01XQOAAAAPxu6PKGN8eMaSN5wbM3yxYv0xe9e0c5NaxxbEwAAP2rSJf1D3ZQ/KBUtoUSqy3QIAAtHCQSvajMdAAAAIAgm09PaGD+u7p4RR9f9vHWDDu3b4OiaAAD4QZMu6aI69JnO6meaMh0HmA8KIKCEUQLBc3JTQOtN5wAAAAiS3e29enN/r6NrNm1co7+0b1YkXObougAAlKLNukL5g1JEAQSUOEogeFGb6QAAAABBdOTMiF7/4LSm7tx1bM3NdVH12NsoggAAgVWn6zqtY+rWScoflBoKIMAHKIHgKUwBARgb50MRAJh0sv+KNsaPO1oErV21RN927FDN6krH1gQAwOtmyp/TOqY6XTcdB1iISUm/ogAC/IESCF7TZjoAALPG/kUJBACmDV2e0JpXOzU8etOxNZdXPaMeextFEADA9yh/UOImJTWEEqkTpoMAcAYlEDyDKSAAAADvmExPa2P8uE4NpBxbs3zxIv3zz69r56Y1jq0JAIBXLNeUDuos5Q9K2UwBlDQdBIBzKIHgJW2mAwAAAOCByfS0fr3vlLp7Rhxd9/PWDRRBAADfmCl/htWhHbpkOg6QLwogwKcogeAJYctuFFNAAApUH1tqOgIA+NLu9l69ub/X0TU/b92gQ/s2OLomAADFRPkDH6EAAnzsJ6YDADkHTAcAAADA3I6cGdFk+q4O7dug8sWLHFmzaWN2Gmh3u7MFEwAAblquKbXqPMUP/OKCsgXQLdNBALiDSSAYF7bsZknVpnMA8Ib+5A3TEQAAczjZf0Ub48c1deeuY2s2bVyjbzt2KBIuc2xNAADcwOQPfIgCCAgASiB4QZvpAAAAAJifocsTerHlqIZHbzq25tpVS9Rjb6MIAgB4UkTTatV5/UPdlD/wEwogICAogWAUU0AAAAClZ2x8Shvjxx0vgka+alHN6krH1gQAoBAz5c9Fdeh9nVe5pk1HApxCAQQECCUQTGs2HQCAf1i1y0xHAIDAmExP68VdR9XdM+LYmuWLF6nH3kYRBAAwivIHPnc4lEjFKICA4KAEgjFhy26QtN50DgDe0j943XQEAMAC7G7v1WfHko6tN1ME7dy0xrE1AQCYD8ofBMDhUCLVbDoEgOL6iekACLQ20wEAAABQuPfshIYuT+jz1g2OrFe+eNH9tY6ccW7SCACA2UQ0rT0a1B4NUvzAzyiAgICiBIIRTAEBAAD4y0xZ80l8vcoXL3Jkzc9bN2h5VbnaO79zZD0AAB5G+YMA+c9QInXAdAgAZrAdHExpMx0AgHfle9B4XWypw0kAAAtx5MyINsaPa+rOXcfW3NfyvA7tc2bCCAAAiW3fEDgtFEBAsFECoeiYAgLwNJNpPoQBQKkaujyhjfHjeRf6s2nauIYiCABQMMofBFBLKJHqMh0CgFmUQDChzXQAAAAAuMetIqjH3qZIuMyxNQEAwUD5gwCalPQrCiAAEiUQiowpIADzMTQ6kfdza1ZXOpgEAJCvyfS0NsaPayB5w7E162JLKYIAAPNG+YOAmpTUEEqkTpgOAsAbKIFQbHtNBwDgfbdu5//hjAuDAOAdM0VQd8+IY2uuXbWEIggA8ESUPwiwmQIoaToIAO+gBELRhC17haStpnMAAACguHa39zpeBI181cL0JwDgEZQ/CLgLkmIUQAAeRwmEYmozHQBAaegvYOug+thSB5MAAJyyu71Xb+7vdWy98sWL1GNvowgCAFD+ANkCqCGUSF01HQSA91ACoShyU0BvmM4BAAAAc46cGaEIAgA4hvIHkPSgALplOggAb6IEQrG0mQ4AoHRc+9dU3s+teIYzIgDAy46cGdGmd/+qqTt3HVmvfPEi/fPPr2vnpjWOrAcA8L7lmtJBndU1HaT8QdAdDiVSMQogAE9CCQTXhS27QkwBAViAsfH8S6CaVdwNDgBe1z94XRvjxx0rgiTp89YNFEEA4HMz5c+wOrRDl0zHAUw7HEqkmk2HAOB9lEAohr2mAwAoPU5eGAQAeM/Q5QmKIADAvFD+AD/wEQUQgPmiBIKrclNAew3HAFCChi5P5PW8uthSh5MAANwydHlCa17t1PDoTcfW/Lx1g/a1PO/YegAAcyh/gFm1hBKpNtMhAJQOSiC4rVlSxHQIAAAAeNNkelob48cdLYL2tTyvQ/s2OLYeAKC4KH+AObWEEqku0yEAlBZKILhtr+kAAEpTYvB63s+tWc25QABQSmaKoIHkDcfWbNq4hiIIAEpMna7rtI5R/gA/NCmplgIIQD4ogeCasGU3S6o2nQNA8ETCZaYjAAAWaKYI6u4ZcWxNiiAAKA0z5c9pHVOd8r8ZDPCpSUkNoUQqaToIgNL0E9MB4GttpgMAKF39BdwNXl31jPodzAIAKJ7d7b2SsgWOE2bWec9OaDI97ciaAABn1Om6WnWe4geY2wVJjaFE6qrpIABKFyUQXBG27AYxBQTAkOVV5aYjAAAK4EYRVLOqUhvjxymCAMADNuuK3tIg5Q/wZBeUnQC6ZToIgNLGdnBwS5vpAABKW38BZwJV/5QSCABK3e72Xr25v9ex9dauWqIeextbhgKAQU26pIvqULdOUgABT/a1KIAAOIQSCI4LW/YKSetN5wAQXNVMAgGALxw5M0IRBAA+MFP+fKaz+pmmTMcBvO5wKJFqpAAC4BRKILihzXQAAP4wkOe5QDWrKx1OAgAwhSIIAEpTRNPao0HKH2Bh/hhKpJpNhwDgL5RAcFRuCugN0zkA+MOtPM9tKF+8yOEkAACTZoqgqTt3HVmPIggA3BPRtFp1XhfVof06R/kDzF9LKJHaazoEAP+hBILTmk0HAOAfQ5cn8n4u00AA4C9HzoxoY/y440UQ7xcA4IyHy5/3dV7lyu+GLiCAJpUtgLpMBwHgT5RAcEzYsisk7TUcA4CPXBvP/65B7u4GAP8ZujxBEQQAHrNcUzqos5Q/QH4mJTVQAAFwEyUQnNQoKWI6BAD/GBu/nfdz62NLHUwCAPAKp4ug8sWLKIIAIA8z5c+wOrRDlyh/gIUbU7YASpoOAsDfKIHgpDbTAQD4SyHbwVU8wyQQAPgVRRAAmFOn64+UPwDyckFSjAIIQDFQAsERYctukFRtOgcAf5lM5383Yc0qLuQBgJ8NXZ7Qmlc7NTx605H1KIIA4MnqdF2ndUyndYzyByjM18pOAN0yHQRAMFACwSl7TQcA4E8DyRt5PY+LeADgf5PpaW2MH6cIAgAXNenS/fKnTtdNxwFK3eFQItVIAQSgmCiBULCwZa+QtNV0DgD+NDY+ldfzyhcvcjgJAMCLKIIAwB1NuqSL6tBnOkv5Azjjo1Ai1Ww6BIDgoQSCE9pMBwDgX2P/yq8EkqT62mUOJgEAeBVFEAA4I6Jp7dHg/fLnZ8r/Z3EAj2gJJVJtpkMACCZKIBQkbNkVkhoNxwDgY4Vc0KuuesbBJAAAL6MIAoD8RTStVp3XRXVov85R/gAOmVKZ/l9tuxPR3hOmswAILkogFKpZUsR0CAD+le92cJK0vKrcwSQAAK+jCAKAhVmuKR3UWV1Uh97XeZVr2nQkwDemVKaXtV3n9LPF4gZqAAZRAqFQe00HAOBvQ5cn8n6uxXZwABA4k+lpvbjrqLp7RhxZjyIIgB/NlD/D6tAOXaL8ARx2UZV6Trs0rPs/P7QZjAMg4CiBkLewZTdIqjadA4D/5XtHN5NAABBcu9t7KYIA4DF1uq7TOna//AHgvAEt08varkmVPfzl6tx1NAAoOkogFGKv6QAAgiHfLeGWcyYQAASa00XQP//8unZuWuPIegBQTJt1Rad1TKd1THW6bjoO4FtH9axe+WEBNGNvkeMAgCRKIOQpbNkrJG01nQNAMBSyJVw9W8IBQKA5WQRJ0uetGyiCAJSMJl3SRXWoWycpfwCXfawX9JZeetJDtuaupwFAUf3EdACUrL2mAwAIjkIO+K6uekb9DmYBAJSe3e29kqSmjc6UN5+3bpAkHTnjXLkEAE6JaFp7NKgmXdLPlN9EPYCF2aOX1K1n5/PQveKaGoAiowRCvppNBwAQHIVMAtWsrpS4SAcAgUcRBMDvlmtKTbqkPRpUuaZNxwECYUplelnbNax5nxvYLEogAEXGdnBYsLBlN0uKmM4BIDjyPRNIkmpWcYg3ACCLreEA+NFyTemgzmpYHXpf5ymAgCL5XuULLYAkKZK7rgYARUMJhHw0mw4AIHgGkjfyel7NakogAMADbhRBvNcAMKFO13VUJzWsDu3QJdNxgEC5qEr9Qk0LLYBmNDscBwCeiBIICxK27Jik9aZzAAieodH8toQrX7xI1VXlDqcBAJQyp4ugHnsbRRCAotmsKzqtYzqtY3pFV0zHAQLnqJ7Vy9quSZXlu8T63PU1ACgKSiAs1F7TAQAE09i/8t8SbvlPKYEAAI9ysggqX7yIIgiA65p0SRfVoW6dVJ2um44DPNFFVWoq/5LEs47qWb2llwopgGbsdSAOAMwLJRDmLWzZFZIaDccAEFBDozfzfm59bKmDSQAAfkERBMDrIppWq87rex3UZzqrnyn/G6OAYphSmQ6qVpJ8dz7VHr2kt/SSU8s15q6zAYDrKIGwEI2SIqZDAAim/sH873bkghwAYC4UQQC8aLmmdFBndVEdel/nfXcxHf50UZV6Sy+pSZf0nPLbztuLplSmJm1Rt551ctmIuNEaQJFQAmEh9poOACDYhvOcBqpZxcU4AMDcKIIAeEWdruugzmpYHdqhS5Q/KBkf6wW9qZd0UGd99ed2SmV6Wdt1SivdWH6vG4sCwOMogTAvuQPr1pnOASDYhkbzu5tsedUzioT9tx81AMA5FEEATNqsKzqtYzqtY9qhS6bjAPN2UZWqU5OuqVx/1zFfFUAXVanntEvDcu39fF3uehsAuIoSCPO113QAABj7V/57oHMhDgDwNBRBAIqtSZd0UR3q1knVKf/tjwETPtYL+oWaVKMJfeazCaDTWqmXtV2Tcv1mwr1uvwAAUALhqXIH1TUajgEA6k/eyPu59bGlDiYBAPgVRRAAt0U0rVad1/c6qM90Vj9T/jc6ASbMTP/s1wv6WOf0mc6ajuSoo3pWO7SlGAWQJDXmrrsBgGsogTAfjcoeWAcARvUP5n93JBfgAADzRREEwA3LNaWDOquL6tD7Ou+rqQkEx8z0z7AqdVBn9ZYGTUdy1B69pLf0UjFfMiJuvAbgMkogzMde0wEAYMbw6M28nleziotvAID5owgC4JQ6XddRndSwOrRDlyh/UJIGtExrtUv79YIimvbd+VVTKlOTtqhbz5p4+b0mXhRAcFAC4YlyB9StM50DAGYMjU7k9bzlVc+ouqrc4TQAAD+jCAJQiCZd0mkd02kd0yu6YjoOkJcplalV6/WKtuuayhXRtP6uY746w+p7letlbdcprTQVYV3YsleYenEA/kcJhKdpNh0AAB42dDm/EkhiSzgAwMI5XQT95XebFQkX5YwBAAZENK09GtRFdegznfXVhXIEz4CW6Rdq0meqlSSt1YQuqkPPKf/PZF5zUZX3t7czbK/pAAD8ixIIT9NsOgAAPGwoz+3gJGntqiUOJgEABIWTRdDyqmfUY2+jCAJ8Zrmm1KrzuqgO7dc5/UxTpiMBeXt8+kfKbmv4dx3z1XaGR/WsXtZ2TcoT78nNpgMA8C9KIMwpbNnNyh5QBwCe0T+Y/92UVu0yB5MAAILEySJo7aolFEGAT6zVhA7qrIbVofd13lcXyBFMp7Xykekf6cHWhn76831QtXpLL3mlAJKkSO46HAA4jhIIT9JoOgAAzGYgeSOv59XFljqcBAAQJBRBAGZs1hWd1jENqFs7dMl0HKBgUypTk7Zoh7bcn/6RpI91Tp/prMFkztujl/S+1puOMZtG0wEA+BMlEGaVO5Buq+kcADCboVHOBQIAmEERBARXRNNq0iVdVIe6dZLzfuAbR/WsntMundLK+1+LaFoHdVZvadBgMmdNqUx1alK3njUdZS5bc9fjAMBRlECYS6PpAAAwl6HL+ZdA9UwDAQAKRBEEBMvD5/18prOc9wPf+F7lekXbf7AtWkTT+ruO+WrK7aIq9bK2a1ievymw0XQAAP5DCYS57DUdAADm0j+Y33ZwEpNAAABnOF0EfRK3HFkLgHM47wd+dlC1+oWaNKBHz01dqwn9Q916TvnfeOc1A1pWKgWQxPU4AC74iekA8J6wZcckVZvOAQBzGRuf0tSduypfvGjBz62PLXv6gwAAmIfd7b2KhMu0uS5a8FpNG9fcXxOAWZt1RW9pkO3e4EsXVak39dKshUidrusLnfRV4XlUz+otvWQ6xkJUhy07lk7Ek6aDAPAPJoEwm72mAwDA0yQG8/tQvrzqGVVXlT/9gQAAzMPu9l4Nj950ZK2mjWt0aN8GR9YCsDCc9wO/m1KZWrVev1DTrAVQky7ptI75qgDao5dKrQCasdd0AAD+QgmE2TSaDgAAT9OfZwkkSfW1nAsEAHDGZHpaG+PHKYKAEsV5PwiCAS3TL9Skz1Q76/cP6qw+09kip3LPlMrUpC3q1rOmo+Sr0XQAAP5CCYRHhC27WVLEdA4AeJqhAi62cS4QAMBJbhRBnBEEuKtO1znvB743U4a8ou26ph/uhhDRtE7rmHbokoF07vhe5XpZ23VKK01HKUQkd30OABxBCYTHNZoOAADzUdAkEOcCAQAc5nQRtGd7TDs3rXFkLQAPzGx55bcL38DjDqpWz2nXnGXIWk3o7zrmq60PL6pyzu3uSlCj6QAA/ONH9+7dM50BHhG27BWS/td0DgCYrx57m+pi+W3ttvTlQ5pMc8cnAMBZkXCZeuxtWrtqiSPrvbm/V0fOjDiyFhBUM+f97NEg273B9y6qUv+l9RrQ3De+1em6vtBJX03AHdWzel/rNaky01Gc9G/pRPyq6RAASh+TQHhYo+kAALAQiQKmgaxapoEAAM5zeiLo89YNTAQBeVquKR3UWV1Uh/brHAUQfG1KZWrVev1CTU8sgGam4fxUAH2sF/SWXvJbASRxnQ6AQyiB8LBm0wEAYCH6kzfyfm59bX4TRAAAPM1kelq79/dq6s5dR9b7vHWDttSX9NkGQFHV6bqO6qSG1aEduuSri93AbE5rpX6hJn2m2ic+7qDO6jOdLVIq902pTHv0kvbrBdNR3NJsOgAAf2A7OEiSwpYdkzRoOgcALEQkXKYbf9+d13OHR2/qxV1HHU4EAMADNasr1WNvU/niRQWvNXXnrjbGj2vo8oQDyQB/atIlteo8Ez8IjO9Vrjf10hMnf6TslohHddJX5/9MqUwva7tfzv95ktp0Ip40HQJAaWMSCDOaTQcAgIWaTE/nvd3O2lVLFAn7brsAAICHDF2e0Mb4cUcmgsoXL1KPvU01q31/sQtYkOWaUqvO63sd1Gc6SwGEwPhYLzx16zdJWqsJ/V3HfFUAXVSlntOuIBRAEtfrADiAEggzGk0HAIB89Cc5FwgA4F0UQYA71mpCB3VWw+rQ+zrPlm8IjAEt01rt0n698NQzcOp0XX/XMT0n/0yRntZKvaztfjz/Zy6NpgMAKH2UQFDYshskVZvOAQD56B/kXCAAgLc5XQT95XebmWZFYM0caj+gbu3QJdNxgKL5XuVq0ha9ou26pvKnPn6PBnVax3xVkB5UrXZoS5AKIEmqzl23A4C8UQJBYrQUQAlLDOY/CVQfYxIIAFAcQ5cn9J59zpG1llc9ox57G0UQAiOiabXqvC6qQ5/prK+2tQLmY2brt1NaOa/HH9RZ7Zcz7zlesUcv6X2tNx3DlGbTAQCUtp+YDgBPaDQdAADyNXMu0NpVSxb83JlzgSbT/rk7DgDgXUfOjEiSPm/dUPBaa1ctUY+9TRvjx3kfg2/NnPfDxA+CakDL9JZemtfkj5QtTP22/duUyvSytgfl/J+5NJoOAKC0MQkUcGHLbpQUMZ0DAArBuUAAgFJx5MyI3tzf68haa1ct0f+0b3ZkLcBLNuuKTuuYhtVBAYRAWujWb1L2nKyL6vBVAXRRlfqFmoJeAElSJHf9DgDyQgmERtMBAKBQhZwLtLk+6mASAACezskiqC62VIf2FT5ZBJgW0bT2aFAX1aFunWTLNwTWQrd+k7JnZf3dZ+f/nNZKvbyAEiwAGk0HAFC6fnTv3j3TGWBI2LIrJF0Vk0AASlwkXKYbf9+d13Ovjd/Ws691OpwIAICnO7Rvg5o2rnFkre6eEe1ud6ZYAoppZsu3zbriqwvYwEItdOu3GR/rnN7SoEupzDiqZ/WWXjIdw2smJa1IJ+K3TAcBUHqYBAq2RlEAAfCByfS0BpL5TQMtr3pG1VXcXQYAKL7d7b3q7hlxZK2mjWv09qsxR9YCiuHxLd8ogBBU+Wz9JmWn547qpO8KoD16iQJodhExDQQgTz8xHQBGNZoOAABOSQxeV11saV7Pra9dqrEzUw4nAgDg6Wamd5yYCPr9O5Ym09M6csaZYglwWkTTatIl7dGgfiZ+9kKwTalMn6lWn6lWkypb0HPXakKf66yvzv+ZUple1xYNiDNbn6BRUpfhDABKEJNAAZXbCm6r6RwA4JT+PCeBJGlz/fz32wYAwGm723vznmh93OetG7RzkzNbzAFOWa4pHdRZXVSH9uscBRAC77RW6hdq0n69sOACaLOu6O865qsC6KIq9bK2UwA93dbc9TwAWBBKoOBqNB0AAJzUP5j/4cFWLR82AABm/Z99pzQ8etORtT6Jr1fN6kpH1gIKwZZvwKO+V7le0Xbt0JYFn/0jSa06r26d9NXfpdNaqZe1XcPifWueGk0HAFB6KIGCq9F0AABw2qmBVF7PK1+8iItlAACjJtPT2hg/7kgRVL54kXrsbby3wYiIprVHg7qoDnXrpOqU/406gF9MqUytWq/ntCuvaZeIpnVQZ/W+zruQzpyDqtUObVnwNFTANZoOAKD0UAIFEFvBAfCrQqaBNtdFHUwCAMDCzRRB18ZvF7zWTBFUXbXwO82BfLDlGzC7g6rVc9qlz1Sb1/OXa0p/1zHt0CWHk5m1Ry/pfa03HaMUsSUcgAWjBAqmRtMBAMANhZwLtIVzgQAAHjCZntavPzilqTt3C16rfPEi/aV9syJh7rCGe9jyDZjdgJapTk16X+vznnSp03X9Q92+Ov9nSmWqU5O69azpKKWs0XQAAKWFEiiYGk0HAAA3DF2eyPvu6bWrlnCRDADgCUOXJ7QxftyRImjtqiXqsbfxHgdHseUbMLfvVa4mbdErBZ5zs0eDOq1jvipWL6pSz2kX5/8UrtF0AAClhRIoYNgKDoDf9SfzvwixpZ4t4QAA3jBTBDlh7aolOrRvgyNrIdjWakIHdVbXdJAt34DHTKlMH+sFPaddOqX8dxmYOf9nv845mM68o3pWL2s75/84gy3hACwIJVDwNJoOAABuKuRcoPrahR/SCgCAW4YuT+jN/b2OrLW5LkoRhLw16ZJO65gG1O27c0kAJxzVs3pOu7RfLxS0jl/P/2nVer2llyiAnNVoOgCA0kEJFDyNpgMAgJtO9qfyfi7nAgEAvObImRHHiqCmjWu0r+V5R9aC/0U0rVad10V16DOdZcs3YBYz5/44UXD49fyfJm3RZ6o1HcWPGk0HAFA6fnTv3j3TGVAkuVHR/5/pHADgtm87dmjtqiV5Pffnv/lCQ5f988ELAOAPb78a0+/fsRxZ6839vTpyZsSRteA/dbquJl3y3SQC4KTvVa73tb6gbd8etkeDvtv+7aIq9aZe4vwfd/0/6UT8lukQALyPSaBgaTQdAACK4WT/lbyfu7mOc4EAAN7z6VdJdfc4U9x83rqB6Vf8QJMu6R/q1mkfbkUFOGVKZWrV+oLP/Znh1/N/TmulXtZ2CiD3NZoOAKA0UAIFS6PpAABQDKcG2BIOAOA/u9t7HSuCDu3boJrVXJwLuuWa0sc6p+91UJ/prK+2oQKcdlC1ek67HNvazK/n/3ysF7RDWzj/pzgaTQcAUBoogYKlwXQAACiGocsTmrpzN6/nrl21RNVV5Q4nAgDAGbvbezU8erPgdcoXL1KPvY0iKKA264qO6qSG1aG3NKhyTZuOBHjWaa3UWu3S+1rvWLGxWVd8ef7PHr2k/XrBdJQgaTAdAEBpoAQKiLBlN0qKmM4BAMVSyJZw9bVLHUwCAICzNsaPO1YEHWrdoEiYu7WDIKJp7dGgLqpD3TqpV5T/z0pAEAxomV7Rdu3QFl2TczeJteq8unXSV+Xr9yrXy9qubj1rOkrQRHLX+wDgiSiBgqPRdAAAKKb+wet5P3czW8IBADxsMj2tjfHjujZ+u+C11q5aoh57G0WQj63VhA7qrC6qQ/t1Tj/TlOlIgKd9r3Lt0Ut6Rds1oGWOrRvRtI7qpN7XecfW9IIBLdMv1MT5P+Y0mg4AwPsogYKj0XQAACimk/35nwu0uS7qYBIAAJw3mZ7Wrz84lff2pw9bu2qJPolbDqSClzTpkk7rmAbUrR265KupA8ANUyrTx3pBz2mX4xMtazWhv+uY7ybwDqpWr2g75/+Y1Wg6AADvowQKgLBlN4it4AAEzGR6uqCtcrYwDQQA8LihyxPaGD/uSBHUtHGNDu3b4EAqmLRcU2rVeX2vg/pMZ1Wn/CejgSA5qFo9p12unGezWVf0dx3z5fk/72u96SjIbgnXYDoEAG+jBAqGRtMBAMCEI2cu5f3czfVMAwEAvG/o8oR2t/c6slbTxjXauWmNI2uhuOp0XUd1UsPq0Ps6z9QPME9H9azWapfe13pXplk+1jnfnf9zUZWc/+M9jaYDAPC2n5gOgKJoNB0AAEzoT97I+7n1Mef2/wYAwE0n+6/ozf29+ry18EmemTWOnBkpeC24K6JpNemS9miQc36ABRrQMu3XC46e+fOwmfN//DaNd1or9ZZeYvs372mUtNdwBgAe9qN79+6ZzgAXhS07JmnQdA4AMOXSly1aXvVMXs/9+W++0NBl/2zbAADwt30tz2tfy/MFrzN15642xo/zHuhRazWhPRrUZl3x1XQBUAzfq1xv6iXXyh8p+3f0C530XTn7sV5wZbs8OKY2nYgnTYcA4E1sB+d/jaYDAIBJpwbyP3yVLXEAAKWkvfM7dfcUPsFTvniReuxtqlld6UAqOKVJl/QPdWtA3dqhSxRAwAJ8r3Lt0Ut6TrtcLYCadEkD6vZVATSlMjVpCwWQ9zWaDgDAuyiB/K/RdAAAMKl/MP8t4TbXrXQwCQAA7tvd3qtTA6mC1ylfvEiHWjcoEmbLH5OWa0of65y+10F9prO+OlgeKIYpleljvaBfqMn1M2wO6qw+01lXX6PYZs7/OSU+F5WARtMBAHgX28H5WNiyV0j6X9M5AMC0/+/MmypfvCiv5/77a10aG/fPnXwAAP+LhMvUY2/T2lVLCl5rePSmXtx11IFUWIjNuqIduqRXlP9EMxB0H+sFfaZa18+vWa4pfaGTvitpj+pZva/1nP9TWv4tnYhfNR0CgPcwCeRvDaYDAIAXJAbzP5B1c33UwSQAALhvMj2tjfHjujZ+u+C11q5aokP7NjiQCk8T0bRadV4X1aFunaQAAvJ0VM9qrXZpv15wvcCo03X9Q92+K4BatV5v6SUKoNLTYDoAAG+iBPK3RtMBAMALTvUXci6Qu9tGAADghsn0tH79wSlN3blb8FpNG9fok7jlQCrMpk7XdVBndU0H9b7O++osEaCYBrRMa7VLb+klXVO566/XqvM6rWO+Op9rSmV6Rdv1mWpNR0F+Gk0HAOBNbAfnY2HL5n9cAFB2W5wbf9+d9/PZEg4AUKpqVleqx96W97aoD3tzf6+OnBlxIBUimlaTLmmPBil9gAINaJn26wUNaFlRXi+iaR3UWd9N682c/8P0T2lLJ+I/Mp0BgPcwCeRTYctuNJ0BALxiMj1d0CHZbAkHAChVQ5cn9J59zpG1Pm/doPra4lxk9au1mtBBndVFdWi/zlEAAQW4qEq9ou16RduLVgCt1YT+rmO+K4CO6ln9Qk0UQD7A9UAAs6EE8q9G0wEAwEv6CzgXiC3hAACl7MiZEb25v9eRtf6nfbNqVlc6slaQNOmS/qFuDahbO3TJV9tHAcX2vcq1Ry/pF2oqWvkjZf8e/13HfHX+z5TKtEcv6S29ZDoKnNNoOgAA76EE8q8G0wEAwEtO9ec/CbR21RJVV7m/rzgAAG45cmZE3T2Fb+VWvniR/vK7zYqEuVv8aZZrSh/rnL7XQX2ms766cAyYMFP+PKdd6lZxb9L6WOf0mc76qsD9XuV6WduL/nsJ1zWYDgDAeyiBfChs2TFJ1aZzAICXjI1PaXj0Zt7PZ0s4AECp293eW9D2qDOWVz2jHnsbRdAcmnRJp3VMw+rQWxr01UVjwIQpleljvWCk/IloWv9Qt97SYFFf122ntVK/+P+z9/9BUad5vuj5TrsHqpoksaZhJ+dAoaMQG9DiSWIjjtSYiZ5zRwcK2NvbBVa16fZp6NtrqSXVuxFjCd7ZM7t9TSw74u4tLEXjREOfDpOqEmru3AALR+ec05LplP5xN3OBgYhF6ojimZyF7pI0aTud2+b+QSWFyI/M/P54nu/3+35FnDjTXeY3311C8vB8ns/ngRejYGenCW35al+QiGgJi0DmtFd0ACIiGV0eGs/4tRwJR0REZnDYd0PRoYikipJ8nG2tViGRORQjijbcXur6cSPzMbREtGh58acDVbq/vxszGEO36br4zqAKB9HA+3/Mba/oAEQkFxaBzOm7ogMQEcmII+GIiMjq5mNx1LR+ivuRx4qf5a0pQ3vzLhVSGVc9ptCLAYyiGydxm10/RCpYWfwRUaw4ihCuot9U39NRZKMOjUIKaqS774oOQERysSUSCdEZSEX26s7NAL4UnYOISFafdx9ERUl+Rq9979wwzveF1Q1EREQkwM7SAlzrfAOOnCzFz3q74wYuDym/b8goihGFF+PwYhyvIio6DpGp9KIcJ7FHWJdKHuLownXUYUrI+2tlDAV4HY3s/rGWV2LDrY9EhyAiObATyHz2ig5ARCSzQDjz8SwcCUdERGYxMjmLN9sHVXnWxbZ92Flq/nslVnb9sABEpJ5elKMCLTiC/cIKFRWYxS34TVcA6kIldsPLApD17BUdgIjkwSKQ+XxXdAAiIpkpOanMkXBERGQmgdAM3u64ocqzrnW+YcqfkXmI4yhCGEM3/Bgw3eYwkWjLiz/3Ie4zxItxfIZ+UxV3o8jGUezHSewRHYXE+K7oAEQkDxaBzGev6ABERDIbmZxVdA9CvWebimmIiIjEujw0AV/PHcXPceRk4WNfPfLs5jhp7sYMunAd99GFDtw01cYwkQxkKf4AQBeu4wKum+r+n+T4Nz84ycDC9ooOQETyYBHIROzVnS4AW0TnICKS3WAw81O8HAlHRERm4+u5A/815Xf6VJTk4xNfvQqJxFje9XMV/TiIcdGRiExHpuJPMaK4Bb/pvtd7UY7X0YhRmH9MJ61ry1f7hERELAKZzF7RAYiIjIAj4YiIiJ532HcDo3fnFD/H7SrEpfZ9KiTSD7t+iLQXRBHc8EpR/AEWv+9vwY8dmBUdRVVt2CP0XiWSzl7RAYhIDiwCmcte0QGIiIyAI+GIiIheVNP6qaKfj0nemjIcqi1TIZF22PVDpI8gilCHRtRJ1JnShtu4in5TjX97AAfc8OICKkVHIbnsFR2AiOTAIpC5/LeiAxARGQVHwhERET1vPhbHW6cGEV14qvhZF9v2wVNZpEIqdbHrh0gfy4s/QcjxWZCHOK6iHydxW3QUVV3FduyGV5oiG0mF+4REBACwJRIJ0RlIBfbqzr0A/rPoHERERrGztAB///PvZ/z6P/3RRxiZNNf4CCIiIgDwVBZh6IPvKX5OdOEpalo/Ff7zMg9xeDGOowix6EOksSCK0IEqaQo/SRWYxUcYMN1nQBv2sPuHNvKvY8OtvxIdgojEYieQeXxXdAAiIiNROhJO9jE3REREmQqEZvB2xw3Fz3HkZOFS2z7k2cXcTcGuHyL9yNj5k3QUIQThN9VnQBTZqEMjC0CUiu+KDkBE4rEIZB57RQcgIjIaJSPh6t3bVUxCREQkl8tDE7jQH1b8nIqSfHziq1ceKEW864dIXzIXf/IQRxeuowM3RUdRVRBF2IEW6f59k7T2ig5AROJxHJwJ2Ks7NwP4UnQOIiKj4Ug4IiKi9X3sq0e9e5vi5/ivTeCwT3l30VrcmIEX4yz6EOlE1rFvSRWYxUVcxw6Ya61+BlXoQJXoGGQ8r8SGWx+JDkFE4rATyBz2ig5ARGREI5OzGL07l/HrjzW51AtDREQkocO+G4p+ViZ5a8pUH6XKrh8i/cnc+ZPkxTg+Q7+pCkDJ8W8sAFGG9ooOQERisQhkDt8VHYCIyKguD2W+YdTg4Ug4IiIyt/lYHDWtnyK68FTxsy627cPO0gLFz+FdP0T6M0LxBwDO4CYu4DociIuOopoxFGA3vFL/eyfpfVd0ACISi0Ugc9grOgARkVENBr7I+LWOnCwWgoiIyPTULARd63wDW5yOtF9XjCjacJtdP0Q660U53PBKX/wpRhS34McRhERHUVUXKrEbXtxH+p+bRMvsFR2AiMRiEcjg7NWdWwFsEZ2DiMiopiNRRWNuvCqPtiEiIpLRyOQsTnQqv1zdkZOFj331yLNnp/Tn6zGFXgxgFN04idvs+iHSSS/KUYEWHMF+jEJ5B5+W6jGFW/CbbvybFw04iT2io5A5bPlq/5CILIpFIOPbKzoAEZHRKRkJV+/elvJGFhERkZFdHpqAr+eO4udUlOTjbGv1mv98edePHwOow5Ti9ySi1Cwv/hih++QMbsKPAVOOfxsEJw6QqvaKDkBE4rAIZHx7RQcgIjI6JSPhAKDBs02lJERERHLz9dyB/9qE4ud4a8rQ3rzruf+OXT9E4hit+JOHOK6in+PfiFK3V3QAIhLnm6IDkGJ7RQcgIjK66UgUg8EvUO/OrJhzrKkSl4eUb4gREREZwYnOYewsKUBFSb6i57Q378I/3r2P/33gY3gxbqqT/ERG0YtydKDKUEUHN2bwkcm6f6LIxhHsZ/cPaWmv6ABEJI4tkUiIzkAZ+mqe538RnYOIyAwO1ZbhYtu+jF//nQO/wHSEJ5aJiMga8uzZmOhrhiMnS9FzfrvwBC+1NiExmfloViJKTxTZuIBKXEAl5mGsscZtuI2TuC06hqrGUIDvo8FQhTgyrD+JDbfeEx2CiPTHcXDG9l3RAYiIzGJA4Ug4b22ZSkmIiIjkNx+Lo6b1U0QXnip6zrdyXsbj078A7Nz8JNJaFNk4gyrsQAs6UGWoAlAe4ujFgOkKQBz/RjrbKzoAEYnBIpCx7RUdgIjILOZjcUV3HByqLVcxDRERkfxGJmdxovOm4ufkOfPxyPdLFRIR0WqMXPwBgArM4hb8qMOU6CiqiSIbXjTgJPaIjkLW8l3RAYhIDBaBjG2v6ABERGYyqKAbqNiZC09lkYppiIiI5Hd5aAK+njuKn/Nt10582dqhQiIiSnoAB45iP17FEUMWfwDgKEIIwo9XYZ6xy2MowG54ef8PibBXdAAiEoNFIIOyV3e6AOSJzkFEZCYDgSlFY20OcSQcERFZkK/njqJu2qT8xjfxu9q3VEhEZG3J4s8OtMAPY3arJ8e/dUB5t6FMOP6NBMv76n5xIrIYFoGMyyU6ABGRGQ0EMh8z0eDZjjy78U5YEhERKVGPKfxhZzu+vPtfFD8rp80HW6kxN62JRAuiyPDFH4Dj34g0tld0ACLSH4tAxrVXdAAiIjM63xfO+LWOnCw0eLapF4aIiEhSxYiiDbcxhm74MYD9sf8PHO3/Fk8Wnih+9tPOPsDOU/JEqQqiCHVoRB0aDV38AQAvxvEZ+jn+jUg7e0UHICL9sQhkXHtFByAiMqORyVncjzzO+PXHmipVTENERCQXL8ZxFf0YRTdO4vbzG7WRGWS3Nil+j5dyXka0839W/Bwis+tF+VLxJwhj302Zhzi6cB0XcB0OxEXHUQ3Hv5GE9ooOQET6syUSCdEZKE1fze9UPmuBiIhWdazJhfePV2f8+u8c+AWmI+Y5vUhERNZWgVkcRQj1mEppc/Z3tW8hp82n+H1/c+0q8nzHFT+HyGx6UY4OVJmmsFCBWVzEdezArOgoqokiG99Hg+GLc2RafxIbbr0nOgQR6YedQMa0V3QAIiIzGwx8oej1xw641AlCREQkSB7i8GIct+BHEH4cxHjKp/NfGvoYv7l2VXGGP6ypw+9q31L8HCIziCIbZ1CFCrTgCPabpgCUHP9mpgJQEEXYgRYWgEhme0UHICJ9sQhkTHtFByAiMrPpSBTB8MOMX3+o1tiz2ImIyLrcmEEXruM+unBBwcn8PN9x/Do8ojhPTpsPtlL+XCXrShZ/dqDFVN0/Zh3/dgZVqEMj5pEtOgrRevaKDkBE+mIRyJhcogMQEZnd5aHxjF/ryMlCg4cXvxIRkTEUI4o23MYYunEV/TiIzH8GLre5/QeYj8wpfs7Tzj7Abo6Nb6JUPYADR7Efr+IIOlBlqqJCBWbxmYqfNTKIIht1aEQHqkRHIUqFS3QAItIX7wQyGHt152YAX4rOQURkdnn2bEz0NcORk5XR6weDX+Ct9kGVUxEREanHi3HUYQp1mNLsPWyl5fhdZx++lfOyoud8efe/wNHy36iUikheQRShF+Xww5wdcF6M4wxumqr7J4giHESDqQp1ZAmvxIZbH4kOQUT6YCeQ8ewVHYCIyArmY3EMBDLfFKt3b8MWJ08tExGRXCowiy5cx4Ovxr1pWQACgMTkOBKdP1X8nFdK/gRftnaokIhITkEUoQ6NqEOjaQtAZ3DTdOPf2rCH49/IqPaKDkBE+mERyHj2ig5ARGQVl4cmFL3eW1umUhIiIqLM5SGOowjhFvwIwo+DGNd1E/aloY/xqOei4ufkN76J39W+pUIiInn0ohwVaEEdGhFEkeg4mihGFLfgxxGEREdRzQM44IYXF1ApOgpRpvaKDkBE+vmm6ACUNpfoAEREVhEIzeB+5DGKnbkZvf5QbTl8PXdUTkVERJSa+q9Gvclw70Zuz1nMle5Avtut6Dm21r+E7e4IEpPi/zcRZSqKbFxAJfwox32Yu3O8HlPoMln3z1VsxxHsZ/cPGZ1LdAAi0g87gYxnj+gARERWcnko802mYmcuGjzbVUxDRES0vmJEcQY3MYZu+DEgRQEo6RXfO5i7e0/RM76V8zIen/4FYDf3xjmZ0wM40IY92IEWdKDK9AWgM7gJPwZMVQBqwx7e/0Nmwf1FIguxJRIJ0RkoRfbqzr0A/rPoHEREVrLF6cA/XPlhxq8fDH6Bt9oH1QtERES0Qh7iqP+q48eNGdFx1mUrLUe8sw8v57ys6Dm/Do9gc+t31QlFpLExFCx1/lhBMaL4CAPYgVnRUVQzhgK8jf0YRYHoKERq+tex4dZfiQ5BRNpjJ5CxuEQHICKymulIFIPBLzJ+fb17G7Y4zX3Kk4iIxHBjBl24jjF04wKuS18AAoDE5Dh+7/sLxc/5tmsnHjefUCERkXaCKEIdGrEbXssUgOoxhVvwm6oA1ItyvI5GFoDIjFyiAxCRPlgEMpa9ogMQEVnRYGBK0eu9tWUqJSEiIqsrRhRtuI0xdOMq+nEQ44YbtfRy4DM86rmo+Dmbm9/GE8/rKiQiUlcvylGBFtShEUEUiY6jG7ONf4siG0exn/f/kJntFR2AiPTBcXAGYq/uvAdgi+gcRERW9F+H3oYjJyuj196PPEb5gR6VExERkZV4MW6IcW/p+NL3S+S73Yqe8WThCbKa/xyImOffCxlTFNm4gEpcQKXlCgZmHf/2fTSY/t4msrzp2HDrVtEhiEh77AQyCHt151awAEREJMzlocwv1i525qLBs13FNEREZAUVmEUXruMBugwz7i0dr/jewdzde4qe8XLOy4j6/gNg50YtifEADhzFfryKI+hAleUKQGYc/9aFSuyGlwUgsoItX+03EpHJsQhkHC7RAYiIrOz8lbCi13MkHBERpaIYURxFCGPoRhB+Q457S1ksij/seAdPFp4oeswrJX+C+dbTKoUiSk0QRfCiATvQYpn7flYy4/g3LxpwEntERyHSk0t0ACLS3jdFB6CU7RUdgIjIyqYjUYzenUNFSX5Gr693b8MWpwPTkajKyYiIyAy8GEcdplAHZffQGU1ichy/9/0FcPpDRc/5w5o6LIRu4aWhj1VKRrS6XpSjA1WW7hIx4/i3IIpwEA2W6+QiwuJ+498IzkBEGmMnkHG4RAcgIrK6830hRa9nNxARES23ctyb1QpASS8HPsOjnouKn5PT5oOt1JodGaStKLJxBlUoxhEcwX5LF4DMOP7tDKpQh0YWgMiqXKIDEJH2bIlEQnQGSoG9upN/UUREguXZszHR1wxHTlZGr48uPMW/qFW+yUVERMZVjCjqMYWjCOFVsDt0uS99v0S+263oGfOROdhb/gyI8d8tKfcADnSgyrLj3lY6g5s4AmWHomTyAA58Hw0YRYHoKERCxYZbbaIzEJG22AlkAPbqTpfoDEREBMzH4hgIZH5K25GThUPsBiIisiQvxtGLAYyiGx24yQLQKl7xvYP5yJyiZ+Q58/HI90uVEpFVXcV21KHR0vf9LFeMKG7Bb6oC0FVsx254WQAiAvcdiayARSBj2Cs6ABERLTrfF1b0+kO13EggIrIKN2Y47i0dsShyT/0Qv114ougx33btxOPmEyqFIquIIhu9KEcFWnAQDQiiSHQkKZht/FsU2TiK/bz/h+h5e0UHICJtfVN0AEqJS3QAIiJaNDI5i9G7c6goyc/o9W5XIXaWFmBk0hy/SBMR0fOKEYUX4/BinN0+GUhMjiPR+VOgzafoOZub38az8DASodsqJSOzegAHLqASfpSzKLCC2ca/jaEAb2M/u3+IXuQSHYCItMVOIGNwiQ5ARERfO9+n7JfhY00udYIQEZEU8hCHF+O4in6MohsncZsFIAVeGvoYc/2fKH5O3PdzwMluDlpdEEXwogE70IILqGQBaBkzjn/rQiXHvxGtzSU6ABFpy5ZIJERnoA3Yqzv5l0REJJE8ezYm+prhyMnK6PXRhacoa+rBfCyucjIiItJTPaZQhynUYwoO8DNdbdHu/4hXSv5E0TO+vPtf4Gj5b1RKRGbQi3J0oAr34RAdRUr1mEIXrpvmMy2KbBzBfgxiu+goRFKLDbfaRGcgIu2wE0hy9urOvaIzEBHR8+ZjcQwEMr/XwZGThUO1ZSomIiIivRQjijO4iTF0w48BHMS4aTZLZeNo/T/hdwrvB3ql5E/wZWuHSonIqB7AgTOoQjGO4Aj2swC0ijzE0YXr8GPANJ9pQRRhB1pYACJKAfcficyNRSD5uUQHICKiF53vCyt6/bGmSnWCEBGR5vIQx1GEcAt+jKIbRxDiuDc9xKLIam1S/Jj8xjfxxPO6CoHIaIIowlHsxw60oANVHPm2hgrM4jP04yDGRUdRzRlUoQ6N/DsnSp1LdAAi0g6LQPJziQ5AREQvGpmcRTD8MOPXFztz0eDhqUQiIpnVYwq9GMB9dKEDN7EDs6IjWU5ichy/Pae8k+cb7T/j/UAW0otyuOFFHRrhR7noOFLzYhyfod80n28P4IAbXnSgSnQUIqNxiQ5ARNr5pugAtCGX6ABERLS6y0PjcLsKM379sSaXorFyRESkvgrM4ihCvOdHItl9/x6/Kd2JP6ypy/gZL+e8jC99/4H3A5nYAzhwAZXwo5zdHynIQxxncNNU3T+9KMdJ7OHfP1FmXKIDEJF2bIlEQnQGWoe9upN/QUREEvuvQ2/DkZOV8eu/c+AXmI5wpBARkUjFiMKLcXgxzjFvsrI78GXn3yC/ZKuix/zm2lXk+Y6rk8lgbKXlgKsKib5u0VFUFUQRulDJe1/SUIFZXMR103T/RJGNk9jDri8ihWLDrTbRGYhIGxwHJzFeykZEJL/LQ8pOT7a37FIpCRERpSMPcXgxvnTPz0ncZgFIZrEo/rDjHfx24Ymix/xhTR1+V/uWSqGMw1Zajk2dH8FmzxUdRRVRZKMX5ahAC+rQyAJQGsw2/m0MBdgNLwtARCrgPiSRebEIJDeX6ABERLS+81fCil7f4NmOPDtHVhAR6aUeU+jCddxHFy6Y6CS8FSQmx5Ho/Kni59ha/3KxK8YikgUg5Bi/APQADhzFfuxAC45gP+7DITqSYeQhji5cxwVcN82oyzOowm54+XVApB6X6ABEpA3eCSQ3l+gAZreztAD17m2iY1CG5mNxnO8Li44hnS1OB7y1ZaJjGMr9SBSXhyYyeu10JIrB4BcZf5Y4crJwqLaMX8tp4uc3Acq+d8laKjC7NO7NLJufIthKywH785uticlxIKZfB9VLQx9jrvRfIr/xzYyf8a2clzHX9iFeaf2urtlFMEsB6Cq24wIqEUSR6Cia02KN80f4Lfb1/d9RGHuo6nNFmW86gs/sLtjgQLvoMBrhGocEcYkOQETaYBFIbltFBzC7kclZHKotw9FGl+golKGRu3MIhGZEx5DKdCSKQPghzh6vRkVJvug40nvv3LDiX7D8QxOKflk/1lTJIlCaRiZncazJBW8NC55WNxD4AvMxburTi4oRRT2mcBQhjnlbg62yCrA7YCspA3IdQMlid4yttFyzokHi7sTqhZe748Djr//7ROzx4n+X/M//OANEFtd8r3S24UvXv8IrJX+ScY78kq34TetpU98PZPPsx6b2nxm2ABRFNi6gEn6UW6rTQ+01zu8WniCr/UdImKEAZHfgke+X+LZrJw6JzqIDrnFIgK2iAxCRNmyJREJ0BlqDvbqTfzk6OVRbhrOtexRd7k5i3I88RvmBHtExpHW2tZpFzjVEF56ipvVTjEyqMwZo/Eozip2Zb7J8/9RVDASmVMliJZfa97EQZHFvd9zgSVlakof4UuGHY96WsTtgq6xaLPZUVsHmLAKchaJTKZIY/V+RKK/Epm8om3C+0NGOl4Y+VimVPGy1jdjUdvaF/z7R8wGe9XwgIFHqgihCL8otf8eLGmucX4dHsLn9B6boeHvieR3fbP8ZXsp5WXQU3XCNQyLEhlttojMQkfpYBJKUvbrTBSAkOoeV7CwtwLXON1gIMiBfzx34eu6IjiEtFjlfNHp3Dm+1D2I6ot4vxMeaXHj/eHXGrw+GH6Km9VPV8lhJe/MutDfvEh2DBBm9O4fXWnpFxyDB6jGFgxhHHVhMBwA4ixaLPpW7YHNVGb7go6XfLjzBS61Ni2PtTGJT87uwNb+76j+TtQgURTYGsR0dqLJU189GlKxxHvVcRG7Pi4VAw7E78GVLm6IRkEbFNQ4JUhkbbg2LDkFE6mIRSFL26s4fAmB7g87y7Nm41vkGR2gZTHThKV5r7lV1Q99sWOT82ujdOdS0fqr6aIU8ezYefnZY0TP+9EcfqdaZZDWHastwsW2f6BgkyHcO/II/AyzIjRl4MY56TPGeHyyOcLO59wGe/YsdP5SWxOj/Cvz+fwNCtxf/c/gOEIsaqzhkd2BT+88Wvw7WIFsR6AEc6EAVBrEd88gWHUdK6a5x4gu/xR+0/3dIfPW1bGS20nL8pu1D5JdsFR1FGK5xSIDm2HDrL0SHICJ18U4geW0VHcCK5mNx1LR+irOt1RwvZCCOnCy0t+zCYd8N0VGkNTI5i5rWT3GpbZ+li5zRhac43HFDk9na87E4/NcmFH12HGty8es4Q8lRGSwEWdOxAy6c6BwWHYN0UIwojiKEekzxnh98VfipfQM29352+yhkq/g/LP4frsWui+dm4UQeIhH56k6if5yRskBkq6zCprafGebrIDnuLYgi0VGkl84aZy4YxCu+d5Awwfi3eNOP8a3jbbDuby6LuMYhAbaKDkBE6mMnkKTs1Z2/ArBHdA4r4z0TxlP77l8jEJoRHUNqVu52U/sOoNXsLC3A3//8+4qewdN+yrAjyJp4P5y5FSOKekzBi3He8wMs3u9T27hY/GHHj3jJAlHoNhKRh0BkRt8ODLsDm1reha2xOaU/LrIT6AEcuIBK+FHOrp8MbLTG+e25DmT3/XsdE2nE7sAj3y/xbddO0UmkwDUOCXAzNty6V3QIIlIXO4Hk5RIdwOoO+24gEJrhZqKBnD1ezZnJG0h2u1mxEHTYd0PzUWsjk7MIhh/C7cr8FK63tox3XCnAjiBrKnbmosGzHQMB3gdjFnmIox5TqPvq/9FXXT9NzbDVvCE6Ci3nLITNWQi4dq3ePZQsDt0dV71zyFbbiE3N70rf/XMV29GLcgxiu+gohrbWGmc+MofcUz9EtkSdaZl64nkd32z/Gb6d87LoKNLgGocEcIkOQETqYxFIQvbqzs0A8kTnIG4mGk1FST6ONblwvi8sOorUrFgI8vXc0e0Xp8tD44qKQO8cqMT5vrAmI+usgp/d1lTv2cYNEhNIFn4OwvibmWqxefYvFn9cmV0OT4KsURxK3J34qiA08XVhKM3RXUYo/jyAA/6vRr7dh0N0HNNYucYxzfg3uwNftrQhv/FN0UmkxDUO6SzPXt25OTbc+kh0ECJSD8fBSche3bkXwH8WnYO+5qkswie+ejhyskRHoQ1EF56irKmHG+gp2OJ04POeg6b/ug6GH6Km9VNd33P8SjOKnbkZv/7tjhtLv+RT5o41ufD+8WrRMUgn/Pw3rgrMLt3z4wD//pKMsNFPKok8ROLuODA5jkT4zovj5JxFi51gnn2wefYDOZmvMbQeBxdEEbpQya4fjf2sNh8/wBheGvpYdBTFbKXl+E3bh8gv2So6irS4xiEB/nVsuPVXokMQkXrYCSSnvaID0PMCoZmlzgmzb5gbnSMnC6dadvHyzBRMR6Km/7qOLjzFm+2Dur/v5aFxtDdnfmK7vbmKRSAVnO8LY2dpAe93swhHThYaPNv4vWMQFZiFF+OoxxRehcFPsKuMxR8LSnYNufc9P1LOIKLIhh/luIBKdv3o4Axu4v8yFBIdQxXxph/jW8fbYI3ZBJnjGocE2AvgV4IzEJGKNokOQKvaKjoAvWhkchY1rZ8iuvBUdBTawNFGF3aWFoiOYQgjk7NCiiR6ebN9UMiJOaUjCYuduThUy8KFGg77bmAw+IXoGKSTQ7XloiPQOooRxVGEcAt+BOHHEYRYAFrGVlmFTZ0fYVPbWRaAyBCCKMJR7MerOIKT2MMCkMaKEcWtrz47Dc/uwKPOv8G3jreJTmIYXOOQzraKDkBE6mIRSE5bRQeg1bEQZBxnOQIqZYHQDN7uuCE6huou9IcRCM0Iee/5WBz+a8pO6vEXPfUc9t3A6N050TFIB25XIbY4uQkpkzzE4cU4bsGPUXSjAzexA7OiY8nFWYRNvkvY9EEv7/0h6UWRjS5UogItqEMj/OB6RQ/Jz1EzfH4+8byOf+77HN927RQdxVC4xiGdbRUdgIjUxSKQnPaIDkBrYyHIGNyuQnZSpOHy0ITiooVM7kce43T3HaEZfArf3+0qhKeySKU01jYfi+Ot9kF+bluEl5/9wiULP70YwH104QKum2LjUgubmt/FN3quwubeJzoK0brY9SNGHuLownVcwHXj35lmd+DL1g7YT3+Il3JeFp3GkLjGIR1xX5LIZFgEkoy9unOr6Ay0sWQhiOR2tnUP8uzZomMYhpm6Jd47Nyz84tTpSBTB8ENFzzjW5FInDGE6EjX16EP6GrvoxKnHFLpwfanwU4cp0ZGkZSstx6buq7A1vwvk5IqOQ7Qqdv2IVYFZfIZ+HMS46CiK2UrL8WXn3yC/8U3RUQyNaxzSE/cnicyFRSD5uEQHoNSMTM6acoSWmThysriJniYzdEsEww8xEJBj41Hp3UD17m0c+6CiQGgGvh6xHWKkvWJnLu+F01Gy8PMAXfBjwBSblVrb1PwuNv18ELYSnugmOV3Fdnb9CHYUIQRNMv4t3vRjbPr5IPJLtoqOYnhc45DOtooOQETqYRFIPi7RASh1l4cm8N65YdExaB3tzbu4iZ6G6UgUh33GLm7KlH8gMIX7kceKntHewvsh1OTruaO4Q4vkxwMA2qrALM7gJsbQvVT4MfyYIj04i77u/iGSzAM4cAZVqEALDqKBXT+C5CGOXgygAzdFR1HOWYRHnX+Dbx1vE53EVLjGIR3tFR2AiNTDIpB8XKIDUHrO94VNdZeKGV1q55z9dAwEpjAY/EJ0jIxc6A9jOhIVHeM5vp7bil7vrSnjWEOVHfbdMHzHG62vwbNddATTKUZ0qfAThB9HEMKrkOvzVma22sbFu3/Y/UOSuYrt8KIBO9CCDlSx60cgN2ZwC35TjNJ84nkdT3v+Ft927RQdxXS4xiEdbRUdgIjUwyKQfDaLDkDpO9E5bJq7VMzI7SrkYjlNRtwkjy48xelu+UZ9DQS+UPzvkif+1DUdieJ0t7LiHMnNkZOFQ7w8WbFiRHEUIdyCH6PoZuEnQ5vaf4ZNbWd59w9J4wEcaMOepa6fQXCdLFobbuMq+o3/GWt3YL79HOynP8TLOS+LTmNKXOOQjraKDkBE6mERSD57RAeg9M3H4qa4S8XM3j9eLTqCoczH4lKNVUvFh1dCmI/JN45oPhbHh1dCip7xzoFKdgOp7HxfmMV7k6tn8T8jKws/HbhpijsphLA7Fse/1bwhOgnREj/KsQMtuIBKdv1IIA9xXEU/TsL4h1NspeWIdf8d/rCmTnQU0+Mah3TC/UkiE2ERSCL26s6tojNQ5sxwl4qZFTtz0d7Mu1XSMRCYMszdKdGFpzjfFxYdY03+IWUjIx05WewG0sAJ3ulmavXubbwTLkV5iMOLcVxFPws/KrGVluMbfQGOfyPpsPAjj3pMYQzdcGNGdBTFHjefwKafDyLPmS86iiVwjUN64T4lkXmwCCSXraIDkDJGvkvFCt45UMnFcpqMUtgcCExJ2QWUNB2JKr477FAtL2hWWyA0wzvdTK7es010BGklCz+9GMB9dOECrptiI1IGttpGbOr8iOPfiGhNZ3ATfgzAAXnXrylxFiHa/R+xuflt0Uksh2sc0slW0QGISB0sAsllr+gApJwR71KxCkdOFt5v5Vi4dKhRvNCDT8K7gFZS2qlU7Mzl/G8NGOFrhzJ3rKlSdASprFb4McMF5DKx1Tby/h8iWlMFZnELfhyBslHBMvhd7VuI9/wtXin5E9FRLIlrHNLJXtEBiEgdLALJZavoAKTcfCzOC8clVu/eBk9lkegYhnKic1jqwmYw/BDTEfkv0R2ZnFU8Xq+9uUqlNJRklEInZabYmYudpQWiYwhXjyl04TrG0M3Cj4ZsTS2LBSAiolV4MY7P0G/8cZt2B770/RI5bT58K+dl0Wksi2sc0slW0QGISB0sAsllq+gApI7zfWHcjzwWHYPWcPY4u4HSMR+L4/LQuOgYa5I520rsBpKTzPdJkXJW/Z5JFn4eoAt+DOAgxo0/dkhim9p/hk3H/3vRMYhIQnmIowvXcQHXDf85bKuswj/3fY58t1t0FIJ11zikq62iAxCROlgEkotLdABSj6+H3UCyqijJx7Eml+gYhnL+Slh0hFVFF55iIGCce7gGAlOKC8S8G0h9I5OzGL07JzoGacRK3zMs/Iixqf1nsNW8IToGEUkoOf7tIIxzaGktX7Z2YNMHvXiJ3T/SsNIah4RxiQ5AROpgEUgS9urOzQDyROcg9VwemmA3kMROtVQhz54tOoZhyDoyazg0g/mYsTY4lRaI3a5CjjTUgJE6yig9jpwsNHi2i46hGRZ+xGIBiIjWchQhBOHHq5B/bPF6bKXl+LL7PyG/8U3RUWgFs69xSAp5X+1XEpHBsQgkD5foAKQ+dgPJy5GThbOtHAuXjkEJO24GA8a71+Ly0ITiO5ZONe9SKQ0lXR6Sr8hJ6vGabFwKCz9ysNU2sgBERC/IQxxX0Y8O3BQdRbF404+x6eeDyC/ZKjoKrcFsaxySkkt0ACJSjkUgeWwVHYDUp8ZmL2nHW1PGjoo0DASmpPt6NtIouOU+vBJS9Hp2A6lvPhbnSDgTq3dvM3z3ZwVmcQY3WfiRhK22EZvazoqOQUSScWMGY+iGGzOioyjjLMKjzr/Bt463iU5CGzDDGoekt1V0ACJSjkUgeWwVHYC0MWDATgUrYUdFemT6er4feWy4UXBJ5/vC7AaSkExf36Q+I16enCz8jKEbQfhxBCEWfiRgq6xiAYiIXnAGN3EV/Yb/nH7ieR1Pe/4W33btFB2FUmTENQ4ZylbRAYhIORaB5OESHYC0IeMILfqa21XIRXMaZPp6DoSNe8JyPhZXfAeN21WInaUFKiUiAOwEMjmjXJ68WuHH6PdJmImttBybfJdExyAiiRQjiltffV4bmt2B+fZzsJ/+EC/nvCw6DaXBKGscMiyX6ABEpByLQPLYLDoAaYMny+V3tnUPW+hTNBySp/Ay/Y/G3hQ9fyWs+BnHmlyKn0FfG5mcFR2BNFRRko8tTofoGKti4ccg7A5sOn0JyMkVnYSIJOHFOG7Bjx0w9hrCVlmFWPff4Q9r6kRHoQzIvMYhU9gsOgARKccikDz2iA5A2gmGH4qOQOtw5GThVAtHa6ViPhaX5l6ggMG/r6YjUfivTSh6hremjL/wqWg6wk13szt2wCU6wpJ6TKEL1/EAXSz8GMQm3yXAWSg6BhFJIA9x9GIAF3Dd8OPfHjefwKYPepHnzBcdhRSQaY1DpsP9SiIT+KboAATYqzs3i85A2hoOzcDt4qaBzI42unD+SpibwCkYmZzl17NKfN134K1RNo6wvWUXDvtuqJSIyNzq3dtxonNY3PtjCnWYQj2mDL9paDWbmt+FzcUDI6IkwndW/weh21//339cBDiLXvgj/HsjtVVgFh9hwPCFe1tpOX7T9iHyS7aKjkIqEL3GIXOzV3dujg23PhKdg4gyxyKQHFyiA5C27rOwYAiX2vehpvVT0THIQqYjUQTDDxUV1bw1ZfB132EBUyVK/z5IbsXOXDR4tus6qpWFH+OzVVbB1vyu6BjmFXmIRGQGuDsOPI4uFXwSyws8arA7YCstX/z/S8qAXAdQUr7433HEH6WoDbdxEip/bQoQb/ox0PIT5PPuH9MQscYhS3EB+JXgDESkAItActgqOgBpazryWHQESoHbVciFcwqmI1G4IX6TPCDR/URKnO65g6EPvqfoGewGIkpdvWeb5p/zLPyYiN2xOAaO1LHweLG4MzmORPgOEpPjQEynQwyx6FJhKRG4/vw/+6pAZHPtAv64CDZXFUf/0XOS49/cMPj60+7AI98v8W3XTtFJSAN6rHHIsraKDkBEyrAIJIetogMQ0aL3j1djODSD+Rg37dYy/Y/sOFFTIDTDbiCJsAvI/Lw1ZTjROaz65zwLP+a0qf1n7BJRKHF3AghcRyJ4Y7HoI6OvCkTPdR/ZHbBVVuHpT/4HvFTAu1KsLHmHm9E/2594Xsc323+Gb7P7x7S0WuMQgfuWRIa3SXQAAsAPU9PjIsw4ip25ONbkEh2DLOZ8X1jxM9pbeOcBUaoaPNsUPyMPcXgxjl4MYB7/E/wYwEGMG36TkL5m8+yHzb1PdAxjijxEoucD/P5ANZ611OFZzwfyFoDWEosiEbiOP/i3f4bfLTwRnYYEyEMcZ3ATfgwY/rN9DAWwn/4QL7EAZHpqrHGIVrFVdAAiUoZFIDlsFR2AtDUyOSs6AqXhnQOV2OJ0iI5BFjIQmMJ9hWMjvTVl/LpVaGdpgegIpJNjTZUZvW554ec+unAB11EHjl0xJbtjsQuI0pII38GzU2/j9wc8eNbzARAx+OgsAMGYA+d9ftExSGcVmMVn6McRhERHUewMqnDQeUR0DNJJpmscog1sFR2AiJRhEUgOLtEBiOhrjpwsvN9aLToGWYyvR/klw+wGUoZFNOuoKMlP+e+7GFEcRYiFH4vhGLj0JMJ38Ozdg3jW+v0X79sxoAdwoA17UIEW1KER/y7wW1zoD4uORTo5ihA+Qz92wNgH+cZQADe86EAVD7pYSDprHKI0uEQHICJlWASSQ57oAET0vHr3Nngqi0THIAu5PDTBbiDBKkp454OVeGvL1vxnycLPLfgxim504CYLPxZiq6ziGLhURR7i2am3F4s/IeWHGUR6AAe6UAk3vNiBFlxAJe7j65+pp7vvYPTunMCEpLU8xNGLAXTgpuHHv3WhEq+jEaNYLP5wjWMt661xiDLEfUsig2MRSDB7dadLdAYiWt2lNm4Akb7YDSRWNQu/lnKotvy5/1yBWbTh9nOFH6OfAqfMbGrjGLhUJPp78PuWOkN3/kSRjV6Uw4sG7EALTmLP0qb5SvOxOA533NA5IenFjRmModvwBf8oslGHRpzEHswje+m/5xrHWlaucYjUwP1LImNjEUi8zaIDENHqip25aG/mhjrp5/LQBKILTxU9g91AmXO7CkVHIB0VO3PxbyvtOIObGEM3gvDjJG6z8GNxtqYWwMnPgnUtPMazjhN41vlTIBYVnSYjV7EdR7Efr+IIjmA/BrE9pdeNTM7ivXPDGqcjvbXhNq6i3/DdP1exHTvQgiBeLPhwjWMtxc5cTrUgLWwWHYCIMscikHgu0QGIaG3vHKhEnj174z9IpJIPryi/gJjdQOnjL8rW9GFtHo4ghFdhzI1sUpndgU0t74pOIbeFx4uj34b6RSdJWxBFOIr9KMYRHEQD/MjspPz5vjCC4YeKssz8/x4rPvRByhUjiltfHQAwsiiycRT7cRANz3X/JHGNY02HOBKO1OcSHYCIMscikHibRQcgorU5crJwtrVadAyykPN9YXYDCbCTs/ItyebZD9j5vUKLNjU1Azm5omPIK1kAmhwXnSRlYyhAG/agAi2oQyP8KF91kzxdb7YPKvpZXfS/y8X/9X/8Fd47N6z4PkDKjBfjuAW/4bs/gyjCbnjXLWpyjWNNDZ7tPMxIatssOgARZY5FIPFcogMQ0fq8NWU8QUe6mY/F2Q0kAL/HLSond7EQRGR3wHagRXQKqT1rP2yIAtADONCFSlSgBbvhxQVU4j7ULfbOx+I47FN2P9D/6/+2F5eHJlB+oAdvd9xgMUgneYijFwO4gOuGH//Whj2oQ+OGX99c41iTIycLDZ5tomOQubhEByCizLEIJN5m0QGIaGNnj7MbiPTDbiD98cJk67LVviE6AkmAXUDrS/R8gERI3pFZycKPG17sQAtOYo/qhZ+VBgJTuNAfzvj1jpwsfOKrB4ClYlDtu3+teNQcrc2NGdyCH3WYEh1FkTEUwP1VgTMVXONY16HazMZeEq1hs+gARJQ5FoHEc4kOQEQbqyjJ51xl0g27gfS1s7QAjpws0TFIEJtrF+DkBpmlsQtoXYm7E3jW84HoGC+IIhu9KIcXDUuFn1EU6JrhdPcdRR08blchjjW5lv5zIDSDmtZPWQzSQBtu4yr6DX8HXBcqsRvelL/WucaxNrerkIfCSE0u0QGIKHMsAomXJzoAEaXmbOsezlUm3bAbSD8eV6HoCCQYR8JZm622kV1A60ic+6noCEuWF35exREcwX4MYruwPPOxON46NajoGadaql74Wc1ikHqKEcUt+HES8naypeIBHKhDI05iT1qv4xqH6jkSjtTD/UsiA2MRSCB7dadLdAYiSp0jJwun2FlBOmE3kH44K582NTWLjkAC8e9/bYm7E1KMgbuK7TiK/VIUflYamZyFr+dOxq935GThUvu+Vf9ZshjEO4MyU48p3IIfOzArOooivSjHbngRRPrrFa5x6FhTamMDiVLBfUwi42IRSKzNogMQUXqONrqws1TfUSNkXf6hCcXPYDfQxjgrn+AshK2Uc/OtyObZDzh5Un4tib4eYe+dLPwU4wgOogF+yPs96uu5g9G7cxm/fuVYuJWSdwa9d25YcZewFeQhji5chx8DcCAuOk7GosiGFw04gv2YR2bTCLjGoWJnLn9/JTVtFh2AiDLDIpBYW0UHIKL0nT1eLToCWcR0JAr/NeWFIHYDrY2z8inJxm4QS7LVviE6gtT07gJarfCT6ea33t5qH1RUoFltLNxK5/vCKGvqwYX+cMbvY3YVmMUt+HEQ46KjKHIV27EDLYq63rjGoaT1isxEadoqOgARZYZFILG2ig5AROlzuwrR4JFnDAmZm6878xEzSewGWhtn5VMS7wWyIGcRbO7Vx3ARgMhDIDKj+duMoQBt2GPIws9y05EoTndnXjRbbyzccvOxOE50DuM7B37B+4JWaMNtBOHHq4iKjpKxKLLRhj04iAbF3wdc41ASf3clFW0VHYCIMsMikFibRQcgosy8f7waeXbjbVCQ8ajVDfR+KzvYVsNZ+bQkJxe22kbRKUhHLPytL6FhAShZ+KlAC3bDiwuoNGThZ6XzfWEMBr/I+PUbjYVbbjoSRU3rp/j+qauWvy+oGFFcRT9OQvz9VUoEUbT0/aAGrnEoyZGThUO1ZaJjkDlsFh2AiDLDIpBYLtEBiCgzxc5cttWTbtToBqp3b+NmwCo4K5+Ws3nYFWIlmzgCUFerFX7uw3xdqod9NzQfC7fcQGAKr7X0WnZEnBfjuAU/3NC+a01LbdiDOjSq+j3BNQ4tV89uIFKHS3QAIsoMi0BERBlqb97FEVukC7W6gU41826g5Tgrn1ayufcBdn6uW4GttBxwclSS1qxS+FluPhbHYd+NjF+f6li4le95onMYte/+NUbvzmX83kaShzh6MYALuA4H4qLjZGwMBXCr2P2TxDUOrVTv3sZJFkREFsYikFh7RAcgImXS/SWdKFNqdAO5XYXsBlqGs/JpNRwJZw28C0g7Viz8rDQQmFJ0eCOdsXDLBUIzeK2lF74e5WsGmbkxg1vwow5ToqMocgZV2A0vRlGg+rO5xqHVcCQcqYD7mEQGxSIQEZEC3FQnvbAbSH383qXV2GrfEB2B9MD7gDZkc6b+GcnCz4tOdA4ruqsn3bFwy/l67uBPf/SRKe8KasNtXEU/XkVUdJSMPYADdWhEB6o0ew+ucWg1h2rLRUcgIiJBWAQSxF7duVV0BiJSx6U2niYmfbAbSF2clU+rsZWULY4KI/NyFsFWwtPQG3IWrjsekYWf9c3H4jjcoe9YuOVGJmfxWkuvKgdIZFCMKG7Bj5O4LTqKIl2oxG54EYS2axCucWg1FSX52FmqfucZWQv3M4mMiUUgcbaKDkBE6ih25qKd3RWkA7W6gc4er1YhjbFxVj6th91A5mar1O70vdnYVnRMsfCTnkBoBhf6wxm/PtOxcEnJ+4ne7riB6MLTjJ8jmhfjuAU/dmBWdJSMRZENLxpwEnswD23vZeEah9bDkXCkgq2iAxBR+lgEIiJSwTsHKjMe2UGUDjW6gSpK8i3/CyBn5dN6eC+QudkqeXAjVbbKXSz8KHSicxijd+cyfr2SsXBJl4cmUNP6qaIcIuQhjl4M4AKuw4G46DgZu4rt2IEWDGK7Lu/HNQ6thyPhiIisiUUgcfaKDkBE6nHkZKG9hZtKpD21uoHam619Ep4j8WhdObkvdECQedhc1v78S4et5g28bm9h4UchkWPhkkYmZw1VCHJjBmPoRh2mREfJWLL75yAaNO/+WY5rHFqPIycLDR59CpJkWntFByCi9LEIRESkEm9NGX/pIl2o0Q1U7My1dDcQZ+XTRjgSzqScRYt33VDKlIwjo0Ujk7Pw9WT+s9vtKlTlZ/Z8LI6BgPxFlTO4iavoN3T3TxBF2A2vbt0/y3GNQxvxWvh3ACIiq2IRSJytogMQkfp41wrpQc1uoDy7fidTZeGpLOKsfNqQzb0PsLPzwWxspRyDk653DlRa8meF2nw9dxR14Zxt3WP6v4cKzOIW/DiCkOgoGYsiG23Ygzo0Cume4xqHUlHv3mb6zxPS1FbRAYgofSwCibNVdAAiUl9FST5PzJIu1OoGsuLXK2flU6o4Es58bCU8/ZwuR06WJX9WaEGGsXCyOooQPkM/dmBWdJSMjaFg6d4sUbjGoVQ1eLaJjkDGtVV0ACJKH4tAREQqO9Vize4K0pda3UBWPOHNMSmUKltTs+gIpLZK3geUifbmXdhZWiA6huGNTM7ivXPDGb++3r3NdHd55CGOq+hHB24aevzbGVRhN7zC787iGodSdaxJXLGSiIj0xyKQOC7RAYhIG46cLJxq2SU6BlnAic5hRBeeKnqGFU94u3lKllJkKylbvEOGTIPj4DJ3qW2f5Q4NaOF8XxjB8MOMX3+p3Tx/D/WYwhi64caM6CgZG0MB3PCiA3IUmLnGoVRVlORji5NjbykjLtEBiCh9LAKJkyc6ABFp52ijiydmSXPzsTg+vKJ8bv47Byot80ughydkKU2bDrAbyDTsDiAnV3QKw6ooycfZVt59qIbDvhsZH+Jw5GQZ/u8hD3GcwU34MWCK7p9RyLHm5xqH0nXsgEt0BDIm7mcSGRCLQEREGjl73Ni/oJMxnO8Lq9IN1G6R7jXOP6d02dy8F8gs2AWknLemzNT30uhlOhLF6e7bGb/eW1Nm2A3/CsziFvw4AuWHWER5AAfq0ChN908S1ziUrnq3ucZLEhHR2lgEEsBe3blXdAYi0p7bVYhDtbyAmrSlVjeQt6bMEt1AHpcxN81IIGchbB4WgkzBbv7POD2wEKQOxWPhDDierw23EYQfryIqOkrGulCJ3fAiCPnWE1zjULqKnbmmu2eM9GGv7nSJzkBE6WERiIhIQ2db9xjuF3QyHjW6gQCYflMvz56NipJ80THIgGwec39vWIWthAcz1MJCkDqUjIUrduYa5g7KYkRxC36cRObdT6Ilu39OYg/mId/anmscylQ9O8goM5tFByCi9LAIRESkIUdOFo41uUTHIJNTqxvI7So07HiZVFRL+L/Nf21CdARKga3mDXaREK3grSnDx756HnZRQOlYOCPcQXkUIdyCHzswKzpKxq5iu7TdP0lc41CmvDVl/BwnIrIAFoHE2Cs6ABHpp715lyXGbJFYanUDnWo2xqniTHgqC0VHeMGJzmH818i86BiUAo6EM4FKue7vMIN69zZ83n1Q+kKEzNQYCyejPMTRiwF04CYciIuOk5EosuFFAw6iQcrun+VkXePcjzwWHYNSwPukKAN7RQcgovSwCEREpAOOTCGtzcfiik4TJ5n5LivZLr99GP4H3Ip1wdl3TnQUSoGt9g3REYikVOzMxd///PtoN/EhAq0pGQtXUZIv3b/7ekxhDN2ow5ToKBm7iu3YgRYMQq61w1pkW+MEww8xH4vjfJ/yTnXS3qHactERiIhIYywCERHpwO0q5KWbpLnzfWFVTly2N5vvtPwWpwPFzlzRMZ7zx4H/Ga8iisRQv+golAKbaxfglG/cDpEs2pt34fPug6YeK6oVpWPhZOk6z0McZ3ATfgwYuvvnKPYbovsnScY1zkBgsQB4eYgj4YzA7SqU4jOEiIi0wyKQGC7RAYhIf+8frxYdgSzA16O8G6jYmWu6u6xkHJOSCFxf/D9iUSSufSo2DKVkE7uBiNZVUZKPoQ++h0vt+7ihmCbFY+EEd51XYBa34McRGLfzI4gi7IYXfhirK0LGNc5g4AsAi53qvBvIGLwmnQRAmnGJDkBE6WERSIzNogMQkf6KnbnSjesg87k8NKFKN9CplipTXRIr28n0xN0JIDLz9X8eYhHICGy1jaIjkAK2UmNt7BqZt6YMn/ccRHvzLlP9LNGakrFwIse5tuE2gvDjVUSFvL9SUWSjDXtQh0bch/GKl7KtcUbvzmE68vXXAruBjIEj4ShNm0UHIKL0sAhERKSjdw5U8mQsaU6NbiBHTpapuoE8Lrk2SBB+/u8oEboNRDI/AU46cRbCVmm+cYmWkSPXuCSzc+Rkob15Fyb6mlkMSpHSsXBnW/fo+u+5GFHcgh8noXzdIUqy++cCKkVHyZhsa5xAeOb5/xyaUeWAEmmr2JkrXUGRiIjUwyKQGFtFByAiMRw5WXi/lWPhSFuXhyYwendO8XNkuWNAqZ2lBdLNyl+t8+dZX4+AJJQuG0fCEaVleTGIY+I2pmQsnCMnS7excEcRwi34sQOzuryfFs6gyrDdP0kyrnFW6/w532fcMYFWIqqbkAxps+gARJQeFoHE2CI6ABGJU+/exlNWpLkT54ZVeU57i/FHGHpcks3KjzxEYnL8hf86MdQvIAyly+bZLzoCkSE5crLgrSnDP1z5IT721XMttA4lY+G0XmfmIY5eDKADN+FAXLP30dIYCuCGFx0wfmenbGuc+5HHGJl8sTDIkXDG0ODZLjoCGce/FB2AiNLDIhARkQBnj7MbiLQVCM0oumA6yVtTZviNOtnyJ8JrjM2JRZG4xruBpJeTy7uBiBSqd2/D0Affw/iVZhxrcnFU3ApKx8Jdatunyb/TekxhDN2ow5Tqz9bLGVRhN7wYRYHoKKqQbY2zchRc0nwsDv81FoJk58jJYjcQEZFJsQhERCRARUm+qe5bITmd7rmjynNONRu7G6hasg2SRODG2v9slTFxJB+bR59xS0RmV+zMxfvHq/Hws8O41L6Pp9CXUTIWrtiZq+o6Mw9xdOE6/Bhg949kZFvjDAa+WPOfsRvIGOr5OUxEZEosAunMXt3pEp2BiORwqqWKJ19JU4HQDAaDa/8yniq3q9CwG3OeyiI4crJEx3hOInB97X8Wuo3EXW6SyM7m3gc45dp4IzI6b00ZPjpdh/ErzTjbWs27g6BstGt78y7sLFXe7eLGDG7Bj4N4cYypUXShEq+j0TTdP0kyrnEGAmt3iQVCM6rcWUnaqndv4+cvpYT7m0TGwiKQ/jaLDkBEcnDkZOFsK8fCkbbe61TnbqD3DTrCULZZ+Yng2l1AS3+mr0eHJKQU7wYynkRYne5I0laxMxdHG134hys/xOfdB3GsyWXZDcmRyVn4FHT1Kh0/fAY3cRX9eBVRRc8R5QEcqEMjTmIP5mG+g1eyrXFSOXh0vi+kQxJSqt6zTXQEMobNogMQUepYBCIiEsgM962Q3KYjUVVmsKs9WkYvso1JWW8U3Nd/5jqw8FiHNKTEpqZm0REoDVFk4zd4WXQMSlNFST7eP16Nf7jyQ1zrfAOHasss10Xt67mTcfeE21WY0c/uCsziFvw4AuNu2HehErvhRRByrQPUJNsaZ3CdLqCkgcAXiC481SENKXGsqVJ0BCIiUhmLQEREghn9vhWSn6/7jiq/cBtxhKFbslOy642CWxKLpvbnSCxnIWyl5aJT0DrGUIAuVKIOjXgVRzCBb4uORAq4XYW42LYPDz87jI999ZYqCB3u2PgAwVrS/dndhtsIwo8dmM34PUUye/fPcrKtcQbWuQ8oaT4WX3dkHMmh2JmryjhJIiKSB4tA+nOJDkBEcnG7CnGotkx0DDKx6UgUH15RfprXkZOFUy3GKFoWI4rzHpvoGM9J3J0AYqmN1OFIOGOwsRtIKlFkoxflOIr9qEALdsOLk9hj6k4Aq6p3b7NUQUjJWDhHThYute/b8M8VI4pb8OMkbmf0PjLoRbnpu3+SZLurcfTuHOZj8ZT+7Pm+sLZhSBVGnABAunOJDkBEqWMRSH+bRQcgIvmcbd1j6s0LEu98X1iVbqCjjfLezVCMKI4ihFvwYxTd+EGlXXSk5ySGPk39z06OLxaNSGq8F0i8MRTgDKrghhev4giOYD/8KMd9vPg5NR0x5r0mtD6rFITO94VxP5LZqNB697Z1xw8nf3Yatfsnimx40YAj2G/67p8kT6VcXUCXh8ZT/rMjk7MZjzgk/chWaCQpbRYdgIhSxyIQEZEEjNRhQcY0H4ur0g0EIKUTxXpZWfjpwM2vN7FcVWLDrZDuiDd2AxlATi4LQTp7AAd6UQ4vGlCMI9gNLzpQhVFsPLZm+h9ZBDK7ZEFooq8Zl9r3mWoTcz4WVzQW7lLbiz+7ixHFVfSjAzfhQGpdHLK5iu3YgRYMwjx/16nwuOTqdhpMYRTccuf7jHvflFU4crJM9RlKRGR1LAIREUlC5g4LMgdfz52MTxEv53YVrnuiWGvrFn6S7A7YSiQasxh5CERm0npJInAdWFD+90XastW+ITqC6V3FdrRhD9zwYgdacAT7MYjtljnxT+lz5GTBW1OGj07X4b8OvW2aglAgNIML/eGMXlvszEX7snso6zGFW/DDjfR+Nski2f1zEA2W+yzIs2ejoiRfdIwl9yOP0+60HAh8oUqHOmnLy5HlRESmwSKQ/raKDkBE8pKpw4LMydejzqz/1U4Uaymlws8ysnVnJILpdQEBAGLRtLuHSH829z7AzgK+msZQgC5UwosG5OEnOIgGXEBlSt0+6wmEH6qUkIxkeUFo/EozzrZWG/rC89PdmR/oaG/ehR3Ol9CLAfgxwO4fg2rwbBMd4TmDwam0XzMfi2MgkP7rSF/17m2mHK9JqtkqOgARpY5FIP1tFR2AxJDhpJMaHQCkLber0BQnVUlel4cmVJnDXuzM1fzC2HQLP8vZKuUar5jOfUDPvY4j4QzBVtsoOoKhRZGNXpTjKPajAi3YDS9OYo9lN3hJO8XOXBxtdOHvf/59jF9pxrEm43Vhz8fieO/ccMav/1/a/xR1MObmu5W7f5YT2Y29mstDmd1heL4vrG4Q0sQhdgPR2raKDkBEqWMRiEgnI5PiL1q9PDTOSzgN4P3j1TxxRZo6oWDzaLlTLVWqf60qKfwsZ5PpPqCFx0hMpn5h8nKJyXEk7ma2uUL64Ui49AVRtDTi7VUcwRHshx/luA/tNuRlWIuRPIqduXj/eDX+4coP8bGv3lAbnQOBKQwG07uDJemPXDvwxPO6yom0F0QRdsPL4jDkug8ouvA048/WkclZ/m5qAIdqy0VHICIiFbAIRGQxam3+knb06LAgawuEZhBUYSySIycLp1qUd9yoVfhJspWWA85CxbnUonSkG7uB5GcrKVv8uqM1rRzxVodGVUa8pWM+ZszRV6S9evc2XGzbt3R/kBHGxR323ch40sDvj/+VYcZYRpGNNuxBHRo1LRIbxc7SAhQ7c0XHWKJ0pNv5vpBKSUgrFSX5hvhMJCKi9bEIRGQxgdAM/Nd4qlx27c27DDeehIzlsO+GKs852ujK6BdDtQs/z5GpCwhAIqDs33ViqB9Y4DhP2bEb6HkP4JByxJsaBXAyr+T9QX//8+/j8+6DOFRbJm139nwsjtPdmd3zl+fMx+Omt1VOpL5k988FVIqOIg2PS55DLgAwGMisIy3p8tCEFGPTaX1G6pQkIqLVsQikv62iAxCd6BzmYtsA3m+tFh2BTGw6ElWtIHz2eGpfq5oWfpaR7j6gUGabdM89Y6hfhSSkJd4LtHhZe3LE2w606DLiLV3TkajoCGQQFSX5uNi2DxN9zTjbWi3l4ZzzfeGMC5ubm9+WtoOR3T9rk+0+oOHQjOJnXB7KbGQu6Ycj4WgNW0UHIKLUsQikvy2iAxApOTlI+ql3b5PuFz0yF1/3HVUKwm5XIRo8q5/uz0McXozjKvo1LfwsZ6uUpxMoEbwBxJRvOj+7wpFw0svJhc2zX3QKXY2hAGdQhTo0Ig8/wUE06D7iLV28F4jS5cjJwtFG19LdQbKtzZR09s4eP6NiEnWw+2d91RJ9/Q0Gv1BlzOb5K2HlYUhTjpysNdf6ZGnc3yQyEBaBiCzqfF+YF3EawKW2faIjkIlNR6L48Io6s9jfX9YNlCz89GIA99GFC7gON5SfFE2FrbIKyJFnVr7SUXBLIjNIhO+o8yzSjM1j7s/sB3As3etTjCPYDS86UIUg5NmU3MgI1z6kQL17G4Y++B7GrzRLMx5pOhKFryeznw9/5NqB39W+pXKizLD7Z2OeyiI4crJEx1gyqPA+oKTpSJSjOg2g3rNNdAQiIlKARSAiCztxblh0BNpAsTMX7c1yjbYicznfF1alG6jYmYvupj9+rvBTB3U2B9Jhc8n1/aLGKLilZw19qtqzSBu2mjcMc9l6KqLIfu5enx1oWbrXZx5y3pOykYAKo4uIip25uNi2D+NXmnGsySX83qBEzwf4p7vTGb32G61/KfxzawwFeB2N7P7ZgGz3AQVC6hVuOBJOft4aee9IIyKijbEIRGRhgdCManeCkHbeOVDJBTdpZj4Wx4nOmxm//snCEzy4dh3PTr2NN/reE1L4eY5Mo+DuTgAR9TacE0P9wMJj1Z5H2jD6SLjl9/q8iiNS3uujFDuhSS3Fzly8f7waE33NaG/epft6rQKzuAU/TuI2Cs61ZfSMl3Jexpctmb1WDWdQhd3wSj1GUhYyjYIbvTun6h1rl4cmeGetATSwG4iIyLBYBCKyuBOdw1xwS86Rk4WzrdUb/0GiDF0emkhrU3R54Ser9jv4F763kQhc1zBhiuwOqTqBtOjcSQz1q/5MUpetqVl0hLQEUWS4e32UCoTZDUTqcuRkob15l67FoDbcRhD+pXv2EqHbmOv/JKNn5Te+CVupvhe/j6EA7q9GStLG8uzZcEvUCaRF5w67geR3rIndekRERsUikI7s1Z0u0RmIVpqPxXG6W71xRaQNb02ZdBcRk7mkMh4yEvx7+Qo/y9gk6gICAITV/2x9dqVH9WeSumwlZYBT3s/rMRQ8d69PHRoNd6+PUmqOMCJaTo9i0PLun5Ve6e7A7xaeZPTc2eNnlEZLGbt/0idTFxAABDS4w+f8lbDqzyR1VZTkY4vTPJ3BpBz3OYmMg0UgfW0WHYBoNef7whyNYgBnj7MbiLQTCM2seinvg+BtLHS04/evu1DQfki6ws9ytkp5uoAQeYjEpAYnWiMzSIQzuwCc9LPpgDzdQA/geO5en93wGv5eH6WGeS8QaUyrYtDK7p8XxKL433x/kdGz/8i1A7+rfUtBuo2x+ydznkp5uoDuRx5jZHKNr0EFpiPRVdeiJJdjB1yiI5BcNosOQESpYRGIiACk1gVAYlWU5ONQbZnoGGRih303ADxf+PkX7Qfx0tDHQEy9ue9asbnluYslEdSuWKbFmDlSl8ivxSiyl+71qUALdqDFlPf6KDEfi3OjkXShVjFove6flV4OfIZfh0cyep9vtv73gF2bzwl2/yhT794uOsKSwaB29z9yJJz8ZPpaJCKi1LEIREQAFrsABoNfiI5BGzjbukf3S4fJ/NyYQReuIxh5H7+v3maows8SZxHglOeUbCJwQ7tnD/UDC481ez6pwFkIm0e/QlCy6OOGF6/iyNK9Piz6rG0goN0mJtFKyWLQ590H0z7Qs2H3zyo2+97BbzMYC5ed8y08bno77deth90/ym1xOlDszBUdY8lAQLvfGS8PTfC+WskVO3PR4GEhiIjIaFgEIqIl73UOc9EtOUdOFk61SDTyigyrArM4g5sYQzeuoh8HMQ4H4qJjZUyq+4AWHiMR0vautcSVbk2fT8rZPPs0e3YQRTiDKtShEXn4yVLRhyfsUzeo4SYm0VqKnbm42LYP41eaN7zrMZ3unxdEZvD0yn/IKOPm5rdVu9eM3T/qkGkUXHThKQIaj9T88EpI0+eTcvWebaIjEBFRmlgEIqIl05EoF90GcLTRhZ2l/GWa0re88BOEH0cQwqswULfPOmS6D0iPe5OecSSc9Gye/aqNVRpDAbpQCS8akIefoA6N6EAVgpDronAjmY5EeR8iCVPszMXQB9/Dtc43Vl3TZdL9s1Juz1nMRzL7Gn/U/mHG7wuw+0dtGxUM9aRHF6V/aELz9yBlGjzbOZ2CiMhgWAQiouf4eu7gfoRjhmR39ni16AhkEMWIog23TVn4WU7P0VsbSYTuaP8mkRkkgtqNnCMV5ORm/HX5AI6lok8xjmA3vDiJPRgEx6+oiXdPkGhuVyH+/uffx6X2fcizZyvr/llFbkdrRq/7tmsnnnhez+i1Xahk94/KZBq9pXUXELBYpOeYcrk5crLQwG4gIiJDYRFIX5tFByBKxeEObizKzu0qTHumPFlHMaI4ihBuwY9RdOMkbpuy8JNkKy0HcuSZla9HJxAAJNgNJD1b7Rsp/bkHcKAX5TiK/ahAC3agZanoMw+etNUKR8KRLLw1Zfh/d9Yo7v5ZKRG6jX+6di2j1/7++F+l9ecfwIE6NOIk9mT0frS6naUFcORkiY6xRMv7gJZjN5D8DtWWi45ARERpYBFIXy7RAYhSEQjN8PSVAbQ3V7ENn5asLPx04KaqG0lSc8kzbiYRvAHE9Cm4JQLXgchDXd6LMmNz7Vr1bo0osnEV258r+hzBfvhRjvtQZ4QcbYynzUkWc/2fIL/1v9Xk2fmdJ/G7hSdpvy7PmY/HzSdS+rPJ7h+OqFSfxyXPfUCDwS8wH9Pn/siBwBSnU0jO7SrEFifXLIS9ogMQUWpYBCKiVb3XOYzowlPRMWgdxc5cHGtyiY5BAuUhDi/G0YsB6xV+lrF59omOsESXUXDL32+oX9f3o/Rtqn1jqejThj1ww4tXcQQH0cCijwR42pxEmrt7D89+VI9XOtu0O0AQi+L3nT/N6KVZB/7tqoXspOXdP+xa1IbVRsEtx5Gd8vNyMgURkWGwCEREq5qORPHhlZDoGLSB9uZdPIFlMcsLP/fRhQu4jjpof0mvzGyuXaIjLNFrFFzSM46Ek94/1f7bpaLPBVTyngzJ8LQ5ifKo5yJeafk3SExqv9H90tDH+KfwWNqv+1bOy5hraV/1n7H7Rx9umTqBdB6hySK9/DgSjojIOFgEIqI1+XrucGPEAC61y9MFQdqpxxS6cB1j6GbhZxmbZ7/oCEsSdyeAiL6nZBGZWRxBR9JyOjdjZykLPzLjaXPSU7L7J7fnrK7vW3DuZEav+6OaGtgqvx67yu4f/cjUBTR6dw7TEX3vl+TITvkVO3O5xiEiMggWgYhoXYc7uLkoO7erEJ5KnsI0o2Th5wG64McADmIcDugzi90obJXydAFB5y6gpAS7gaTH0Z1yO98X5ghc0txvF57o2v2zUmJyHHP9n2T02t8c9wFg94/ePJXydAENBMQcPmI3kPy4xiEiMgYWgYhoXYHQDE9gGcClNnYDmUUFZnEGNzGGbhZ+UuGq2vjP6ERUR04icB2IPBTy3pQamU5z04vmY3GOwCVN/To8guzmP9e9+2elV7o7MB+ZS/t1+SVb8T/VnmH3j848LnmKbaJ+H+TITvlxjUNEZAwsAhHRht7rHBYdgTZQ7MxFe7NEHRGUlmJElwo/QfhxBCG8Cn1HbhiS3QFbiSQX0kYeCjnZnZQY6hf23rQxR04WDvHyZKmxG4i08GThCX57rgObW7+r/7jQ1cSi+Ma5v8ropT9u/S7y7CwA6SXPno2KknzRMQAA9yOPMTI5K+z9ObJTblzjEBEZA4tARLSh6UgUvp47omPQBt45UIktTofoGJSiYkRxFCHcgh+j6GbhJwNS3QcUvi30/Z9xJJz06nlSVmrsBiK1zQWDyGp6Ddl9/150lOe8HPgMvw6PpP06R04Wxz7pqMGzTXSEJYGw2AImR8LJj2scIiL5sQhERCk53xdmK77kHDlZaG9hN5DM8hCHF+NLhZ8O3MQOiDtZaXQy3QeUCAi+Py0yg8Q1FoJkVu/exkK95NgNRGqYj8whduodvNL+AyAm5+GOzb53Mnpde/Mufo7pRKb7PgcDYkeDT0ei8F9jIUhmXOMQEcmPRSAiSsl8LI73znEsnOy8NWVS/dJIXxd+ejGA++jCBVxn4UclNlnuA1p4vHgvj2AJdgNJr16ik930ovlYHCc6b4qOQQY21/8J7C1/hpcDn4mOsr7IDB71XMzope+3VqschlYjy31A0YWnGAhMiY6By+wGkh7XOEREcmMRiIhSNhCYQjDMy8dld/Y4fzmXQT2m0IXrGEM3LuA66iD+F2gzsZWWA85C0TEAAImQ2FFwSYnQbSDCz2iZHWuqFB2BNnB5aAKjd+dExyCDmbt7D89+VI9XOtuk7f5ZKbfvIuYj6X+t17u38cCRxnaWFqDYmSs6BgBgOCTBXVYAAqEZTqWQHNc4RERyYxGIiNJy2Cd45BFtqKIknzPbBanALLpwHQ/QBT8GcBDjcCAuOpY5ydIFBAlGwS3zrK9HdARaR7EzFztLC0THoA2cYOczpei3C0/wqOciXmn5N0hMGuzy+lgU3zj3Vxm9lAeOtOVxyXHIBQAGJegCSjrfx3vbZMY1DhGR3FgEIqK0TEei8PXcER2DNnCqpQp59mzRMSyhGFGcwU2MoRtB+Fn40Ylc9wGJHwWXlBjqFx2BNnCotkx0BNpAIDSDC/1h0TFIcnPBILKb/xy5PWdFR8nYLwL/iM/DD9J+XUVJPj/LNCRTp9WA4PuAluNIOPnxc4GISF4sAhFR2s73hdmOLzlHThbOcma7ZooRxVGEcAt+jKIbRxDCqzDG+BezsLn3iY4AAEiE78g1+icWReIa7waS2aHactERKAWnu+9wrUOrmo/MIXbqHbzS/gMgIseorHQ9gAN1aMRJ7MF/5/uPGT3jbOseHjjSSL1bjrtVguGHmI/Jc7BpPhaH/xoLQTLjGoeISF4sAhFR2uZjcbzHUSnS89aUsSVfRXmIw4txXEU/RtGNDtzEDsyKjmVJtkqOgltPYohFIJk5crLQ4NkuOgZtYD4Wx+EO+b6/SaxHPRdhb/kzvBz4THSUjHWhErvhRRCL3SaZdvk7crI4flgDcnUByTMKLondQHLjGoeISF4sAhFRRgYCUwiGeQG57DizXbl6TKEXA7iPLlzAdbhhzFO/ZmLzyNEFBMg1Ci4pEboNRPj5LDMvx6UYQiA0wxG4BAD4dXgEvz9QvTj6TabuzzQ8tBcudf/M4/kOnky7/Nubd2GL06FWRALQ4JGjCwgABiUaBZcUCM2wS1NyXOMQEcmJRSAiythhH0/Iys7tKuRs5gy4MYMuXMcDdMGPAdRBvpOQluaSoxMocXdC2lFAz/p6REegddS7t3GMkkH4eu7w0IuFJUe/bW79rrSf9xuxlZbjy+7/hE3dVxEtrVz1z8zH4vD13M7o+e0t8tzRZwYelxydQKN35zAdkbPgeb4vJDoCrYNrHCIiObEIREQZy3R8BOmLM9tTU4FZnMFNjKEbV9GPgxiHA/LMQaev2B2wlUhS2AxntmGmh8RQv+gItAEW6I3jzfZBRBeeio5BOjPD6LfHzSew6eeDyC/ZiiKnA9c631hzVPDloYmMCp7emjKpRpgZWZ49GxUl+aJjAAACYXmLnhwJJz+ucYiI5MMiEBEpkun4CNIPZ7avrRhRHEUIt+BHEH4cQQivQs5Tj7TI5tkvOsISqe/eiUWRuCZxPuLlyQYyH4ujppXfT1YxFwwafvRbsvtnc/Pbz/33jpysdQtBJzK88/NUM7uB1CDTKDiZCy3zsTj81+TNR1zjEBHJiEUgIlJEyfgI0g9ntn8tD3F4MY5eDGAU3ejATezArOhYlCJbpSQbTQuPkZgcF51iXQmOhJNaRUn+mhuxJJ+RyVm83cExuGY2H5nDs3cP4pX2Hxh29BvwfPfPahw5Wfj7n39/1ZP6I5OzuNAfTvs93a5CXgavAlk6qqILTzEyKffa+HxfWHQEWgfXOERE8mERiIgUy3R8BOnrUvs+0RGEqscUunAd99GFC7jOe34MyibLfUCB66IjbCgxOb54bxFJi+NSjOXy0ATH4JrQk4Uni6PfDvwrJELGPdi0VvfPWi627Vv1M+h0952Mxh++f7w67dfQ82S5D2ggIP8aeWRyFqN350THoHVwjUNEJBcWgYhIFZmOjyD9WPGUZvKenwfogh8DOAi5OzdofbbScsBZKDoGACARMEZHALuB5FbvttZnshn4eu5wDJGJ/NO1a8hqem1x9JuBbdT9s5bVCkHzsThOd6dfDCt25nL8sAI7SwtQ7MwVHQMAMBj4QnSElJzvC4mOQOvgGoeISC4sAhGRKjIdH0H6ssIpzWJE0YbbGEP30j0/DsRFxyI1SNIFBBijEwj4KucC722TVbEz13LFeTM47LvBQpDBzd29h2fvHkS+76hh7/0B0u/+Wc1qhaDzfeGMuixOtVQhz56dcRYr87jkOOQCGKMTCAAGAl9k1LVG+uAah4hILiwCEZFqMh0fQfopduai3YSX9ybv+bkFP0bRjZO4jVdh3E0dWp0s9wElgsboAgIAxKKGKVhZVb1EF4FT6lgIMqbffjX67ZWWf2Po0W9A5t0/q7nYtu+F+zsy6fJ35GSxGyhDstwHNBg0RhcQsNi1ZpSClVVxjUNEJA8WgYhINfOxOE503hQdgzbwzoFKbHE6RMdQRT2m0IuBpXt+dkDuS2xJGZtbjnutjDIKLokj4eTmrSnjyXmDYiHIWOaCQWQ3/7nhR7+p0f2zmmudbzxXCAqEZjIqCLQ37zLNOlNP9W45NssHDVZUOd8XFh2B1sE1DhGRPFgEIiJVXR6aQDD8UHQMWocjJwvvtxp/LFzynp86GOuXVcqMrZKj4DKVmBxH4i43qmXWwJOyhsVCkPzmI3N49u5BvNL+AyAyIzqOImp2/6zkyMl6oRD0XudwRl3+7S1ydO4ahSxdQMDiiDUjGZmczWh0IemHaxwiIjmwCEREqstkfATpq969TapfODPBe36sxeaRpAvo7oSh7o94AAd6UY6LvDxZaseaKkVHIAUO+27wXkRJPeq5CHvLnxl+9JtW3T8rOXKycKlt39LJ/elIFB9eSf/nh7emzPDrTD3Jskk+encO8zHjra/Pc40jNa5xiIjkwCIQEaluZHKWmyEGcKlNjk11opS45OgESgx9KjrCupJFn6PYjwq0YAdacAT78T8EHvPONolVlORzfJLBnegcxtsdxhoVaWa/Do/g9weqF0e/Gahwvxotu39WU1GSj2udbyz95/N9YdyPPE77OadMeAelVjwuOQpml4fGRUfIyEDgC65xJMY1DhGRHFgEIiJNnO6+w8W45Iqduby8l4zB7oCtpEx0CgDyjYJbq+jjRznu4+tfuHl5svyOHXCJjkAKXR6aQO27f831j0C/W3iChY52bG79ruFHv+nV/bOaipJ8XGpfPCw0H4vD15N+J5XbVchuoBTk2bNRUZIvOgYAYNBgo+CSuMaRH9c4RETisQhERJqYj8VxovOm6Bi0gVMtVbysk6Rn8+wXHWFR5KHwTcVUiz6r4eXJcqt3bxcdgVQQCM2gpvVT3lEhwD9du4Y/aHoNLw19LDqKMnYHFlp/qmv3z2q8NWVLh4UyvfOTXecbk2UU3P3IY0xHjNs1xzWO3LjGISISj0UgItJMpr8wkn4cOVk421otOgbRumyVcoyUSQT17wJSUvRZaWRylp/JEit25vLUvEmMTM6ipvVTDAaNeareaOYjc3j27kHk+44afvSbrbIKse6/g6PRKzoKAOD949VLn0une+6k/fpiZy4O1crRySsrWT73B4PG7qThGkduXOMQEYnHIhARaSqTXxhJX7y8l2Rnk+U+oID2932oWfRZjVHn/VsFN0vNYz4Wx1vtg3jv3LDoKKb2qOci7Af+FRKh9MeVScXuwJetHdj0QS/ynHKMBkv6xFePPHs2AqEZ+K9NpP369mY5fobLSpb7gAYMOgpuOa5x5MY1DhGRWCwCEZGmMv2FkfTFy3tJVrbScsBZKDoGsPBYk01GrYs+K10emuB9JRJr8GzniE6TOd8Xxp/+6COOh1PZr8Mj+P2BauT2nBUdRbFk909+45uio6zKkZOFT3z1AABfBnd+Fjtz0c515qp2lhag2JkrOgaiC08RCBn7Di2AaxzZcY1DRCQWi0BEpLkTncNckEvO7Srk6SySkzRdQOqMgtO76LManpSVlyMnS5r7IUg9I5OzeK2lFxf6w6KjGN7vFp5goaMdm1u/K/yONsUk7v5Zye0qxLEmF6YjUXx4JZT26985UMnN31V4XBIccgEwEDD2KLjluMaRF9c4RERisQhERJqbj8VxutvgYzos4GzrHv6CTtKR5j6gDEfByVD0Wen8lbCQ96XUHKotFx2BNHKicxi17/417kcei45iSHPBIP6g6TW8NPSx6CiKyd79s5r3j1djZ2kBzveF0/4aduRk4ViTS5tgBibLOOZBE4yCS+IaR25c4xARicMiEBHp4nxfmKNQJOfIycKpFjk23ImSbO59oiMAQMqj4GQs+qw0HYny8mSJuV2F2OKU42uF1BcIzaD8QA98vDMxZfOROTx79yBeaf8BEIuKjqOMgbp/VnOpbR/mY3H4etI/3MVuoBfVu+Xoihg2wSi4JK5x5MY1DhGROCwCEZFuTvByZOkdbXRxYU7SsFVKMgoueGPNjUcjFH1Ww3EpcvNyPKfp+Xru4DsHfsHNyg3M9X8Ce8ufaXInm96M2P2zUkVJPtqbd+Hy0ETah7scOVk421qtUTLjkaYLKPgF5mNx0TFUxTWO3LjGISISg0Ugff1KdAAikQKhGfivTYiOQRu41L5250Ue4tiJWR3TkJXZPJJ0AS0bBWfUos9KvDxZbhyXYg3TkShqWj/F909d5Yi4Febu3sOzH9Xjlc42dv9I5p0DldjidGR0uMtbU8bDRl+R5W6UQRPdB5TENY7cuMYxnV+JDkBEqWERiIh0daJzmItyybldhWjwbH/uv6vHFLpwHffRhTqY75dFkpRLjk6g/yX0a8MXfVbDk7LyKnbmYmdpgegYpJOBwNTSiDirr5F+u/AEj3ou4pWWf4PEpPE/o8zQ/bOSIycLl9r3IRCawWAw/btk2jl6GADgccnRCRQImbMbkWsceXGNQ0QkBotARKSr+Vgcp7uNP9LD7N4/Xo3v2J/iDG5iDN3wYwAHwV+mSEd2B2wl4sdFjN6dw/858i9NUfRZiZcny42XqFuPr+cOypqsWwz6dXgE2c1/jtyes6KjKGd34EvfL03T/bNS8sDQe52ZdQNZfQM4z56NihLxXxejd+cwHTF4p90auMaRG9c4RET6YxGIiHR3vi+c9hxx0lexMxe3m/4ARxDCqzDnL4ckN5tnv+gIAMx9kpSXJ8ttZUcmWcN8LA5fzx281txrmRG6v1t4goWOdmxu/S4QMf4F9U88r+Of+z5HvtstOoqm3j9ejelIFBf6w2m/9uxxa98NJMsoOK5xSBSucYiI9MciEBEJkckccdKXrfldwCnHqAqyHlulHONiAibfQDDzBpDROXKycIiXJ1vWdCSKw74b+M6BX8B/zbz3W8wFg/iDptfw0tDHoqMo91X3j/30h3gp52XRaTRX7MzFsSYXTnen37nmdhXCU2ndNaYs/9u5xiFRuMYhItIfi0BEJEQgNGOZE65Gtqn1L0VHIIuySXAf0P3IY4xMzoqOoanLQxO8kF5i9Twpa3nJYpDZxsTNR+YQO/UOXmn/ARAzfsexVbp/VjrVsviz+sMrofRf2yzHYQ8RZLgPiGscEo1rHCIifbEIRETCnOgcNs1mhlnZ3PtgqxS/GU/WYistB5yFomNgMDglOoIueFJWXvXubdjiNNddVJSZ5Ji4sqYevHdu2NAbm3P9n8De8md4OfCZ6CjKWaz7ZyVHThaONbng67mT9tekVbuBdpYWoNiZKzoG1zgkHNc4RET6YhFIX49EByCSyXwsntHJQdLXprafiY5AViNBFxAABELmHpOS5B9iV6bM6iW5O4LkMB+L43xfGOUHevD9U1cNdefFfGQOz949iFc629j9YyLvHKhEnj0bvp7bab/Wit1AHpf4Qy4A1zgkB65xTOGR6ABElBoWgXQUG24Ni85AJJtMTg6SzpyF2NT8rugUZCE2zz7RERBdeIqBgDVOyU5HohgMfiE6Bq3hWFOl6AgkqYHAFGpaP8V3DvwCF/rDUndXP+q5CPuBf4VEKP1CgXQs3v2zUvJuj8tDExi9O5fWa92uQstdEC/D/16ucUgWXOMYH/c5iYyDRSAiEu5wxw3REWgDtgMtgJ3t+qQPm0v8yWCrbI4k8aSsvIqdudhZWiA6BklsOhLFic5hlDX14O2OG1J1B83dvYdnP6pHbs9Z0VFUEW/6MZ6y++cFyY3cE+eG037t+8er1Y4jNbcEnUBc45AsuMYhItIPi0BEJFwgNMMTWrLLycWm1r8UnYIs4J/f/X+KjgBg8XPJSgYCU+zKlNih2jLREcgA5mNxXB6aeK47SNT39W8XnuC35zrwSsu/QWLSBHdyOIvwqPNv8K3jbXiZ3T8vKHbm4lBtGQKhmbSLkMnXWoEMXUAA1zgkF6t8/xMRicYiEBFJ4b3OYanHmBBgq3kDtko57moh84giG1exHW3YAze8+P/u/HPRkQAAAwHrFaZ5ebK8DtWWi45ABpPsDkreHeS/pt9J+F+HR5Dd/OfI7vv3ur2nluJNP0a852/xbddO0VGklvycOuxLv8O/vdka60tPpfguIIBrHJIL1zhERPpgEYiIpDAdieLDKyHRMWgDtuPsBiJlVhZ9XsURHEQDLqASoyjAN78hfmkyGPwC87G46Bi647gUeTlysqQ5QU7GMxCYwmHfDRS+fglvd9zQrPv6yVfdP5tbvwtETNBpsKz751vs/tmQ21WILU4HpiPRtIuOVukG8riKREfgGoekwzUOEZE+xO+0WM+06ABEsvL13GGrvuRsJWWw1TaKjkEGslHRZ7ktTgfKt31bUNKvWW1MShIvT5ab1wIbpKSt5Li4t9oH8Z0Dv8B754YxendOlWfPBYPIanqN3T8Wd+yACwDg676T9mvN3g20xelARUm+6Bhc45CUuMYxLO5vEhkIi0D6uyc6AJHMDnekP0KCdOaUY5QFySmdos9KsoxJGbTgmJQknpSVV717G/Ls2aJjkElMR6I43xfGay29SwWhTA7i/G7hCWKn3sEr7T8AYlENkuqM3T+K1LsXT/NPR6Lw9aRXCDJ7NxDXOOJxjSMvrnEM657oAESUOhaBiEgqgdAMT2kRGYiSos9KnkrxY1JG785hOmKCjcwM8fJkuZl5g5TESRaEyg/04E9/9BEu9IdT+hz4p2vX8AdNr+HlwGc6pNTe4+YT+MaVYXb/KFDszF0a63S+L5z2fZ9m7gbiGkc8rnHkxjUOEZG2vik6ABHRSu91DqO6sgiOnCzRUYhohSiyEUARgihCAEVpF3rWI8M88IqSfMSGW0XHIFrVodpynO8Li45BJjYyOYsTk7M40TmMnaUFOFRbhnr3dhQ7c5f+zHxkDrkdrcgP3RaYVD220nL8pu1D5JdsFR3FFOo92zAQmMJ8LI4Pr4TQ3rwr5dcmu4Eum7Bjg2scovVxjUNEpC0WgYhIOtORaNq/NBKRNrQs+iy3s7SAhV+iDVSU5GNnaQFGJmdFRyELWF4Q2uJ04MeeP8KhP47ile4OJMww+g2L3T+bm9+G+JtazMPj+rrj5XxfGIdqy58rIm6kvbnKdEUgrnGINsY1DhGRtjgOTn/3RAcgMgJfzx226xMJoOZ4t3TUu7dp9mwiM+G4FBLhYOQ6jvcdwyudbaa4+8dWWo4vu/8TNje/LTqK6RQ7c7GzdHG9MB+Lw9eTXseYGe8G4hqHKDVm+963gHuiAxBR6lgE0t890QGIjOK9c8OiIxCZnqiiz0rVEszKJzKCQ7XloiOQhbgxgzF04yTMMfoNdgceN5/App8PcvybhpYXPS4PTaR9sMtsdwNxjUOUGq5xDOee6ABElDoWgYhIWgOBKQTDD0XHIDIdGYo+y+XZs+F2FQp5byKjceRkSXG3BJlbHuI4g5u4in68CuN3/gCArbIKse6/Y/ePDlYWPazcDcQ1DlHquMYhItIOi0BEJLXDvhuiIxAZXhBFOIMq1KERefiJ8KLPSjwhS5Seeg9HC5F23JjBLfhxBCHRUdRhd+DL1g5s+qAXeU7e/qOHlUWPy0MTaR/sMks3ENc4ROnhGoeISBssAunvkegAREYyHYnC13NHdAwiQ1lZ9KlDIzpQhSDk3IjwVPKELFE6vDVlyLNni45BJmPm7p/8xjdFR7Ecz4rix+k01/Nm6QbiGocoPVzjGMoj0QGIKHUsAukvLDoAkdGc7wunPUucyEqMVvRZqd7NsQ9E6WrgSVlSUT2mMIZudv+QanaWPP/vPRCasWQ3ENc4ROnjGscwwqIDEFHqWAQiIunNx+J479yw6BhE0jB60We5LU4Hip25omMQGc6xpkrREcgE8hBHLwbgxwAciIuOo4onntfZ/SOBlZ1AgPW6gbjGIcoM1zhEROr7pugARESpGAhMIRh+yItVyZKCKEIQRQh89f+bCed+E2WmoiQfW5wOTEfMMbaL9FePKXThummKP7A78GX7h8h3u0UnISwWQFZKdgOls55vb67C5aEJNaPphmscosxwjUNEpD52AunvkegAREZ12HdDdAQiXYyhwDSdPhtZ7aQwEaXm2AGX6AhkQGbt/vnnvs9ZAJJIRcnqY/jSXc8buRuIaxyizHGNYwiPRAcgotSxCKSz2HBrWHQGIqOajkThS3OMBJERjKEAXaiEFw0oxhHshte0RZ+VqrlBQpQx3jVB6TqKEMbQjTpMiY6iDrsDX/p+CfvpD/FSzsui09AKO0sLXvjvpiNR+K+l19lj1LuBuMYhyhzXOPLj/iaRsbAIRESGcr4vjPuRx6JjECmyWtHnJPZgENsxj2zR8XTjqSyCIydLdAwiwyp25qLBw00S2lgxoriKfnTgpmm6f35X+xa7fySXZ199TePrNv/dQFzjECnDNQ4RkbpYBCIiQ5mPxfHeuWHRMYjSwqLP6ho4K59IMd45QRs5ihBuwQ83ZkRHUYezCI86/wY5bT52/0jOs8bdP1boBuIah0g5rnGIiNTDIpAY06IDEBnZQGAKwfBD0TGI1sSiT2o8Lo5JIVKqwbN9zdP2ZG1m7P6JIhs/wX+Da5E/EB2FFDJ7NxDXOETKcY0jNe5rEhkMi0Bi3BMdgMjo0r1UlkhLD+BAL8pxFPtRgRYWfVKQZ89e89JoIkqdIyeLJ87pBabr/gFwFduxAy3oibyCw74b+M6BX6TdTUL62vLHjjX/mZm7gbjGIVIH1zhSuyc6ABGlh0UgIjKk6UgUF/rDomOQRa0s+uxAC45gP/wox32sveFBX+MvdETqOVRbLjoCScKs3T9eNOAgGp47WDEdieKw7wZq3/1rdohLaotz/TWRWbuBuMYhUg/XOERE6mARSIxHogMQmcHp7juILjwVHYMsgEUf9XkqOSaFSC1uV+GGm61kfm24jVF0m6r7pwuV2IEWDGLty8EDoRnUtH6K75+6ivuRxzqmI6UyOdRlhG4grnGI1MM1jrQeiQ5AROlhEUiMsOgARGYwH4vjROdN0THIhKLIxlVsZ9FHQ5yVT6QurwFOx5M2KjCLW/DjJG6LjqKaB3CgDo04iT0pj1UdCEzhtZZe+HrS6y4hsdI91FXszJW+yMI1DpG6uMaRUlh0ACJKD4tARGRol4cmOAKEFEsWfdqwB2548SqO4CAaWPTRyM7SAhQ7c0XHIDIVjkuxpjbcRhB+7MCs6Ciq6UIldsOLINLfSJ+PxeHruYM//dFHGL07p0E6Utt8LI4Pr4TSes2p5l0apVGOaxwi9XGNQ0SkHItARGRoFZjF/Ln3Rccgg1mr6HMBlRhFgeh4pudxFYqOQGQ6RjgdT+ph98/6RiZn2RUkAXeKP+/P94XT6gZyuwql/bzjGodIfVzjEBEpxyKQGL8SHYDIyPIQhxfjuAU/gvCjZnIQif4e0bFIckEU4QyqUIdGFn0Ea/CsfbcDEWXOCBemk3Jm7P45gyrsQEtG3T/r8fXcQe27f807JCVnpm4grnGItME1jnR+JToAEaWHRSAiMowKzKIL1zGGblzA9ec2P551fwAs8DJg+tryok8efoI6NKIDVapvMFH6Uj0ZTETpafBsR55dWQcFycuM3T9jKIAbXnSgSrP3CIRmUNbUw/FwAqQzstks3UBc4xBpg2scIiJlWAQiIukt7/o5iHE4EH/xD8WieNb5U/3DkTTGUIAuVLLoIzmekCXSjiMnCw2ebaJjkMryEDdt989ueHXpyJ2PxfFaSy/81yY0fy/KTCbdQMeaXNqEyRDXOETa4RpHOo9EByCi9LAIJEBsuPVXojMQya4YUZzBTTxA1wtdP2tJDPUjEebsd6tIFn28aEAxjmA3vDiJPSz6SM5TyROyRFqq5yakqbgxY7runyCKUIEWTbt/1nLYd4OFIIml2w1U796GLU6HhonSwzUOkba4xpFHbLg1LDoDEaWHRSAikooX47iKfoyiG0cQWr3rZx2Jc+wGsopk0WcQ2xVfIE36qXfzlzciLcm2KSq7naVy3guXhzjO4Cauoh+vIio6jiqiyEYb9qAOjbgPcV+jLATpZzqS3tduJt1A7S3y3A3ENQ6RtrjGISLKHItA4syLDkAki2JE0YbbS3f9uDGT8bMSk+NI9PeomI6I1LLF6UCxM1d0DCLTq+e4lJRd63xDuhFOye6fI0hvM1xmQRRhN7y4gErRUQCwEKSX6X9Mv4CZbjeQt6ZMik1hrnGI9ME1jhS4n0lkQCwCiRMWHYBINDdm0IsBjKIbJ3FbtZOuz7o/ABYeq/IsIlIPx6QQ6eNYkxwb7UbgyMnCR6frcKi2THQU03b/HMV+4d0/qznsu4HRu3OiY5haJv9+M7ob6IAr7fdRG9c4RPrgGkcKYdEBiCh9LAIRka7yEMdRhDCGblxFP+owpf6bxKKLhSAikgrneBPpo9iZK+2YM1ldbNsntBBkxu6fq9iOHWiBH+Wio6zprfbBtLpOKD3pjoNLSrcb6FBtOfLsYkcDc41DpA+ucYiIMsMikDj3RAcg0lMFZtGF6xhDNzpwU/MTrom+biTucswHkUyqK4tERyCyjGNNLtERDOdi2z6cba3W9T3N2v3jRQMOokH6O/umI1Gc6LwpOoZpjUzOZvS6dLuBHDlZwj/zuMYh0o/o73fifiaREbEIJM490QGI9ODFOG7BjyD8OIhxOBDX7b0T536q23sR0fo8lUVw5GSJjkFkGbLdc2MURxtduNS+T5f3MmP3Ty/KsQMtGIRxvv4uD00gGH4oOobpKP13er4vnNaff+dApbBuIK5xiPTFNY5w90QHIKL0sQhERKorRhRncBMP0IULuI4dyOwUoFKJ0G0krn0q5L2J6HkNvMSVSFeOnCwp7rkxIm9NGT7vPqjZhrIZu38ewIE6NOII9kvf/bOa0z13REcwneHQjKLXz8fi8F9LvavfkZMlbK3BNQ6RvrjGISJK3zdFB7CwXwH4d6JDEKmpHlM4iHFt7vnJ0LPOn+Ibnv1ATq7oKESW5nHJMyZl9O4cKkryVX3mYPALvNU+qOozjeC/Dr3N088Sq/dsx+UhjkbNREVJPj7vPoi3Tg1mPNJqNW7M4CKum6b4AwBdqEQHqgxZ/EkKhGY0+dlgZYPBLxQ/w9d9B96a1Dd625urhHzmybTGsVd3io5gGlzjyI1rHKF+JToAEaWPnUBEpEge4jiKEMbQDT8GpCoAAQBiUTzr/kB0CiJLy7NnS7OxNnp3Doc7bqj+3Hr3NkvOJx8ISPaZT8+pd2/DFqdDdAzDKnbm4lrnG6qcNjZz989J7DF0ASjpfJ95xvKJdj/yWJXi6XQkmlY3ULEzV/fuANnWOKQernHkxjUOEVF6WAQS557oAERKVGAWXbiOMXSjAzel3tBI9HUjcZenhIhEkWlMSiA8g5HJWbx3blj1Z79/vBo7SwtUf67MeAJTfvUSff8ZkSMnCxfb9uFsa3XGz6jHlOnu/jmDKuxAC4KQpwNCqUCI9wKpZTCo3ua5rzu9UX2HastVe+9UyLbGIfVwjSM/rnGEuSc6ABGlj0UgQWLDrfdEZyDKhBfjuIp+BOHHQYzDgbjoSClJnPup6AhEluWplGeTMHky+XxfWJOLwD8+XS/sYmoRAqEZ3I88Fh2D1qH3hqhZHW104VrnG2l9f+chjl4MwI8BqQ/LpGMMBXDDiw5UiY6iuulIlJ9nKlFz8zzdbiC3q1DXdYeMaxxSB9c48uMaRwzuZxIZE4tARLShYkTRhtt4gC5cwHW4YbxTZonQbSSufSo6BpElNXi2i46wZGTZqJTDvhuILjxV9fnFzlxcat+n6jNlp+aJb1JfRUm+5TrUtOJ2FWKirzmlTd96TGEM3fKNyc1QFNk4gyrshhejMO/X0/2IOYp1Iqk1Cm65dLuB9BzPKusah9TBNY7cuMYhIkodi0Bi3RQdgGg9bsygC9cxim6cxG3DdP2s5VnnT4EFnuYi0tPO0gJpLtWNLjx9bmNqOhLFYR/vB1KK41Lkp/cdGWbmyMnC0AffQ3vzrlX/+fLuH6Ovm5KCKMJuk3b/rDRyl50USmlxt1K63UB63RUi8xqH1ME1jvy4xtEd9zGJDIpFICJ6Th7i8GIct+DHVfTjIMZFR1JPLIpn3R+ITkFkKfVueWZ1r7Y5MhCYSmtjKVWnWqosczJxZHKWl1FLjuNS1NfevAvXOt94bqPZjN0/bdiDOjTiPqxx+fajx+Yo3IkSXXiq2ab5+b5wWn++vWX1Qq2aZF/jkHJc48iPaxwiotSwCCRWWHQAoqRiRHEGNzGGblzAdeyAOX+RSPR1AxFe/Eukl2qJZuUPh1YfZXmic1j1me+OnCxcattnmfuBLg+Z6MCACTlysqQaWWQWblchPu85iDc9xabr/rmK7dgNLy6gUnQUXVmleK+Vy0PjmI9p8z0wMjmb1l1+3poyzX8GG2GNQ8pxjSM3rnF0FxYdgIgywyKQWI9EByByYwa9GMAounEEIdNsXqznWcdfiI5AZAl59my4XYWiYyxZ6yTnfCyOwx3qj4WrKMnH2dZq1Z8ro8HAF6Ij0Aa8HJeiiW/i9zjnnDBV948XDTiIBst0/yynxwgxMzt/Jazp80/3yHM3kFHWOKQc1zjy4xpHV49EByCizLAIJNY90QHImpIj38bQjavoN83GRaoSodtIBNXf8CWi58l0QhZY/5RsIDQDX5qbS6nw1pRZYlb5dCTKDSjJ1bu3WaYzTS+/Do8gu/nPkd3370VHUcVVbMcOtGAQ1jxRnWfPRkVJvugYhuW/NoHpSFTT9wiEZtLqBnrngHadbEZa45AyXOPIj2scXd0THYCIMsMikFj3RAcga8lD/LmRb69C21/UZPas86fAgrrjn4joefUeeWbl34883nBEja/njia/5J9t3WOJEUMclyI/KxQk9fDbhSf47bkObG79LhAx/sbrAzhQh0YcRAPmYd1NtAaJfmYZTXThKU50DuvyXul0AzlysjT73DPaGoeU4RpHflzj6Oae6ABElBkWgcR6JDoAWctRhCwz8m1DkRkkrnSLTkFkah6XPKdkR+6mds/ZW+2DiC48VfW9rXI/EMelyI+XJytntu6fLlRiN7wIQp7Pa1Ham6tERzCsD6+EdCtCBEIzad3jp9XfqxHXOJQ5rnHkxzWObh6JDkBEmWERSKDYcGtYdAYiK3vW8wEQSX2kBBGlbmdpAYqduaJjLAmkOCZlOhLFic6bqr+/Fe4Hmo5E09qYI/1VlORboitNC2bt/jmJPZbu/kk6VFsm1c8sI7kfeYzzfWFd39PXczvlP1vszIVH5dFtRl3jUOa4xpEf1zj64D4mkXGxCCTevOgARFb2rOMvREcgMiWPRJclA8BIGmPeLg9NYDCo/olPK9wPNBi01h1zRmT2r0EtmK375wyqsAMt7P75Sp49G2db94iOYVjvnRvWfRTZ5aGJtDbkTzXvUvX9jbzGocxxjSM/rnE0x/1LIgNjEUi8sOgARFaWCN1GInhDdAwi02nwyHWxeLqnZA/7bmhy4tPs9wMNcFyK9DguJXVm6/4ZQwHc8KIDHHu23Ce+ejhyskTHMKTB4BcYCIjZGE+nG8jtKsQWp0O19zb6GocywzWO/LjG0VxYdAAiyhyLQOI9Eh2AyOqedf4UWGB7P5Fa8uzZcEt0SnY0gxOy87E43jo1qHoWR04WPj5db9r7gQKhGdXvVCJ1OXKypNvAlJGZun+iyMYZVGE3vBiFeYvQmbjUvk+qn1dGEl14ivc6h4W9/0Dgi7R+3rS3qNMNZIY1DmWGaxz5cY2juUeiAxBR5lgEEi8sOgDpQ6ZfFmiFyAwSV7pFpyAyjWqVZ+8rlemFySOTs/D13FE5zeL9BJfa96n+XFkM80Sy9Lwcl7Ims3X/BFGE3ez+WdWl9n3w1vB7IVMnOm9iOhIV9v7zsTg+vBJK+c83eLarcgDDLGscygzXOPLjGkdTYdEBiChzLAKJ90h0ACICnvV8AEQeio5BZAr1nm2iIzxnZDLzDRJfzx0Ew+p/NtS7t+FYk0v158pgUNBoIEpdvXubabvRlDBb908b9qAOjbgP9cZgmUGePRufdx9kAUiBweAXuDw0IToGzveFU+7McORkqXJfiJnWOJQ+rnHkxzWOph6JDkBEmWMRSLyw6ABEtOhZx1+IjkBkCh6XbKdklY1KOey7ocn4j/ePV5vyfqBAiAV1I2iQbCNTJLN1/1zFduyGFxdQKTqKdDyVRZjoa0ZFSb7oKIZ1P/IYh31y3Kc5H4undSfRsSbl3xNmW+NQerjGMQaucTQTFh2AiDLHIpB4j0QHIKJFidBtJIJy/FJLZFRbnA4UO3NFx3iO0guTpyNRzTa8zHg/0HQkivsR3rMmOzU2Q40uD3HTdf940YCDaGD3zwp59mxcat+HoQ++B0dOlug4hvbWqUHMx+KiYyzxdac+trXYmavovhAzrnEoPVzjGAPXOJp5JDoAEWWORSDBYsOtYdEZiOhrzzp/KjoCkaHJNiZFrQuTBwJTuNAfVuVZyxU7c/GJr17154oWCHNTSnYVJfnY4rRuoaAeUxhDt2m6f3pRjh1owSB4IfZyefZstDfvwkRfM8e/qeDtjhvSjR+bjkThv5b6aDolo1jNusah9HCNIz+rr3G0wv1LImNjEUgO86IDENGiB5EoRnp6RccgMiyPiS9MPt19R5MNF7erEO3Nu1R/rkg8mWwMxw64REfQXR7i6MUA/BiAA/J0M2TqARyoQyOOYD/mYa6uQiWWF3/am3ex+0cF/msTUtwDtJp0crldhRlvDpt5jUOp4xrHGKy4xtEY9y2JDI5FIDmERQcgsrIxFOAMquCGFzvQgtq+x2zzJ8pAnj0b9W65TslO/2NUtWfNx+I43KHN/UDtzbuk21xSgjPzjaHeba2ukWT3Tx3McbF3FyqxG14EYZ7PDqW2OB0421rN4o/KRu/OSXMP0GoCoRkEw6n/3GlvSf/ghdnXOJQ6rnGMwWprHB2ERQcgImVYBJLDPdEByCIqq0QnkMZVbEcb9qACLdgNLzpQhVEsXtA+H4vjvXPDghMSGU+1hEWMQBqbQqkYmZzFic6bqj4z6RNfvWlGV0xHopoUy0hdSu/HMApTdf/YHfiytQNfdP89HjS9C9jN8ZmhRJ49G4dqy3Ct8w38w5Uf4miji8UfFY3enUNN66eiY2zo8tB4yn+2wbM97fv4rLDGodRwjWMMVlnj6Oie6ABEpAyLQHK4JzoAacssm3pGFkU2elGOo9iPYhzBQTTgAirXvDh5IDCV1olC0h+/r+Qj26x8AJrcXXB5aAKDwS9Uf64jJwsfm+h+INnujaDVyfh9qyYzdf/YKqsQ6/475De+idISJ94/Xo2Hnx3Gx756HKots9TPxS1OBw7VluFjXz0efnYYF9v2we0qFB3LdKILT/FW+yDmY/IXTy8PTaTcye/IycKh2vTuiJLxs5I/Z8Xhv3tjkPH71sDuiQ5ARMqwCCSHe6IDkLbe/GOOFhMhWfjxogGv4giOYD/8KE95Zr7MYy8IKP5j62x2GYXHJdcp2fuRx5ptXB323dBkbGRFST7Otlar/lwRhjkz3xC8NWVpn4g3ArN1/8y1X8CmD3qR58x/4R/Xu7fhYts+/MOVH+Lz7oOmGy8JLHb7NHi242xrNT7vPoh/uPJDXGzbJ914LjOJLjxFTeunmI4YZ+SYr+d2yn/2WFNlWs+20hqHNsY1jjGYdY0jyD3RAYhImW+KDkAA+GFqSnmIox5TaMNtFDv3i44DALC5zHXx+GoewIFBbIcf5Uvj3TI1HYnC13PHdBe2E2lhZ2kBip25omM8576GG1fzsTjeOjWIv//591V/9tFGF0YmZ6W9gDtVo3fnREegFDV4thn+6225ekyhC9eNX/wB8MTzOr7Z/jP8Uc7LKf35ipJ8VJR8XSgKhh9iODSDQPghRiZnDbNp7Kksws6SfOwsLcDOkoLn/jeR9pIFIKN1OwwEvsDZ1qcpjQMsdubCU1mEQAqb+VZb49DGuMYxDrOtcQS6JzoAESnDIpAcwqIDkHqKEYUX4ziK0NLmg600vXEDWrKVliMxmfrMbCMYQwH8KEcARYoLPyud7wvjUG25dL/4EeBxFab0izvpI92xKnrQ+pTmyOQs3js3jPePq9+5c7Z1D0buzhluA245I50et7pjTZWm2CDJQxxduG6K0W9wFuHLVh/y3W5Fj3G7Cp8bk3Y/8hgjd2cxMjmL+5EopiOPhRWHdpYWIM+ejZ0l+cizZ6O6sgjFTgfXXIIZtQAELB7Q+PBKKOUDXMeaXCmtJa24xqH1cY1jHGZZ40ggLDoAESnDIpAEYsOtj+zVnaJjkELFiKINt3EQqxRYXFX6B1qLqwowQRHoKrYjiCIMYvua9/qoYT4Wx3vnhvHR6TrN3oMyU11ZBF/PHdEx6Cv1bvkuXtXjlOz5vjA8lUWqjyRy5GThUts+1LR+apiT+ysZcQPRqipK8rHF6TD0ppaZun/iTT8GWn6C/BS7f9JR7MxFsTN31c+s6MLTpe/bR7H4C9/Do3fn8CiFz6PN9uwXOneql42n49098jJyASjJPzSRchGo3r0tpc8+q65xaG1G/h6xGjOscWQQG259JDoDESnDIpA8bgLYIzoEpc+NGbThNtxY4zSW3QFbiTynx2yVu5Do6xYdI21RZGNwWeEn1Xt91DAQmEIw/JCbFpJxuwqRZ8827Aa5mXgqi6Q8uT2twZ09qznsu4GJvuaUxs+ko6IkH5fa9+Gt9kFVn0u0mmMHXDjROSw6RtrM1v3zqP1DfNu1U8jbO3Kynlvr8L4dazFDAQhY7NDwX5uAtya137+8tWXrHiqy+hqHyAyMusaRyE3RAYhIuU2iA9CSR6IDUHq8GMcYunEV/WsXgADYKiXqAgJgc+8D7Np1zqjpARzoRTm8aMCrOIIj2A8/ynUtACUd9t3Q/T1pYzKO57CiU5Lem6XXuMD5WBxvalSoqXdv471kpAsZT7pvpB5TGEO3KQpAj5tP4BtXhoUVgMjazFIASkpn9NM7ByrX/edWX+MQmYER1ziSeSQ6ABEpxyKQPMKiA9DG8hBHG25jDN24gOt4FRu3FNs8+3RIlh5bbaPoCGt6AAe6UAk3vNiBFhzBfgxC/KJtOhLl6DEJHWta/xd30t6h2jJ2yWFxM0arz4j25l3wLBulRKSFYmcuGjzif96mIg9x9GIAfgwYfvybrbQcX3b/J2xuflt0FLIosxWAgMWfycHww5T+rCMna81DRVzjEJmDkdY4kgqLDkBEyrEIJI97ogPQ2ooRRReuYwzdOInbKRV/ACyOgvPs1zZcBjY1NYuO8JwxFKANe1CBFuxAC05iD0ZRIDrWC873hRFdeCo6Bi1T7MxlN5BAefZsnG3lJNMkX8+dlDed0vWJrx5bnMbo4kxi4cp46j3yj/8yTfeP3YEvWzuw6eeDyC/ZKjoNWdTo3Tm81txrqgJQ0uWh1O9APVRb/sJ/xzUOrYdrHOMxwhpHYvdEByAi5VgEksc90QHoRW7MoAvXMYpuHMR42qdNbZ79QI58M6ThLBTeDXQV23EU+1GMI9gNLy6gEvch9wbnfCyOE50chyub9ma5Ri5ayaX2farfg2N0b7YPalIsduRk4WNfPfLs+o/DzNQWCe9QoPV5a8qk/RozVfdPZRVi3X+H/MY3RUchCxu9O4ea1k9Ne1n65aEJ3E/x3hy3q/CFgxZc49B6uMYxHpnXOAZwT3QAIlKORSB5hEUHoK/VYwpX0Y+r6MdBpH6KbCWbZB03y21qflfX94sie+l+n2IcwUE0CLvfR4nLQxOanfSnzLAbSIxjTS5eGr4KLe8HqijJx9nWak2erYV6jt0wpGNNLtERXmCm7p+59gvY9EEv8pz5otOQhfmvTeC1ll7Mx4xdUN1IOt1A7S1f3/3DNQ5thGscY5JxjWMQYdEBiEg5FoEkERtufQRgXnQOq/NiHGPohh8DcEPZZZu2yirYSiTemHYWal4ISt7v40UDXsWRpft9jFb4WenEuWHREWiFs617eLJLRw2e7Xj/uPzFCFFfE1reD+StKTPEL7B59mxUc1SKIW10SbqezNT988TzOv6573P8UU2N6Chkce+dG8Zh3w3RMXRxvi+c8p9t8GxHnj2baxzaENc4xiXTGsdA5r/aryQig2MRSC5h0QGsKA9xtOE2xtCNC7ie+n0/G7Dp3GmTCduBFsCp7gJ2DAXoQiXc8C7d7zMIc52UGpmcxYX+sOgYtIwjJwunlp3gJO3sLC3ApfZ9omOkZGepuLvFtLwf6P3j1UL/t6WiwbONY3QMar1L0vVkmu4fZxEedf4N7Kc/xEs5L4tOQxYWXXiK75+6mlZhxOjmY3H4r02k9GcdOVk42vgvucahDXGNY1yyrHEMJiw6ABGpg0UgudwTHcBKihHFGdzEGLpxErdVK/4AX3UBuQywIZ2Ti03tP1P8mDEUoA17UIEW7IYXJ7EHozD3Lyanu+9ocu8HZe5oo4uXtGpsZ2kBrnW+YZhffD2uQqHvr9X9QABwrfMNqU8BH2viSUsjE3nXmpm6f+JNP0a852/xbddO0VHI4pL3/wwEDF5UzUA6Ra+TP9zFNQ5tiGscY+N9smm7JzoAEamDRSC53BMdwAqKEUUXrmMU3TiCkCYbDEboAkqyuXbB1tSS9uuuYjuOYj+KcQS74cUFVOI+HBu/0CTmY3Gc6LwpOgatcKltn9Qb40ZmtAIQAOGjOrS8H8iRk4VrnW9o8mylPJVFqCjhfSdGJuquNbN1/3zreBu+xe4fEsx/bQI1rZ9iZHJWdBQhRiZnU+7M/cYmm8Zp1CN6jWNVXOMYH++TTds90QGISB0sAsnlV6IDmJkbM7iKfoyiGweR+iWh6bJ59hujC2iZTS3vwlZavu6fiSIbvShfKvwcRAP8KDf8/T5KXB6a0GzcE2Wm2JlrmDEeRmLEAhAAuF2FwouCgdAM3tPoHrGKknwpv95PNRvrZyCtTs+71vIQRxeum6L753HzCXzjyjC7f0i46MJTvN1xA4d9NzAfM/b3lVKXh7T73U8UGdY4VsQ1jjnwPtm0/Ep0ACJSB4tAcrknOoAZeTGOq+jHVfTDjRlt38zuwKbjf6nte2ghJxe2tp8B9uc7eZKFHy8a8CqO4Aj2W77ws9IJjTZ3KXP17m041uQSHcM0jFoASmrwbBMdAef7whgMfqHJs701ZVKdZjxUWwY3R9SYgiMnS5fPUjdmcAt+TQ/o6MFWWo4vu/8TNje/LToK0dL4t8tDqd2HY3aXhyZMOcZZhjWOlXCNYx56rXFM4p7oAESkDlsikRCdgZaxV3fyL0QlXoyjTeW7fjayqfldQ42CWylx7VNM+36KQWyHH+Wmv9dHLWdbq3G00SU6Bq3wpz/6yLKjT9Ri9AIQsLgR9lpLr+gYyLNn4/Pugyh25mryfBm+3rX+30hifOfALzAdUX8tlYc42nAbRxBS/dm6sjvwuOltFn9IGhf6wzjRyUNKK7U370K7ybo4ZFnjWAHXOOak1RrHTGLDrcaZk0lE62InkHx4yYgCyQ2FB+jCBVzXtQBkKy03dAEIAGw1b6C3+RJOYg8LQGk43X3HlKcLje5a5xvY4rTOPVVqa/BsN3wBCFgcmeaRYG7+fCyOt05pcz8QsPj1LnqsxamWXdwcMSEtRg4mu3+MXgCyVVYh1v13LACRFO5HHqP23b9mAWgNfhN2RcmyxrECrnHMScaxypLh/iSRibAIJJ9HogMYUTGiaMNtjKEbJ3Fb/3nydsfiODUTaG/eJdVoISOYj8VxopPrI9k4crLwsa9e+Ma4ER2qLcNHp+sMXwBKkmV++8jkrGb3AzlysnCt8w1Nnp0KT2UROyJNyu0qVG1kSh7iOIObuIp+XQ/qqM7uwJetHdj0QS/ynLwgnMS70B/Gay29CIQ0Hn1tYNORqGajWUWSZY1jZlzjmJeaaxyTuic6ABGph0Ug+YRFBzCSYkTRhesYFVX8+cqm1r+ErcQ8hZOLbft4qixNl4cmEAw/FB2DVqgoyccnvnrRMQzlUvs+XGwz16k4t6tQms+0831h+K9pcxq5oiRfyInGPHs2v89M7lRLFXaWKusQNlv3T37jm6KjED3X/TMfE/N7kJG8lPUN0RFUJ9Max4y4xjE/NdY4JnZPdAAiUg+LQPIJiw5gBBWYXSr+iL5I2FbbCFuNuNPXWvnEV8/FUJpO99wRHYFW4XYVstU/BXn2bFzrfAPeGvMUtJc7e7xadIQlJzqHMXp3TpNne2vKdO/m/MRXb5quMVqdIycLl9r2ZdRZaaruH98v2f1D0mD3T+qSa5w/+1dbREfRhExrHLPhGsf8lKxxLOBXogMQkXpYBJJPWHQAmbkxg6voRxB+4cUfYPEeoE2tfyk6hiaSo4VYCEpdIDSj2Ql/UsZbU8ZC0Dp2lhbgWucbcLsKRUfRTEVJvjTjHuZjcRzuuKHZXWIX2/bp9tl9qX2fqb9u6GsVJfk425reRqNZun+eeF7HP/d9jny3W3QUIgTDD/GnP/qI3T8p4hqHMsU1jnVkssaxiHuiAxCRemyJREJ0BlrBXt3Jv5QV6jGFIwjBDYlOutkd+EZfAMgx9wWR0YWnqGn9FCOTs6KjGEKePRsTfc08MSYp/7UJHPbdEB1DKg2e7bjUvs8SX7PRhad4rbkX0xE5uhEO1ZZpNnovuvAUZU09mm4Qapmf5PXeuWGc7wuv+2fyEEcbbhu++AO7A1+2f8jiD0khuvAUJzpv4vIQDxylimscyhTXONaUyhrHSmLDrTbRGYhIPewEkhNvmP+KF+MYQzf8GJCuALSp8yPTF4AAdgSlaz4Wx+nu26Jj0BpEjMqS2dnWanx0us4SmyPAV+MeJOoIuzw0gQv9YU2enfzs1kqDZzs3Ryzq/ePV636OsvuHSH0X+sMoa+phASgNXONQprjGsa6N1jgWw31JIpNhEUhO90QHEC1Z/LmA6/LNj/+qAGQrsc7igIWg9JzvC2t23wcpd7Ftn+UX98nZ+EcbXaKj6M7tKkR78y7RMZZoeT9QRUm+JhtCO0sLuNFkcRfb9r1wEblp7v5xFuFL3y9hP/0hXsp5WXQasrhg+CG+c+AXHP2WBq5x5FnjGBHXOKTnWGXJ3RMdgIjUxSKQnO6JDiBCcnTIA3TJWfwBLFkASkoWgqy+eZ6qE+eGRUegdVxs22fZX/A8lUWY6Gu29Izz9uZdUv1yV9P6qWb3A3lrylS9JyB5t4JVTlbT2j7x1aPBsx2Aebp/4k0/Rrznb9n9Q8KN3p1D7bt/jZrWTzneKw1c48i3xjESrnEo6VrnGy8cdrGge6IDEJG6WASS069EB9BTsvgzhm6cxG04IOkpNwsXgJIcOVnsokhRIDQD/zWO7JCZt6bMcoWg9uZdGPrge/zlFsDHp+uRZ88WHQPA4hjJN9sHNXv++8erVflFlpsjtJwjJwsfna7DFc8TU3T/POr8G3zreBu+xe4fEuh+5DHe7riB11p6EQhJNArbALjG+ZpMaxyj4BqHlnPkZGHog+9Zfd/jV6IDEJG6bIlEQnQGWsFe3bkZwJeic2itGFEcRQhejMtb+PmKrbQcm05fApzWPVW2kq/nDnw9d0THkFqePRsTfc38ZUJy/msTOOy7ITqGpvLs2bjUvg/17m2io0glGH6ImtZPRcdYcqzJhfePV2vybKUXRnNzhFbzqOcicnvOio6hSLzpx0DLT1j8IaHuRx7D13Obd/5kgGuc1cm2xpEZ1zi0Hgvve7wSG259JDoEEamHRSBJ2as7HwHIE51DC8WIog23cRDjoqOkxObZj03tPwNyckVHkY4VNs+V0nJTl9QTDD/Em+2Dppy3v7O0AB+frkexk59hq5Htc+xjX71mG1mjd+dQ0/pp2l/n3ByhleYjc8jtaEUidFt0FEWuYjv+j8PyfP+T9bD4owzXOOuTbY0jI65xKBWDwS9w2HfDlL8rrmE+Nty6WXQIIlIXi0CSsld3/grAHtE51GS04g/sDmxqeRe2xmbRSaSW6aailXzefRAVJfmiY9AGzPi1zCJkat7uuCHNBlzyQmutPjPS3RDi5gitNNf/CV7p7gBixh3/FkU2jmA/BrEdseFWXd/7fuQxRu7OYmRydum/a/Bs5zrBYlj8UY5rnNTItMaRDdc4lI7owlMc9t3AQGBKdBQ93IwNt+4VHYKI1MUikKTs1Z1/BeDfCY6higrM4ihCxin+ALBVVmFT2884/i1Fo3fncLjjxnMbGvQ1T2URhj74nugYlILowlPUtH5q+K9ljkZJX+27fy3N/Qtab0q8d24Y5/vCG/65Q7VlONu6h5sjBMBc3T9HsB/zWLwvQ48iUDD8EJeHxhEIPVxzJOMWpwPe2jK8c6CS33MmFgw/xPm+sFU2ETXBNU76ZFrjyIJrHMpUMPwQp3vumP176v8RG279K9EhiEhdLAJJyl7d+UMAPaJzKOHGDNpwG+7/P3v/HxzVff/5ni8bX3pmaLqZu6hKGRTkkcQfMEiRdv+ABKlFtgoWjFRff2PsBMSuEalbGDzu+FtbRZBct4L/sCD8M7gT86PuBsEtBB4b5iuvxI+CuRWpJcfwlxqJQX8g9EUYvtGWdHfopjWzYkvL/iGJgBFSd6vP+Zxz+vmoSiUWp895xYDUfV7n/fnIRT8c8wv0evh/1muVubVZfDbk2JMxaTvRuEF1m3J6Y0nXSIw90b5Ip2ufmixbkacTDRt4qjxNTisAa6uKde6zLZadf64bQjs2r9TxBn4WYpLXpn+eZ1UJlBh7ojOXb+uLr2Jp78W1Y/NK7di8SpXlPIzkFS1X+vXF1zHH/IxxK97jZMZp73FM4z0OsmH6AY+2rkFPrSQxpT4ZDZ8yHQJAdlECOZQ/FCmX1GM6RyZcWf5Iem3zVr22+Z15n2dCr+t/17/UP8uvMf0PWUjmLjnwVExGgn6fylbkmY6BNPTeGXHdG/rC/IB+Hw5pid9nOoorPUqO61eN7aZjPNNYv0aN9WssOfdsN4T4foVpdbqt7cnrenrHPdPcMzmrVdqv6mfTP8/LdgmUGHuiP37Voy++js37Z0hhfkAfvleumspi9jxxofvDjyeLwCz8WYB173EWLHhdPy39UUrHDj6M659Hklm9vl2c9h7HFN7jwAoevP9RkYyGY6ZDAMguSiAH84cirvrNcWv5ky1ntUoXVfzSE6YAAGTqSuQdy6YBvLgPFrKjVCM6rqtaLXc/Nf69AvpAG9Wtglcek80SqOVKv/ZFopb8naqtKlZNVZFqq4pZvsjh2rsH1XK5n+l4F/myqSal5eX6Bkb1011nbUgEAOYko+HXTGcAkH2UQA7mD0U6JFWbzjGXXC5/Lqr4WfEz09OlAADMR9Dv03cnt1s2BdDePciTwXhBg65rv9y9748kHVOFDmrtnO/PslEC9Q2Mat8forY9CUwh5Dx9A6M6c/m22rsG017+D+alswTrz359jmXVAHhZZzIaXm86BIDse8N0AMzqnhxcAtXptvaqx/VPiabrlvLUolVqV7HuK2A6DgDAw+LJcf3qk3Zdibxjyc3emsoiNdavUVPzjayfG+6SS9M/2XT0fEz7IlFbrjWtreuu2rruareuqWxFnmoqJwsh9kmx1/3hx2rvvqszl/spBVyureuu7g8/TumBix2bV2ofv98AvOue6QAArEEJ5GwxSe+bDvFDdbqtBl3Xj5U7T7l9r4DaVayjqqD4AQDYqvfOiPZFOi3bxLixfo36BkZZuiiH5dr0TzYkxp7ol43txvcB6L0zot47I2pqvqGg36dQRYGqKpaprCTPsqUkc1nfwKi6Yg8ofjyovfuu9m4tn/O4mspi24tfALBRzHQAANagBHK2mOkAz8u18ichn9pVrBatsu1pUgAAZnLmcr/KVuSldIMqEycaN2gonOCmZo5h+iczfQOj+lVju+OW/Yonx59NCU2rqihQWclSVVUUqDA/wLRQBtq7B9XV84Cl3jzui69iKf2MXZ6/WLVVxTw4AcCrYqYDALAGewI5nD8UMf4blGvlD/v8AACc6krkHcue7u8bGNWm8AVLNrWH8+xVjxp0XQG5+/d7vtM/6e4J1HKlX/siUVf/PZkshBarbEWeykrytDw/YNm+Y27UHXuoaM8DdcUeGp/0gr2+O7k9paK05Uq/djddsyERANgrGQ2/ZjoDAGtQAjmcPxSJSfqJiWvnUvnzvQI6qgr2+QEAOFrQ79N3J7dbdsO2O/ZQm8IXLDk3nGG5Ejqmq6qUu29uZ2v6J50SyOs3fstW5Cno96lqqmgOVRQ8+7oVe5KZlhh7Mrmc3sDI1H+PMg2Z43ZsXpnS0quJsSf6N5uP25AIAGx1MxkNl5sOAcAalEAO5w9FTsnmfYFypfyZXu7tqCrUpzzTcQAASEnZijxdibxj2U1ZExvdwx5M/7ws1RLot3+I6ouvY/O+npsF/T6VrZh8z1yYv1jL8ycfnFqy2KeykhffS5vaj6g79vClr0Wfm+bpGxjVo+S4eu+MuHqaC9YI+n16eGl3Ssd+cPCazlzutzgRANjqdDIa3mk6BABrsCeQ88VkUwmUK+XP9HJvLVplOgoAAGnrvTOifZHOlJ5WzsTereXqvTPCzS0PYfpnfrjZOymeHH+2PFpXhud4vkjKBOUNrBRPjqvlSr/qNq2c89iaqmK+LwDwmpjpAACsQwnkfDGrL5AL5Q/LvQEAvOTM5X6VrchLaRPrTBwOV7M0kkcw/TM/FEDZ9XyRBDhRe9dgaiVQZZGCfh+lJAAviZkOAMA6LAfnAv5QxJLfJK+XP9PLvbVole1PjAIAYIcvm2pUU1lkybnvDz/WT3ed5QaXSzH9k5rZloPz+h5AAGZ2+6v6lPbeoyQG4CXJaPg10xkAWOd10wGQkpvZPFmdbuuWTuqornqyALqlPO3VRq3WLu0xsGQIAAB22d10TX0Do5ace3n+Yl2JvGPJuWGtverRt2pxfQF0TBVapzoj7+UogIDc1d59N6XjaqqKLU4CALbJ6n1HAM5DCeQOsWycxMvlT0I+HVOFSrVL61SnFq2yfbkQAPCKwvyAqioKVFVRoKCf76VOFk+Oa/fBa0qMPbHk/KUlS3Wi0Zq9h5B9y5XQRZ3XQXW6evm37xXQFm3VflUbeT/XNzCqfZGo7dcF4AypTvfUVBapMJ+lxgF4Qsx0AADWYk8gd4hJej/TF3t52beLKtbFqSXfAADzU7YiT4c/CqmyfNkLX2+50q+mkzc0NOy9nyNe0HtnRL9sbNflz39hyfnrNq1UV88DlrxxuBrd1TFddXX5I5nb+2daYuyJNoUvsAwikMN674yob2BUpSVL5zy2pqpIX3wdsz4UAFgrZjoAAGsxCeQOHZm8yKuTP98roENaq1Lt0nbVUgABQBbs2LxSf/nTtpcKIGmyBPiuebvKVuQZSIZUdPU80G//YN3kwvGGDfz+O1RQ4zqrNrWozdUFkOnpn2m/bGynAAKgM5dvp3Tcjs18FgXgCR2mAwCwFiWQCySj4Vg6x3u1/LmoYtWpVqu1Swe1VvfF6D0AZENhfkCHw9WzHhNYtFAnGlgWzMm++DqmlivWTetcibzD8oAOU6O7uqWT2qLU9q9wKpN7/zzv6PmYunrcvY8SgOxo7xpM6bjSkqUsCQfA9dK97wjAfSiB3KNzrgMq9cBz5c8Pp37axeabAJBtH75XrsCihXMeV1qyVLVsguxou5uuqW9g1JJzBxYtpAhyCKZ/so99gAA8b2g4ofbu1Iqgmqoii9MAgKXmvN8IwP0ogdwj9qpfqNQDXdR5XdR5z5Q/TP0AgH3KSlJf5iuV9fFh1qbwBSXGnlhy7tKSpTocDllybqSG6R9r7D54zXQEAA7T3pXa91mWhAPgcjHTAQBYjxLIPTp++IXny59KuX/pCqZ+AACYv3hy3NIiqG7TSn34brkl58arMf1jnaPnY+q9M2I6BgCHaWNJOAC5ocN0AADWowRyj9j0//Ba+dOtAu3VRqZ+AADIkt47I9oXsW5lh99/FFJVhTMmOHIB0z/WSYw90Wcnb5iOAcCB4slxloQDkAtipgMAsB4lkEsko+F7/0f9v/7qlfInIZ+OqUKl2qUt2qoWMUIPAKb0DqT+BLxV+80g+85c7ldTs3U3t/9jUw1PPlssqHEd01VPTP/UqdZR0z/T/vhVj+JJ9/67BWCtlsv9KR3HknAAXGooGQ3fMx0CgPVee/r0qekMmMNEqOhNSQckvW82yfzdUp6OqoLSBwAcpDA/oO+atyuwaOGsx/UNjOqnu87alArZcqJxg+o2rbTk3H0Do9oUvsBNdAtU6oGO66rr93u8qGLt0UbHlT8AkKp/vvzBnO+RJOnfvXdKQ8Pu/p4NIOd8k4yG3zYdAoD1mARysIlQ0ZsToaJTkv5JLi+AzmqVKlWndaqjAAIAhxkaTsy5dFhi7Akbp7vUvkjUsgmu0pKlOhwOWXLuXBXUuA6pUxd13tUFUEI+1alW21VLAQTA1dq6UluKkyXhALhQh+kAAOxBCeRAXil/vldADarWcu3RHm1Un/JMRwIAvMKZy/362a/PqTv28KVfa7nSr5XvNrNxukvFk+PaFL6gxNgTS85ft2mlGuvXWHLuXFOpB/pWLdqjHtNR5uWiirVau9SuYtNRAGDe2rtS2xeIJeEAuFDMdAAA9mA5OAeZCBUtkfTx1H+CJrPMR7cKdEwVfPAHAJcqzA9o+Y8m93rpvTPCUl8eUbYiT1ci76S0pE0mtn1yMeWnpfGioMbVoOuuL38S8mmPNvIeEIDnsCQcAC9KRsOvmc4AwB5vmA4Ab5Q/CfnUolU6qgrdF5tEA4CbDQ0nuIHhQb13RrQv0qnjDRssOf+Jxg0aCieYGEsTe/8AgPO1dd1NaX+9qoplGrrs7u/nAHLG7OuBA/AUloMzbCJU9LGke5J+JxcWQN8roL3aqNXapf2qpgACAMDBzlzuV1PzDUvOHVi0UCcaNijopwRIBXv/AIB7pLokXE0Vk5AAXCNmOgAA+zAJZMhEqGinpAOSCs0mycxFFeuoKtStAtNRAABAGpqab6jwR4GUnmhOV2nJUp1o3KBfNbZn/dxeUqoRHddVrZa7p6aY/gGQK9q67iox9mTOJeFqKosU9PtYSheAG3SYDgDAPkwC2WwiVPT2RKjonqRmuawASsins1qlUu3SdtVSAAEA4FL7IlH1DYxacu6ayiI11q+x5Nxe0KDr6laLqwsgpn8A5KJU972rrSqyOAkAZEWH6QAA7EMJZJOJUNH6iVBRh6R/lMvKn+8VUIOqtVq7tEcbWfINAACXiyfHtSl8QYmxJ5acv7F+jWpZEucFpRrRt2rRfl03HWVeLqpYq7VL7eL3F0BuYUk4AB5yMxkNPzIdAoB9KIEsNhEqKp8qf/4sqdpwnLR0q0B1qtVq7dJRVfCkJwAAHmJ1EXSicYPKVuRZcm638cr0T4Oqmf4BkLOml4SbS6iCFTMAOF7MdAAA9qIEsshEqOjNiVDRKUk9cln5c1arVKk6bdFWnvIEAMDDeu+MaF+k05JzBxYt1ImGDQr6c7cw8Mr0T7cKtE51OqoK01EAwKhUloQLLFrINCwAp+swHQCAvSiBsmwiVLRkqvz5J0nvG46TsoR8OqS1Kp1a8q1PPLkLAEAuOHO5X03NNyw5d2nJUv3HphpLzu10Xpr+2aKtLAcMAEpnSTj2BQLgaB2mAwCw12tPnz41ncETJkJFSyR9PPWfoMks6fheAR3UWrWrmKU9AADIYScaN6hu00pLzn30fEz7IlFLzu00y5XQObW5uvyRJqd/2AsSAF72z5c/UGDRwlmPSYw90b/ZfNymRACQlqFkNPym6RAA7MUkUBZMhIo+lnRP0u/kkgLo+f1+WrSKAggAgBy3u+ma+gZGLTn33q3l2rHZmoLJSfaqR98y/QMAnpbqknDsiwfAoTpMBwBgP0qgeZgIFe2cCBXdk/Qf5JLyh/1+AADAq2wKX9D94ceWnPtwuNqzN8SWK6GLOq+D6lRA46bjZIy9fwBgbl09D1I6LhcefgDgSh2mAwCwHyVQBiZCResnQkUdkpolFRqOM6eEfDqmCvb7AQAAs4onx/WrT9qVGHuS9XMHFi3Ul5/VKOj31vTx9PRPpVK7KehUTP8AQGraUtwXqKq8wOIkAJCRDtMBANiPPYHSMBEqelPSKUnVZpOk5nsF1KJVOqoKlnsDAAApq60q1rnPtlhy7u7YQ20KX7Dk3HZaroSO6arry59bytMHPCQEAGn5sqlGNZVFcx737947paHhhA2JACAl8WQ0vMR0CAD2YxIoBROhoiUToaJTkv5JLiiAvldAe7VRq7VLB7WWAggAAKSlreuufvuHqCXnrixfpsPhkCXntotXpn8Oaa3WqY4CCADS1J7CvkCSVFM1d1EEADbqMB0AgBmUQLOYKn8OSLon6X2jYVLQrQJt0Vat1i61aJXpOAAAwMW++Dqmliv9lpx779Zy1Va5b2/CoMY9sffPLeWpUnU6qLWmowCAK3X1PEzpuKoKloQD4CgdpgMAMIMS6BUmQkU7NVn+/E5S0GiYOZzVKm3RVm3RVnWLN5kAACA7djddU9/AqCXnPtG4QWUr3DOBUqO7uqWTTP8AADQ0nEjp52MqS8YBgI1aTQcAYAYl0A9MhIrWT4SK7klqlsPLH0mnK7Tz4R5tpPwBAACW2BS+oPvDj7N+3sCihTrRsEFBv7OXrQ1qXGfVpha1Mf0DAHjmzOXbKR3nxslXAJ40lIyG75kOAcAMSqApE6Gi8olQUYekP0sqNBxnNnFJn0r6twuigzsHteQ/mw4EAAC8K54c168+aVdi7EnWz11aslQnGjdk/bzZMj39s0Wp7f3gVMdUwfQPAGRZVyy1JeHYFwiAQ3SYDgDAnJwvgSZCRW9OhIpOSeqRVG04zmymy583F0QHDyyIDt6b+nqHsUQAACAn9N4Z0e6ma5acu6aySIfDIUvOnSmvTP98r4C2aKv2O/otLgC4U++dkZQmZavKWbUDgCN0mA4AwJycLYEmQkVLJkJFByTFJL1vNMzshiTV62/lz6Mf/HqH7YkAAEDOaeu6q9/+IWrJufduLdeOzSstOXe6vDb9w5LBAGCd9u65f1Ysz1/sqj3wAHhWh+kAAMzJyRJoIlS0U5Plz+/k3H1/hiTVL4gOvrkgOnhqhvJHkjS1nueQncEAAEBu+uLrmFqu9Fty7sPhaqM3yYIa1zFd9dT0T1zO3m8JANyuqye1JeGqypdZnAQAZsV+QECOy6kSaCJUtH4iVBST1Czn7vtzU8+VPym+psO6OAAAAH+zLxJV38Bo1s8bWLRQVyLvKOi3v7io1AN9qxZtV2qbfDsV0z8AYK+2rtSmRqsq+L4MwKgO0wEAmJUTJdDUvj+tkv4s6SeG47xKp6SfL4gOlqdR/kxrzX4cAACAl8WT49oUvqDE2JOsn9vuIiiocR1Spy7qvH6shC3XtEJCPtWplukfADCgvXtwzmNqKotsSAIAr9RqOgAAszxdAk3t+3NE0j9J+jvDcV5luvxZvyA62JHhOTJ9HQAAQNqmiyArlJYs1eFwyJJzP296+mePeiy/lpUuqlirtUvtKjYdBQByUnuK00C1VXyfBmBMh+kAAMzybAk0ESr6WNI9Sb8xm+SVslH+SJKS0fAjTS4jBwAAYIveOyP64OA1S85dt2mlGuvXWHJur03/bFct0z8AYFDK+wJVsC8QACNuTt03BJDD3jAdINsmQkXrJZ2Sc/f8OS3pyILoYCzL5+2Qc5e6AwAAHnTmcr+qKgpUt2ll1s/dWL9G94cTOnO5P2vnLNWIzqnN1eWPNDn9s0cbKX8AwAGGhhPqGxhVacnSWY+rKmdfIABGdJgOAMA8z0wCTe3706HJfX+cWACdlvRvF0QHd1pQAEms7wkAAAzY3XRNfQOjlpz7eMMGla3Iy8q5GnRd3WpxdQHE9A8AOFNX7MGcx5SWLFVhfsCGNO5VmB9QVUWBqioKbNsfEMgBraYDADDvtadPn5rOMC8ToaIlkj6W9DuzSV7ptKQDC6KD96y+kD8UcfdvJgAAcKXC/IC+a96uwKKFWT93YuyJNoUvqPfOSEavL9WIjuuqViuz1ztFtwq0Rxt1X9xABACnqaoo0OXPfzHncR8cvJbVCVevKFuRp8MfhVRZ/uKSeS1X+tV08oaGht37AAdgWjIafs10BgDmuXoSaCJUtFOT+/44sQB6fvLnnk3X/Mam6wAAADwzNJzQLxvbLTl3YNFCfflZTUZPBE9P/7i5AErIpwZVa4u2UgABgEN19cw9CSRNlkV40Y7NK/WXP217qQCSJvcI/K55e9amgoEcxH1CAJJcWgJNhIrWT4SKYpKaJQUNx/khE+XPtA6brwcAACBp8gZYU/MNS869PH+xrkTeSbkIKtWIvlWL9uu6JXns0q0CrVOdjqrCdBQAwBzauwfnPKa2qtiGJO5RmB/Q4XD1rMcEFi3UiYYNNiUCPKfDdAAAzuCqEmhq359Tmtz35yeG4/yQyfJnWoeh6wIAAKip+Ya6Yw8tOXdpyVL9x6aaOY/zwvSPJKZ/AMBlUpkGCixayFTLcz58rzylpWRLS5ZSoAGZ6TAdAIAzuKYEmggVHZAUk/S+0SAvc0L5I0lKRsMxSUMmMwAAgNz2y8Z2JcaeWHLuyvJlOtE489PAy5XQRZ13/fTPLeWpkukfAHCdrhQfgqiaYdmzXFVWknohVlqy1MIkgCcNTd0nBADnl0AToaK3J0JF9zS574+Tln5zTPnzAx2mAwAAgNwVT45btj+QNLk/wA+LoL3q0bdqUaVS25PBqQ5prdapTn3iKXEAcJveOyO6P/x4zuPYFwiATTpMBwDgHI4tgaaWfuuQ9I+SCg3HeZ5Ty59praYDAACA3NbV80BHz8csO3/dppXasXnls+mfg+pUQOOWXc9q09M/B7XWdBQAwDx0xeZ+GCFECQSbsQRhzmo1HQCAcziuBJoIFS2ZCBUdkfRPkmbfIdBeTi9/pnWYDgAAAPDZyRspPRGdqSPhSv3F//90/fTPMVUw/QMAHsG+QOnpHUh9/76+gVELk3hbTWWR6Qgwo8N0AADO4agSaCJUtFPSPUm/MZvkBW4pfyRJyWj4kaRO0zkAAEBuiyfHtfvgNUvOPdrdrf/h3Z9qcdK9N4S+V0BbtFX7HfXMEwBgPrp62BcoHV98FUtpH8G+gVG1dd21IRHgGZ1T9wcBQJJDSqCJUFH51NJvzXLOvj+uKn9+oNV0AAAAgGwvC/ffxv67xg426l83/t+kZCJr57Xb9PRPt1gSCAC8ZGg4wb5AaRgaTmhfZPZnWBNjTyx7qCRXMHmWk1pNBwDgLEZLoOeWfuuRc5Z+65R7y59pHaYDAAAASNlbFu5/j/XKV/9/0b+4/GUWUpnx/PRPXD7TcQAAFmBfoPScudyvn/36nLpjL09RtVzp18p3m9V7J/Vl4/CyshJKoBzUYToAAGd57enTp0YuPLX02xE5Z/KnU9KBBdHBDtNBssEfityTVGg6BwAAQNmKPP3lT9syeu1/G/vv0skj8n39v2Q5lb0uqlh7tJHyBwA8rraqWOc+2zLncT/79TnKjR8ozA9o+Y8CkqTeOyOKJ8cNJ/KGZDQsfyhiOgbsM5SMht80HQKAs9g+CeTApd86Jf18QXRwvVcKoCkdpgMAAABIkzdymppvpP266ekfNxdACflUp1ptVy0FEADkgGjP3JNAEvsCzWRoOKGungfq6nlAAZRlLEGYUzpMBwDgPLaVQA5c+s2r5c+0VtMBAAAApjU131DfwGhKx/63sf+u//aHg1oSflsaTu1mmhNdVLFWa5faVWw6CgDAJvHkeEo/77gpD8AiraYDAHAeW0qgqaXf7kn6jR3Xm8OQpHoPlz+SpGQ03Go6AwAAwPNS2dh5dOCe/kX4XddP/+zVRqZ/ACBHsS8QnKYwf7HpCLAJ9wMBzMTSEmgiVPSmg5Z+my5/3lwQHTxlOItdvjEdAAAAYNpcy8I9aj6uf73r/6ynd27bmCq7ulWgdapTi1aZjgIAMCSVvX4CixaqbEWeDWmQy6YnzpbnBwwngU24DwhgRpaUQFNLvx2Q9E8yv/RbXLlX/kxrNR0AAADgeTMtCzc6cE//v1/XaHHzYUOp5i8hnxpUrS3aqvviRgsA5LKunocpHVdWstTiJAByTKvpAACcKesl0ESo6G1JMUm/y/a50xSX9KmkXCx/pnWYDgAAAPBDzy8L54Xpn1vK0zrV6agqTEcBADjA0HBC94cfz3kc+wLBLkyd5YwO0wEAOFPWSqCppd9aJf2jpMJsnTcDz5c/BxZEBx8ZzGJUMhq+J+mm6RwAAADP670zov/t4B9dP/0jSYe0VutUx/QPAOAFqewLVFVOCQR7LPGzR2EOuDl1HxAAXvJGNk4ytfTbxzK/789pSR/ncvEzg1ZJPzEdAgAAQJJKNaLjuqrVl0f01HSYebilPH2gjeoTT9YCAF7W1fNAdZtWznrM8vzFCvp9iifHbUqFXDO95GCQEigXtJoOAMC55jUJNBEqWj8RKoppcuk3kwXQaUn/dkF0cCcF0EtaTQcAAACQpAZdV7datFpzb5jtZNPTPxRAAIBX6f3B/nevEmJJOFhouvwpZf+pXNBqOgAA58qoBJoIFS2ZCBUdkfRnmZ0y6ZRUMVX+3DOYw7GS0XBM0pDpHAAAIHeVakTfqkX7dd10lHn5XgFt0VYd1FrTUQAADtd7Z0SJsSdzHldVscyGNAA8bmjq/h8AzCjtEmgiVPS2pHuSfpPtMGnolPTzBdHB9QuigzGDOdyi1XQAAACQm7wy/XNMFVqnOnWLJ7YBAKmJ9sy9L1BZCVOlsEfZCv6seVir6QAAnC3lPYEmQkVvSjolqdqqMCkYknRgQXTwlMEMbtQqs6UdAADIMcuV0DFdVaXmvgHmZAn5tE21lD8AgLT13hlRTWXRrMdUljMJBOssWfy3vYDYF8jTWk0HAOBsKU0CTYSKDkiKyVwBFJdUvyA6+CYFUPqS0XCHJv8dAgAAWG6vevStWlxfAF1UsVZrFwUQACAjXbGHKR1Xxb5AsAiTZjkhPnXfDwBeadZJoIlQUbkmp39M7fsTl3RE0pEF0cFHhjJ4Rauk902HAAAA3uWl6Z892qh2FZuOAgBwsa4UloOTpLKSpSkfC6SiMD+gxl1rXlgC7vLnv1B796Dau+7qzOV+g+mQZa2mAwBwvhlLoIlQ0RJJB2R2CbHTkj6m/MmaVlECAQAAi+xVjxp0XQGNm44yL90q0HbVKi6WTAEAzF/fwKhKS5bOegx7tSBbgn6fPtm1Rnu3ls/46zWVRaqpLFJj/Vr96pN29d5x956NkEQJBCAFrz19+vSFL0yEitZrcvqn0EAeSfpGk+XPPUPX9yx/KPJIUtB0DgAA4B1Bjeus2lw//fPfq95SS/LH+r/3/EvTUQAAHnKicYPqNq2c9Zi+gVH9dNdZmxLBq4J+n65E3pmzdHzetk8uqq3rroWpYLF4MhpeYjoEAOd7tifQRKhoyUSoqFXSn2WmAOqU9PMF0cG3KYAs02E6AAAA8I4a3dUtnXR3AeQP6L82/a/yf/ZH7f78t9qxefYbdQAApCOVSYvSkqUK+plAxfwcDofSKoCkyZKyMD9gUSLYoMN0AADu8LokTYSK3pZ0T9LfGcgwJOnvF0QH1y+IDnYYuH4uaTUdAAAAuN/09E+L2ly9/NtrFWuVPPmftbSy8tnXjjdsoAgCAGRNV+xhSsexJBzmo6qiYM6Js5kEFi3UicYNFiSCTVpNBwDgDq9PhIo+lvSPsn+ZsLikf1gQHXxzQXSw1eZr56pW0wEAAIC7TU//bJGLlw7xB/Rfwwf1+udnFcx/+YlZiiAAQLakuudKVfkyi5PAyz58tzzj11aWL2MayL1aTQcA4A6vL4gOHpH0ryX9gyancuzwqaQ3p64NmySj4Uea3HMJAAAgLZ6Z/lmxanL6Z+svZz3ueMMGnowFAGRFdwrTQEwCYT5CFQXzen1NVVGWksBG30zd5wOAOb0hSQuig48kHZF0ZCJUtF7STklvK/vTQaclHWDPH6NaZWbZPwAA4FKVeqDjuqofK2E6yrw8rt+nJfUfpPwGd3pZld1N16wLBQDwvN6BEVXOMelTVkIJlIraqmLVbV6pmsoXS4v27kG1XO5XW5eLJ5XnUDVV9Czx+57t/VP4o4AK8wMKLFo4r3P//qOQfv9R6Nk//7C47B0Y0aPHf3sIKJ4cV+/A6IvH3BlRPOneB4VcqNV0AADu8drTp09n/IWJUNESTRZBH0v6yTyv06nJ8qdjnufBPPlDkSWS/qvpHAAAwPmCGleDrmuPekxHmZfXVqzS/7vhj1pa8mZGr2/vHtTupmvc2AAAZGTH5pU63jD3dOmyt07ws+YVgn6fTjRueKn8+SG3/cyerdiRJifE5lvwWOH+8GPdH558OCja80DS34qhrql/huX+NZNAAFL1yhLoeROhonJNTgftVHrTQUOSPmbPH2fxhyKtYhoIAADMwivTP+Pv/k/6Vx81zPs8fQOj2hS+4JqbSgAA5yhbkae//GnbnMdt/s1/4gb6K3x3cvuzkmQufQOj+umusxYnmp+g3/dsCcDC/MVa/oM9ecpW5GmJ3/fC8an+/5+P6QmgR8nxZ/tZ9Q2M6lFyfLLkSXGPK1jum2Q0/LbpEADc441UDloQHYxpciLo44lQ0U5NlkHVs7wkrsnJnyPzSgertIoSCAAAzMAr0z/KL9Cjxj/q/1BelpXTlZYs1ZXIO/pVY7uGht1djAEA7JXqjfOykqWUQDNorF+TVgFSWrJUjfVr1NR8w8JU8xNPjj/7ve7K8ByF+QEt/9FkeXSiYYOW5y/OOM8HB6/pzOX+jF8P27WaDgDAXVKaBJrJRKjoTf1tOqjwuV/6XJMF0KP5RYNVWBIOAADMpFQjOq6rWi13P+U5/u7/JO36WP9q0b/M+rkTY0+0KXyBJ2EBIMfMdy+aVCZZWq70sw/dDwT9Pj28tDuj1+bS8nqHwyHt3Vqe0WsTY0+08t3mnPl35REsBQcgLa9n+sIF0cF7C6KDBxZEB9+U9PeSPpX0bxdEBz+mAHK2qR8U35jOAQAAnKNB19WtFncXQP6A/mvT/6p/9VGDJQWQJAUWLdSVyDuqrSq25PwAAGcJ+n36sqlG5z7bMuN+NDWVRTr32RZ92VSj4HPLd/1Q78DcP1/LSvLmldWLaqtm3wPIqte6zRdfxTJ+7R+/6qEAcpdvKIAApCvjEuh5C6KDrVOF0L1snA+2aDUdAAAAmFeqEX2rFu3XddNR5uW/V72l/+/X32lpZaXl1wosWqhzn23Rjs0rLb8WAMCsK5F3Zix/fqimskhXIu+88tdTmSC1Y88Xt/nhXjl2vdZthoYT+u0fomm/rm9gVF98Hct+IFip1XQAAO6TlRIIrtRqOgAAADDLK9M/8cY/yP/ZH/UvLJr+eZXjDRt0OByy9ZoAAPtkuhfNTHoHRlM6R9kKpoGQmS++juno+VjKx/cNjGpT+AJTQO7TajoAAPehBMpRLAkHAEDuWq6EJ6Z/XqtYq+TJ/6z/cdMWYxn2bi3XicYNxq4PALBG0O97ZaEzm8b6NTMuC5fqXnJlTANhHvZFotr2yUXdH34863FHz8cogNyJpeAAZIQSKLe1mg4AAADstVc9+tbt0z+S/nlzvV7//KyC+eZvltVtWqnvTm6fdS8IAIC7ZHsvmnhyXImxJ3O+NpeWMEvF/eGEkde6WVvXXa16r1nbPrmo9u7BZ1/vjj3Ub/8Q1b9775T2RaIUQO7UajoAAHeiBMptrZLipkMAAADrLVdCF3VeB9WpgNz9of+YKrSxK5jSzTS7lJYs1ZXIOyzjAwAeYcVeNKlMA4UqCjK+rhe1dQ3OfZAFr/WCtq67L+z3E+15oC++jmkoR8sxD4iLEghAhiiBctjUCGmr4RgAAMBi09M/lXpgOsq8fK+Atmir9qta3yelXza2m470gukiqIobeACAGfQOzF0CMQn0onhyXE3NN9J+XVPzDSZd4DWtLAUHIFOUQGg1HQAAAFgjqHGdVZsnpn8uqljrVKdu/a1g6ep5kNYGyHYILFqoy5//Qjs2rzQdBQDgMEN/nXsCY3n+YhuSuEtT8w31DYymfHzfwGhGxZEX3U/hzxxco9V0AADuRQmU45LRcKtYEg4AAM+p0V3d0klt0V3TUeYlIZ/qVKvtqlVcL++5sy8STevGkF2ON2zQ4XDIdAwAQIas2IumN8WfV0yUvmxT+MIL+9u8Snv3oDaFL9iQyB1Y+s0z4lP37wAgI5RAkHiaAAAAz5ie/mlRm+unf7pVoNXapXYVz3rc7oPXHLU/0LS9W8v1ZVONgv6XyysAgLNZsRdNKnsCSVIh00AviSfH9avGdm375OKMZVB796C2fXJRv2psZxm4V3DiQzNIWavpAADc7Q3TAeAIpyS9bzoEAACYnxrd1TFddX35k5BPB7VWR1WR0vG9d0a0L9Kp4w0bLE6WvprKIl2JvKNfNbbzNC4AuMj0XjSN9WvSet1se9HEk+NKjD1RYNHCWc/BvkCv1tZ1V21d7p5ytlvfwKhKS5bqEeWYm50yHQCAuzEJBCWj4Q5JQ6ZzAACAzAQ1rmO66onpn1vK0zrVpVwATTtzuT+lZWJMKC1Zqu+at6tsRZ7pKACANFixF00q00AhloNDFjEZ5XpDU/ftACBjlECY1mo6AAAASF+lHuhbtWi7bpuOMm+HtFbrVKf7yuwJ6N1N13R/+HGWU2VHYNFC/eVP27Rj80rTUQAAacj2XjSpTIUyCQTgOa2mAwBwP0ogTDtlOgAAAEhdUOM6pE5d1Hn9WO5eZuyW8lSpOh3U2nmdJ54c168+ac9SKmscb9igE43OW7YOADCzbO9FM/TXVEog9gRC9kR7HpiOgPk5ZToAAPdjTyBIkpLRcMwfityU9BPTWQAAwOwq9UDHddX15Y8kHVOFDmqt4vJl5Xy9d0Yy2sPBTnWbVqowP6Bfsnk1ALhGtvaiSXV5ubIVeSktHQekqosyyI1uJqPhmOkQANyPSSA875TpAAAAYHYNuu6J6Z/vFdAWbdV+VWetAJrW1HxD3bGHWT1ntlWWL9N3J9knCAByzaMUy/+gP7s/G5G7eODE1U6ZDgDAGyiB8LxW0wEAAMDMSjWib9Wi/bpuOsq8XVSx1qlO3bJu4+tfNrYrMfbEsvNnw/L8xboSeYd9ggAgh6Q6jVFVvsziJMgVvSlOn8GRWk0HAOANlEB4JhkN35P0jekcAADgRQ26rm61aLXcvSxMQj7VqVbbVZv16Z8fiifH9ctGZ+8PJEmBRQt1vGGDDodDpqMAAGySykMKSxYzCQTkuG+m7tMBwLxRAuGHWk0HAAAAk7w0/dOtAq3WLrWr2LZrdvU8UFPzDduuNx97t5brSuQdlv8BgByQyl4/ZSUsF4rsuP/XhOOnozGjVtMBAHgHJRBekIyGT0mKm84BAECu26seXdJ5T0z/NKhaW7TV8umfmbhhf6Bp7BMEALkhlX2BlucHbEiCXDA0nEipeISjxKfuzwFAVlACYSatpgMAAJCrliuhizqvg+pUQO7eyPeW8vSWtuqoKozmcMP+QNPYJwgAvC+VG/LL8xfbkASAQ7WaDgDAWyiBMJMjpgMAAJCL9qpH36pFlUpt02gnO6S1Wqc69cn8VItb9geaxj5BAOBt8RQmgSQxGYqs6R1gEshljpgOAMBbKIHwkmQ0HJM0ZDoHAAC5Iqhxz0z/fK+AKlWng1prOsoL3LQ/0LS9W8v13cnt7BMEAB7TOzCa0nF8/0e2PHrs7veXOWZo6r4cAGQNJRBe5YjpAAAA5IIa3dUtnfTE9M8xVThm+mcmbtofaFppyVL1f12vqooC01EAADYrK1lqOgI8ostl739y3BHTAQB4DyUQXqXVdAAAALwsqHGdVZta1Ob66Z+EfKpTrfarWnE5+6nlXza26/7wY9Mx0hJYtFCXP/+FPny33HQUAEAWdPWk9uAHk0DIllT/zMERWk0HAOA9lECYUTIavifpG9M5AADwounpny26azrKvF1UsVZrl9pVbDpKSuLJcf3qE/fsD/S8338U0pdNNdwUBIAcUfijgOkIAOz1zdT9OADIKkogzKbVdAAAALwkqHEd01XPTP/s1UZtV63jp39+qPfOiH77h6jpGBmpqSzSlcg7bBYOAC7Xl8K+QIX5lEBAjmk1HQCAN1EC4ZWS0fApSXHTOQAA8IJKPdC3atF23TYdZd66VaB1qlOLVpmOkrEvvo6p5Uq/6RgZKS1ZqiuRd7Rj80rTUQAAGYon534YZDklEJBL4lP34QAg6yiBMJdTpgMAAOBmQY3rkDp1Uef1YyVMx5m3Q1qrLdqq+3L/jal9kWhKT2I7UWDRQh1v2KDD4ZDpKACADDxKqQRabEMSAA5xynQAAN5FCYS5nDIdAAAAt5qe/tmjHtNR5u2W8lSpOh3UWtNRsiaeHNfug9eUGHtiOkrG9m4t13cnt7NkEAC4TO+dkZSOYx84IGccMR0AgHdRAmFWyWg4Jumm6RwAALhNg657ZvrnmCr0lraqT97bh6b3zoh2N10zHWNeSkuW6rvm7aqqKDAdBQCQZewBB+SEm8lo+J7pEAC8ixIIqThiOgAAAG5RqhF9qxbt13XTUebtewW0RVu1X9WKy7tPIrd13VVT8w3TMeYlsGihLn/+CzXWrzEdBQCQgvvD7n9IBEDWHDEdAIC3UQIhFa2S4qZDAADgdA26rm61aLVSW+LFyS6qWOtUp27lxnRJU/MNtXcPmo4xb431a3Ql8g7LBwGAww0NP07puLKSpRYnAWBYXJP33QDAMpRAmFMyGn4kfiABAPBKXpr+ScinOtVqu2o9Pf0zk91N19Q3MGo6xrxVli/Tdye3s4QQAHgApT7gea1T990AwDKUQEjVEdMBAABwor3q0SWd98T0T7cKtE51alex6ShGxJPj2n3wmhJjT0xHmbfl+Yv1lz9t04fvlpuOAgCYwf2/shwcAEncbwNgA0ogpCQZDcck3TSdAwAAp1iuhC7qvA6qUwGNm44zbw2q1hZt1X0FTEcxqvfOiHY3XTMdI2t+/1FIJxo38CQ5ADjMUIp7AoUqcmNZViBH3Zy63wYAlnrDdAC4yhFJzaZDAABg2l71qEHXPVH+3FKePtBG9Ymlw6a1dd3Vb/8Q1e8/CpmOkhV1m1aqrCRPuw9eU+8d90+sAQAAM2qrilW3eaVqKote+Hp796BaLverreuuoWSudcR0AAC5gUkgpKNVkxvWAQCQk4Ia11m1eWb655gqtE51FEAz+OLrmFqu9JuOkTWlJUt1JfKOdmxeaToKgBxUmB9QVUWBqioKmEwEXCjo9+nLphqd+2zLSwWQJNVUFuncZ1v0ZVMNf8dTFxf7bwOwyWtPnz41nQEu4g9FTkl633QOAADsVqO7Oqarnih/vldAH2ijusUSM7MJ+n26EnlHpSVLTUfJqqPnY9oXiZqOASAHlK3I0+GPQqosX/bC11uu9Kvp5I2Ul0Tzqu9Obk/pZ4w/FLEhDfBqqf5ZlaS+gVH9dNdZixN5wulkNLzTdAgAuYFJIKTriOkAAADYaXr6p0VtniiALqpY61RHAZSCeHJcm8IXlBh7YjpKVu3dWq7vTm7nSV0AltqxeaX+8qdtLxVA0uQyld81b1fZityeRI0n3f++At7XWL8mrQdiSkuWqrF+jYWJPOOI6QAAcgclENIytWFdp+kcAADYoVIPdEsntUXuX988IZ/qVKvtqlVc3PxPlVeLoNKSper/ul5VbDgOwAKF+QEdDlfPekxg0UKdaNhgUyIAmQj6fRkVOo31a3jYZHadU/fXAMAWlEDIxCnTAQAAsFJQ4zqkTl3UeU9M/3SrQOtUp3YVm47iSr13RrS76ZrpGFkXWLRQlz//hT58t9x0FAAe8+F75QosWjjncaUlS1Vbxc+mueT6xBTMqa16ef8fO16bA06ZDgAgt1ACIW3JaPiUJjewAwDAcyr1QN+qRXvUYzpKVhzSWm3RVt1XwHQUV2vruqvf/sGb++j8/qOQTjRu4IldAFlTVpJ6aeG1fdeswPdnmLI8P/P3j/N5rcfFp+6rAYBtKIGQqVOmAwAAkE3PT//8WO7fqPqW8lSpOh3UWtNRPOOLr2NqudJvOoYl6jat1JXIOyrkhg0A2Cba88B0BAD2O2U6AIDcQwmETB0xHQAAgGwp1Ygu6bxnpn+OqUJvaav6xPIx2ba76ZrauwdNx7BEaclSNmoHAACw1hHTAQDkHkogZCQZDd+T9I3pHAAAzFeDrqtbLVqtEdNR5i0hn7Zoq/arWnGxdIxVdjddU9/AqOkYlggsWqi//GmbdmxeaToKABfrHUj9Z6pXv59mUxlL5sGQ+8OZT8fP57Ue9s3U/TQAsBUlEObjiOkAAABkqlQj+lYt2q/rpqNkxUUVa7V2qVsFpqN4Xjw5rk3hC7o//Nh0FMscb9igw+GQ6RgAXOqLr2JKjD2Z87i+gVG1dd21IZG7sScQTGnrynz6eT6v9bAjpgMAyE2UQMhYMhrukDRkOgcAAOnaqx5PTf/s1UZtVy3TPzaKJ8f1q0/aU7rJ6VZ7t5brROMGbj4CSNvQcEL7Ip2zHpMYe6LdB6/ZlGj+aquK9WVTjZLR8Av/+bKpRrVVxabjAZaIJ8fV1Hwj7dc1Nd9QPDluQSJXG5q6jwYAtqMEwnwdMR0AAIBULVdCF3VeBzX7jSm3uKU8rVOdWrTKdJSc1HtnRJvCFzxdBNVtWqkrkXcoggCk7czlfv3s1+fUHXv40q+1XOnXyneb1XvH+Q9jBP0+fdlUo3OfbVFNZdFLv15TWaRzn23Rl001fK+EJzU130hr2ca+gdGMiqMccMB0AAC567WnT5+azgAX84ciSyTdkxQ0mwQAgNntVY8adF0BeeOpxENaq4NaazoGNPl0+LnPtpiOYam+gVFtCl/gqV4AGSnMD2j5jwKSJgt0N30v+e7kdpWmuCdP38CofrrrbMrnbqxfo8b6NXMe19R8g5vqOc7036Gg36cTjRtmLEKf1949qN1N11z1d9wmcUlvJqPhR6aDAMhNb5gOAHdLRsOP/KFIq6T3TWcBAGAmQY3rrNpUqQemo2TF9wpom2rVpzzTUTClreuuPjh4TccbNpiOYpnSkqW6EnmHIghARoaGExpy4SbxjfVrUi6ApMnvlY31a7Je2CxZzIRRripbkafDH4VUWb7sha+3XOlX08kbtv29iifH9avGdtVWFatu88qXyqD27kG1XO5nj69Xa6UAAmASk0CYN38o8qakfzKdAwCQHV76cFejuzqmq56Z/jmmCh3UWvb+cagdm1d6ugiSmAgCkDuCfp8eXtqd0WuXvXUipe+TqU4CdccealP4QkZZ4F5zva9IjD3RpvAFVyyrCP3bZDR8z3QIALmLPYEwb1M/yL4xnQMAMD9eWvN+evqnRW2eKIAS8qlOtdqvagogBztzuV9Hz8dMx7BUaclSnWj0dtEFAJJUWzX7sldWvRaQJpd/OxyunvWYwKKFOuHxh0884hsKIACmUQIhW46YDgAAmJ8rkXfmXOdbmiyDrkTesSFRZmp0V7d0Ulvknoml2XSrQKu1S+0qNh0FKdgXiarlSr/pGJaqqSxK6cl1AHCz5fkBI68FJOnD98oVWLRwzuNKS5aqtor3iA53xHQAAKAEQlYko+EOSUOmcwAAMpPpmvdOEtS4DqnTU9M/DarWFm1l+sdldjdd83wR1Fi/RmUr2JcKAAArlJWk/jM2nffwsN3Q1P0yADCKEgjZdMB0AABA+oJ+X0aFTmP9GscsC1epB/pWLdqjHtNRsuKW8vSWtuqoKkxHQYZyoQg6/FHIdAQAAAAnO2A6AABIlEDIrlZJcdMhAADpcfOa99PTPxd1Xj9WwmiWbDmmCq1TnfrElIXbeb0IqixfpqqKAtMxAMAS94czf18xn9cC8Ix4Mho+ZToEAEiUQMiiZDT8SKx1CgCu49Y170s1oks675npn+8V0BZt1X7Nvgkw3MXrRdAnDlsWEgCypa1r0MhrAUnqHRhJ+di+gVELk2AejpgOAADTKIGQbadMBwAAeF+DrqtbLVqt1D8gO9lFFWud6tQtpiq8yMtFUGX5MvYGAuBJ8eS4mppvpP26puYbiifdvzchzPriq5gSY0/mPK5vYFRtXXdtSIQMnDIdAACmUQIhq5LR8D1Jp03nAAB4U6lG9K1atF/XTUfJioR82quN2q5axeWM/ZVgDS8XQR++W246AgBYoqn5RlpTFn0DoxkVR8APDQ0ntC/SOesxibEn2n3wmk2JkKbTU/fHAMARKIFghQOmAwAAUueWNe/3qsdT0z+3lKd1qlOLVpmOApt4tQiqrSo2HQEALLMpfEHt3XMv79bePahN4Qs2JEKuOHO5Xz/79Tl1xx6+9GstV/q18t1m9d7xxvtiDzpgOgAAPO8N0wHgPclo+J4/FOmU2NQAANygrWtQxxsyf63VliuhY7qqSj2w/Fp2OaS1Oqi1pmPAgN1Nk0/s1m1aaThJ9gQWLVTZijxuRAHwpHhyXL9qbFdtVbHqNq9UTWXRC7/e3j2olsv9LMkFS/TeGdGm8AUV5ge0/EeBZ19jyUFH62QKCIDTUALBKgck/dl0CADA3KbXvG9Mc4N3O9a836seNei6AvLGB93vFdA21apP7KGSy3Y3XVPvnRH9/qOQ6ShZU1aylBIIgKe1dd2l6IExQ8MJDdk4gY95OWA6AAD8EMvBwRLJaLhD0pDpHACA1DhtzfugxnVR53VQnZ4pgM5qldapjgIIkqQvvo7pAw+t4788P2A6AgC4TuGP+N4JeMzQ1P0wAHAUSiBY6YDpAACA1Dllzfsa3dUtnfTM8m8J+VSnWu3RRsXlMx0HDnLmcr+2fXJRibEnpqPMW6iiwHQEAHCdQgp0wGsOmA4AADOhBIJlktHwKTENBACuMb3m/bZPLs5YBrV3D2rbJxf1q8Z2S5aBC2pcZ9WmFrV5ZvqnWwVapzq1q9h0FDhUW9ddbQpf8EQRBAAAkMOGpu6DAYDjsCcQrHZE0n8wHQIAkDoTa95X6oHOeaj8kaRDWquDWms6Blyg986Iflp/Vl821ai0ZKnpOAAAAEjfEdMBAOBVmASC1U5JipsOAQBwpqDGdUiduqjznimAvldAlaqjAEJahoYTKS/JCADwhqCfZWIBj4hr8v4XADgSJRAslYyGH4mnIQAAM6jUA32rFu1Rj+koWXNMFVqnOvUpz3QUuND0koxNzTdMR0lb78CI6QgA4DpMfwKecWTq/hcAOBIlEOxwxHQAAICzNOi6Luq8fqyE6ShZkZBPdarVflUrLp7qxfw0Nd/Qtk8uumqfoEePvTHJBwBONDTsjfdLgIcdMR0AAGZDCQTLTT0Ncdp0DgCAeaUa0bdq0X5dNx0la7pVoNXapXYVm44CD2nruquf1p9V38Co6Sgp6Yo9NB0BADxr6K+UQICDnWYKCIDTUQLBLgdMBwAAmNWg6+pWi1bLO8tGNahaW7SV6R9YYmg4oZ/uOuv45eESY0/U1fPAdAwAcJWqigLTEQBkxwHTAQBgLpRAsEUyGr4npoEAICctV0IXdd5T0z+3lKdK1emoKkxHQQ5oar6hzb/5T7o//Nh0lBmduXzbdAQAAAATTk/d7wIAR6MEgp0OmA4AALDXXvXoW7WoUt6ZEjimCr2lrepTnukoyCFdPQ8cOxX0xVcx0xEAwHWW+JkiBjzggOkAAJAKSiDYZurpiG9M5wAAWC+ocV3UeR1UpwLyxobxCflUp1rtVzXLv8GIeHJcTc039LNfn1O3Q/bgaWq+wYblAJCB0pKlKR8bT3rjvRTgMd8wBQTALSiBYLcjpgMAAKxVo7u6pZOemv7pVoFWa5faVWw6CqDeOyPaFL6gbZ9cNLpEXN/AqL74Ombs+gCQK3oHRk1HAPCyI6YDAECqKIFgq2Q03CGp03QOAED2BTWus2pTi9o8M/0jSQ2q1hZtZfoHjtPWdVer3mvWBwev2V4GJcae6FeN7TydDgAZClUUmI4AIHOdU/e3AMAVKIFgwgHTAQAA2VWpB7qlk9qiu6ajZM0t5alSdTqqCtNRgFmdudyvVe81a9snF21ZJq5vYFSbwhdYBg4AAOSqA6YDAEA6Xnv69KnpDMhB/lCkQ1K16RwAgPkJalwNuq496jEdJauOqUIHtZbpH7hSYX5AH75Xrh2bVymwaGFWz330fEyfnbzBBBAAzFMyGk752GVvneD7LuAcncloeL3pEACQDkogGOEPRdZL+rPpHACAzFXqgY7rqn4s70wDJOTTHm1k7x94Rm1VsaoqlqmmsljL8xdnfJ727kF98XVMXT3e2esLAExKpwTyhyIWJgGQpp+zFBwAt6EEgjFMAwGAezXouvbruukYWdWtAm1XLdM/8KzC/ICqKpapbEWeykryVLYi75WTQn0DoxoaTqi96666eh6y9BsAZFFVRYEuf/6LlI+nBAIcgykgAK70hukAyGkHxDQQALhKqUZ0XFe1WiOmo2TVIa3VQa01HQOw1NBwQkOXE9LlftNRACCnLfGn/sCJHXu9AUjZAdMBACATr5sOgNw1NT7baToHACA1DbqubrV4qgD6XgFVqo4CCAAA2Ka0ZKnpCADS18kycADcikkgmHZELAkHAI62XAkd01VVylt7gZzVKu1XNcu/AQAAWxX+KJDysY+S4xYmAZCGI6YDAECmKIFgVDIabvWHIkOSCk1nAbKlbEWeaiqLXvhae/egeu94Z3oCuWOvetSg6wrIOzcgEvJpjzaqXcWmowAAgBxUmJ96CcRnCMARhpLRcKvpEACQKUogOMEBSc2mQwDzVbYiTycaNsy4vENj/Rr1DYxq98FrfJCDKwQ1rrNq89z0T7cKtEcbdV+p33wBAADIpsryZSkfG2cSCHCCA6YDAMB8sCcQjEtGw6ckDZnOAczHjs0r9Zc/bZt1fe/SkqX6y5+2acfmlTYmA9JXo7u6pZOeK4AOaa22aCsFEAAAMCadKSBJ6h0YtSgJgBQNTd23AgDXogSCU+w0HQDIVNmKPB1v2JDy8ccbNqhsRZ6FiYDMBDWuY7qqFrV5avm37xXQFm3VQa01HQUAAOQ4PgcArrPTdAAAmC9KIDhCMhrukNRpOgeQiRNpFEDzeQ1gpVKN6Fu1aLtum46SVRdVrHWqU7cKTEcBAACYdeWAmXT1eGsyG3CZzqn7VQDgapRAcJIDpgMA6SpbkZf2Bzlp8sMfTwHCKRp0Xd1q0Y+VMB0laxLyaa82artqFZfPdBwAAABJ6U0CJcaeWJgEQAoOmA4AANlACQTHYBoIblRTWWTktUA2BDWuizqv/bpuOkpW3VKe1qlOLVplOgoAAMALykpSL4F674xYmATAHJgCAuAZlEBwmgOmAwBALqjUA93SSVXKW0uMHFOF1qlO95XepssAAABWK8wPaHn+4pSPHxr2zpQ24EIHTAcAgGyhBIKjMA0EANY7pE5d1HkFNG46StYk5NMWbdV+VZuOAgAAMKN0l4Me+islEGAIU0AAPOUN0wGAGRyQ9GfTIQDAa5YroXNq02p5a2mRbhWw9w8AAHC8dPcS7Yo9tCgJgDkcMB0AALKJSSA4DtNAcJP27kEjrwXSVaO7+lYtniuAGlStLdpKAQQAABwvVFGQ1vH3mQQCTGAKCIDnMAkEpzogpoEcJ+j3acfmlaqqKNASv0+PkuPq6nmgM5f7FU96Z1mpdPTeGVHfwGjaT/X1DYyy0Stsc0id2qMe0zGy6nsFtE216lN6y6oAAACYUlm+LK3j2RMIMOKA6QAAkG2vPX361HQGYEb+UKRV0t+ZzoFJZSvydCXyjgKLFr70a4mxJ9oUvpCzpUbZijz95U/b0nrNz359Lmf/fcE+QY3rks57bvrnrFZpv6qZ/gEAAK5RVVGgy5//IuXju2MPtSl8wcJEAGbwTTIaftt0CADINpaDg5N9bDoAJs1WAElSYNFCXYm8k/ZGp17Re2dEHxy8lvLxHxy8RgEEy1XqgW7ppKcKoIR82quN2qONFEAAAMBVqpgCAtzgY9MBAMAKlEBwrGQ0fE/SadM5IB3+KPTKAmhaYNFCHf4oZFMi5zlzuV8/+/U59Q2MvvKYvoFR/ezX53Tmcr+NyZCLGnRdF3VeAXlnmcZbytM61alFq0xHAQAASFu6+wHx0Bhgu9NT96EAwHPYEwhOd0DS+6ZD5LKg35fy2tWV5csU9Ptyen+gn+46q7IVeaqpLHrh19q7B/kgB8sFNa5juqotums6SlYdU4X2q9p0DAAAgIyk85lqWu8sD5cBsMQB0wEAwCqUQHC0ZDR8zx+KfC7pN6az5Kp0l3grW5Gnrp4HFqVxh947IxQ+sF2pRnRObfqxvLN0SEI+bVOtupXek7MAAABOku4UkKSc/0wF2OxzpoAAeBnLwcENDkiKmw4BAE5Vp9vqVounCqBuFWi1dlEAAQAA16uqSG8KaLYlpgFkXVxMAQHwOEogOF4yGn4k6YjhGDkr3YkWJmAAex3TVR3VVdMxsqpB1dqirYrLZzoKAADAvNVUFqd1fFeMKSDARkem7jsBgGdRAsEtjohpICPiyXF1xx6mdGx37GHO7gcE2G25EvpWLdqu26ajZM33CqhSdTqqCtNRAAAAsqJsRZ6W5y9O6zU8WAfYJi4eOgaQAyiB4ApTT2UcMBwjZ+37Q1SJsSezHpMYe6J9f4jalAjIbZV6oG/VotXyzg2CiyrWOtWpT+ntQwYAAOBkVeXpLQUnSV09qT2EB2DeDjAFBCAXUALBNZLR8BFJQ6Zz5KLeOyPaFL7wyiIoMfZEm8IXeGINsMFe9eiizisgb0zdJeTTXm3UdtWy/BsAAPCcHZtXpXX8/eHHGhr2zj6PgIMNTd1nAgDPe8N0ACBNByQ1mw6Ri3rvjGjlu83asXmlqioKtMTv06PkuLp6HujM5X6WgQMsFtS4DqnTU8u/3VKePtBGpn8AAIAnFeYHVFqyNK3XsB/Q3ArzA/rwvXKVlfztPWTvwIi++CpGgYZ0HDAdAADs8trTp09NZwDS4g9FOiRVm84BAHZZroTOqc1Ty78dU4X2860cAAB42Ifvluv3H4XSes0HB6/pzOV+ixK5347NK3U4XK3AooUv/Vpi7In2RTr594dUdCaj4fWmQwCAXVgODm50wHQAALCL1/b/ScinOtVSAAEAAM9Ldyk4if2AZlNVUaDjDRtmLIAkKbBooY43bFDZCqbMMacDpgMAgJ0ogeA6yWi4Q1Kn6RwAYDWv7f9zS3lapzq1q9h0FAAAAEtlshQc+wHN7pP6NSkddzjN6SvknM6p+0oAkDMogeBWO00HAACrBDWuY7qqgx7quw9prdapTvcVMB0FAADAcnWbV6b9mvbuuxYk8YbC/IAqy5eldGxl+TIV5vOeE6+003QAALAbJRBcKRkN35N02nQOAMi25Uroks5ru26bjpIVCfm0RVt1UGtNRwEAALANS8Fl1/IfpVfqpHs8csbpqftJAJBTKIHgZh9LipsOAQDZ4rX9f7pVoNXapW4VmI4CAABgm6qKAi3PX5z269q6mAQCLBTX5H0kAMg5lEBwrWQ0/EjSEcMxACAr6nTbU/v/HNJabdFWxeUzHQUAABhUmB9QVUWBqioKFPTnxvuCHRktBTdoQRLv6L2T3kNS6R6PnHBk6j4SAOScN0wHAOYjGQ0f8IciOyUVms4CAJk6pqueWf7tewX0gTYy/QMAQI4rW5Gnwx+FXtrHpeVKv5pO3tDQcMJQMmsF/T7VbcqgBGIKaFbx5LharvSn9O+25Uq/4klvPFiFrBlKRsMHTIcAAFOYBIIXHDAdAAAyEdS4vlWLZwqgiyrWOtVRAAEAkON2bF6pv/xp20sFkCTVbVqp75q3q2xFnoFk1vvw3fKMXtfWxSTQXPZFokqMPZn1mMTYE+2LRG1KBBc5YDoAAJhECQTXS0bDpyR1ms4BAOko1Yhu6aRn9v9pULW2q5bl3wAAyHGF+QEdDlfPekxg0UKdaNhgUyJ77di8Ku3XtHcPMrmSgnhyXJvCF9Q3MDrjr/cNjGpT+EJK/y6rKnhoKYd0Tt03AoCcxXJw8IoDkv5sOgQApKJOt3VInZ7Y/+d7BbRNteqTN5/mBQAA6fnwvXIFFi2c87jSkqWqrSpWm4eWQduxeaWW5y9O+3UsBZe63jsj+umus6qtKlZpydJnX+8bGE3rz1JV+TJ19TywIiKc54DpAABgGiUQPCEZDXf4Q5HTkt43nQUAZtOg69qv66ZjZMVFFWuPNjL9AwAAnikrSf3BkNKSpR4rgdKfApJYCi4TbV13PfVnB5Y5nYyGO0yHAADTKIHgJQckvS0paDYGADcpzA9o+Y8CkiafLLRqKY6gxnVMV7VF3viw2qBqHVWF6RgAAACOUFVRMOMeSHNpudLPUnAGeHVPKrwgLqaAAEASJRA8JBkN3/OHIkck/c50FgDOV7YiT4c/Cr30Yb3lSr+aTt7Q0HAia9daroTOqc0T+/+w/BsAAMDLPqlfk9Hr2pkCsl3Q79MSP5PsOeBIMhq+ZzoEADjB66YDAFl2RNKQ6RAAnG3H5pX6y5+2zfi0Zt2mlfqueXvWng4s1Yi+VYsnCqCLKtY61VEAAQCAV+odSP09T9/AqIVJ7FO2Ii+jKaD7w49Z0syAshV5ClICed1QMho+YDoEADgFJRA8JRkNP5L0seEYABysMD+gw+HqWY8JLFqoEw0b5n2tOt1Wt1oUkPuX+GhQtbarlv1/AADArL74KqbE2JM5j+sbGPVMAfLhu+UZve7M5dvZDYKUlZYsNR0B1vrYdAAAcBJKIHhOMhpuldRpOgcAZ/rwvXIFFi2c87jSkqWqrSrO+DqH1Kmjuprx653iewVUqTr2/wEAACkZGk5oX2T2j2OJsSfaffCaTYmsVVVRoLpNKzN6bcvl/iynASCpc+q+EABgCnsCwas+ltRjOgS8Jej3acfmlaqqKNASv0+PkuPq6nmgM5fZzNVNykpSX8qstGRp2k+oBjWuY7qqLXL/k60XVaw92sj0DwAASMuZy/3qHRh95f6L+yJRz7x/zngvoO7BrO5BifQV5gf4PfCmj00HAACnoQSCJyWj4Zg/FPlc0m9MZ4E3lK3I05XIOy9NkNRUFumTXWu1KXxBvXfcv+cL5me5EjqnNk/s/9OgaqZ/AABAxnrvjGhT+IIK8wNa/qPAs695pfyRJqeAMtkLSJK++DqW3TBIWdnUUnDLf0QJ5EGfJ6PhmOkQAOA0LAcHLzsgKW46BNzvVQXQtMCihboSeUdlK1KfMIH3lGpE36rF9QUQy78BAIBsGhpOqKvngbp6HniqAJIynwK6P/xYXT0PspwGqQr6mXL3qLgm7wMBAH6AEgielYyGH4kxYGTB4Y9Cc+4hE1i0UIc/CtmUCPPRO5B6SdM3MJrScXW6rW61KCB339i4qGKtU536RKEJAAAwmx2bV2Y8BdTUfD3LaZCJqgx//+BYH0/dBwIA/AAlEDwtGQ2fkjT7rqTALIJ+X8of7irLl/FUmQt88VVMibEncx7XNzCa0n5Ah9Spo7qajWhGNaha21XL/j8AAABzCPp9aqxfm9FrE2NPdOZyf5YTATmvc+r+DwBgBpRAyAUfmw4A90p3iTeWhHO+oeGE9kVm74YTY0+0++C1WY8Jalxn1aY96slmPNux/BsAAEB6Pny3XMvzF2f02j9+5e73jl5QOLVH1fR/wxM+Nh0AAJyMEgieN7Up4OemcwBwjjOX+/WzX59Td+zhS7/WcqVfK99tVu+dVy8bt1wJXdJ5bdHck0JOxvJvAAAA6SnMD6gxw72AEmNP9MXXsewGQtoK8wMv/Ddc7/Op+z4AgFd4w3QAwCYHJO2UFDQbA24zWxGQjeNhTu+dEW0KX1BhfkDLp54C7L0zMueGxaUa0SWdd/3+P4e0VgeV2TImAAAAuepE44aMX/vHr3rmfK8JIC1xTd7vAQDMgkkg5ISpzQE/NhwDLhRPjs84LTKT7thDPtS50NBwQl09D9TV82DO37863XZ9AZSQT1u0lQIIAAAgTTs2r0x5v9AfYgrIeVjK2xM+nrrfAwCYBSUQcsbUJoGzbwQCzGDfH6JKjD2Z9ZjE2BPt+0PUpkQwoUHXdVRXXV0AdatAq7VL3SowHQUAAMBVgn6fDoerM379Zyev88CYwwQWLTQdAfPTOXWfBwAwB0og5JqPTQeA+0wvG/aqIigx9kSbwhdYCs7Djumq9uu66RjzckhrtUVbFZfPdBQAAADXOdG4IePS4P7wY6aAHOT5aa6gn/fGLvax6QAA4BavPX361HQGwFb+UOSIpN+YzgH3Cfp92rF5paoqCrTE79Oj5Li6eh7ozOV+nurzqKDGdUnntVruLfgS8mmbapn+AQAAyNCH75br9x+FMn79tk8uqq3rbhYTIRNVFQXasXml6jatfPa1+8OP1RWb/EzX1fPAYDqk6fNkNPyx6RAA4BaUQMg5/lBkiaR7koJmkwBwslKN6Jza9GMlTEfJ2C3laZtqdV8B01EAAABcqTA/oO+at2c8BdQde6hN4QtZToV0BP0+/cemmjn3c+qOPdQvG9t5wM/5hiSVsxcQAKSO5eCQc6beKOw0HAOAg1XqgS7pvKsLoGOq0DrVUQABAADMw5dNNfPaO4Z9Q80qzA+o/+v6OQsgaXKZuO9ObldhPu+fHe5jCiAASA8lEHJSMhpuldRpOgcA56nTbV3UeQXkzicAE/KpTrXar8w3LgYAAIB0OBxSacnSjF9/9HyMfUMNS7fEW56/WF821ViYaGZlK/JUVVGgshV5tl/bZTqn7ucAANLwhukAgEE7JcXEsnAAphxSp/aox3SMjLH8GwAAQHbUVhVr79byjF9/f/ixPjt5I3uBkLbG+jUZlXilJUvVWL9GTc3W//411q/Rv3+v4oWiKjH2RH/8qseW67tMXKzqAgAZYRIIOSsZDd+TdMRwDAAOENS4jumqqwsgln8DAJhQmB9Q0O8zHQPIqrIVeTrRuGFe59h98Bp7yxi2Y/MqI69N1YnGDWqsX/PSpFJg0UI11q+Z959BDzoydR8HAJAmSiDktGQ0fEDSTdM5AJgT1Lgu6by267bpKBlh+TcAgEknGjeo/+t6nWjcwD4a8ISg36cTDRvmtQ/Q0fMxdfU8yGIqpKtsRZ6W5y/O+PXL8xdbujRbY/0a1W1aOesxdZtWqrF+jWUZXObm1P0bAEAGXnv69KnpDIBR/lBkvaQ/m84BwH6lGtElF+//c0t5+kAb1SfWDgcAmHEl8s4LG663dw/qi6+5AQ73+uGf6XTdH36sn+46yxSQTcpW5D2bRqya+n1bstinqvKCee3n9EPdsYcv/PPQcEJDf0288LWuHxzTe2fklX8O/vnyBykVjYmxJ/o3m4+nmdaTfp6MhjtMhwAAt6IEAiT5Q5Ejkn5jOgcA+9Toro7pqmsLoLNapf2qVlwswQMAMOdE44YZn2a/P/xYTc3X1dY1yM1wuMar/jynY/Nv/hMl6Dy9qtgpK5l88Gl5fmBeUz5WuT/8WPeHJ4uh3oERPXo8rnhyXF2xh+q9M/LsuLIVefrLn7alfN6f/frcC6/PQZ8no+GPTYcAADd7w3QAwCEOaHKDwaDZGMCLgn6faquKtPy55VXuDye4oTJPdbqto7pqOkZGEvJpv6rVIuvXKQcAYC5nLvfPeNN8ef5iHW/YoMPhJzpz+ba++CqmoeHEDGcAnOHDd8vnXQA1Nd+gAJqHwvyAlv8ooCV+30tTPD/8PHR/ODGvia109A2MKp4c16Pk+LMypm9gVI+mPo+l+3ue7j5qOb7vWlyT92sAAPPAJBAwxR+KvC3pH03nAKY11q+ZdQ3opuYbamq+YWMibzimq67d/4fl3wAATpTq8lndsYf64uuY2rru2pAKSN2OzSt1vGHDvM7RHXuoTeELWUqETAT9vmf7+Czx+3Tusy3zOt+/e++UJeU1k0Bp+ftkNNxqOgQAuB0lEPAcfyjSKunvTOdAbgv6fboSeSelNaz7Bka1KXyBqaAUBDWuQ+p0bQHE8m+zq60qVt3mlaqpLHrh6+3dg2q53M8NRwCwUNmKPF2JvJPS/hbS5JJJZy7fVsvlfqaDYFw2CqDE2BOtfLeZ9+QO893J7RnvC9Q3MKqf7jqb5UR/w55AKfkmGQ2/bToEAHjB66YDAA6zU5PjxoAxJxo3pPxhpbRkqU40zu9Day4IalyXdN6VBVBCPu3VRu3RRgqgGQT9Pn3ZVKNzn215qQCSpJrKIp37bIu+bKrJ9aU0AMAyvXdGtCl8Qe3dgykdvzx/sRrr1+i/fLVTXzbVqLaq2OKEwMyqKgrmXQBJ4qEsh/ri656MX2v1igt//Cq1bKke50FxTd6fAQBkAZNAwA/4Q5GPJf0H0zmQm2qrijNatmDbJxeZdHiFUo3onNr0Y7nvSWOWf5tbOk94Wv1EJwBgck+Pus0rtWPzqrQ2br8//Fjt3XfZOwi2SXeC7VU+OHhNZy73ZykVsu3LppoZHxSaTXv3oH7V2G5Ror850bhh1n2oWq70a3fTNctzONQ/JKPhI6ZDAIBXUAIBM/CHIh2Sqk3nQO7J5EOKZN8HFbep1AOdU5sCct+TmRdVzPTPHObaN2sm7KUFwEqF+QF9+F65ykr+Vt73DozkbLFRVVGgHZtXznqTcybdsYc6c/m22roGma6AJbJVAB09H9O+SDRLqWCFdJbalia///yysd227z2N9Wv079+reOHPYmLsif74VU8uv2ftTEbD602HAAAvoQQCZuAPRd6UFJMUNJsEuSYZDWf8Wn8oksUk7len2zqqq6ZjZKRB1TqqCtMxHC3o9+nhpd0ZvXbZWye4qQgg63ZsXqnD4eoZbyonxp5oX6QzZ6cFgn6fdkxNB6WzP0di7Inauu6qvWuQiWdkTTb2AJJyfkrDdWYqW55nungpW5GnoN+neHJcvXdGjGRwiLik8mQ0fM90EADwEkog4BX8ocgBSb8zHAM5hhIoOw6pU3vkvvWzv1dA21TL8m8pmM8NHJZtAZBtVRUFuvz5L+Y87me/PpfrN/dUtiJPH75brtqq4rSmMKaXiztzuT/n/x0ic9kqgLpjD7UpfCELiWCn6UK6tqpYleXLJDF56EAsAwcAFnjddADAqZLR8AFJN03nAJCeY7rqygLoooq1TnUUQClanh8w8loAmMknKS5NefijkMVJnK/3zoh2N13Tv9l8XB8cvKb27sGUXrc8f7H2bi3XX/60Tbe/qteH75arkO/nSMOH75ZnpQDqGxjVL1mG2ZXiyXF98XVM0Z4Hz772WfMNnbncTwHkDDcpgADAGm+YDgA43E7JhXeTgRwU1Lgu6bxWy31PB7P8GwC4V2F+4NkT5XOpLF+mwvxATu4PNJMzl/t15nK/CvMDqqkqSnm5uOX5i/X7j0L6/Uch9Q2M6szl22rvGuTfK17pROOGtPemmknfwKg2hS9QGADW2Gk6AAB4FZNAwCyS0XBM0qemcyB3pPo0bLZe5xWlGnFlAfS9AqpUHQUQALjY8h+lN42S7vG5YGg4oS++jumnu87qZ78+p6PnY7o//Dil15aWLNXvPwrpv3y1U9+d3M6EEF5QmB/Qdye3UwDhBX0Do6Yj4GWfTt1/AQBYgBIImAPLwsFOLRnuU5Lp67zArQVQtwpY/m0e7s/jae/5vBYAYK3eOyPaF4lq1XvN2vbJRbVc6Vdi7ElKr/1hIdRYv0ZlK/g5m6tqq4r1XfP2lKbL5kIB5C2P+H10mptT910AABZhOTggNTvFsnCwQVvXXbV3D6qmsijl17R3D6qt666FqZyrTrd1SJ0KyF0f5A5prQ5qrekYrtbWNajjDZm/FgCypfdOeg8hpHt8Lmvruqu2rrvarWuqrSpWTVVRyhMdpSVLVVqyVI31a3R/+LHau++qq+dhzr5nyiWF+QH9PhxK6/30bNq7B7W76RoFkEfd/ysPBznATtMBAMDrXnv69KnpDIAr+EORA5J+ZzgGckDQ79OVyDspPbWYy08l1um2juqq6RhpScinbapVtwpMR/GExvo1akxxM/ZpTc031NR8w6JEAHJVqvuNtFzp1+6mazYk8q6g36faqiLVVBVndJM/MfZE0Z4Hau+6q7auwZx8D+VVQb9PH75brn//XoUCixZm5Zz8nfWuZDQsSfKHIoaT5LxPmQICAOtRAgFp8IciMUk/MZ0DuWGuG9y5fDP7mK5qu26bjpGWbhVou2oVl890FE/57mTqy7z0DYzqp7vOWpwIQC4K+n3q/7p+1hvPibEnWvluM6VDFs23EJImfza0dd1VV+yhunoeZDkh7LJj80odDldnrfyRpN/+Iaovvo5l7XxwFkogR7iZjIbLTYcAgFxACQSkwR+KlItl4WCj6Zsby5/b4Pj+cCJnn1wNalzHdFVb5K6lXFj+zTpBv08nGjfMefOPpVwAWK1sRZ5ONGyYsZjuGxjV7oPXWArOQtkohKanhLp6Hqgr9pDfL4cL+n3asXmlPny3QsvzF2ftvImxJ9rddI2lAz3uny9/oMCihZRAZlUko+GY6RAAkAsogYA0sSwcYEZQ47qk81ot99yQYfk3+9RWFatu88qXbvy1dw+q5XI/N3IA2Ka2qviFImh60gT2mS6EqioKVFtVnPF0yP3hx+qKTZVCPQ81NMzeIU5QmB/Qh++Va8fmVVmd/JEobHPJlcg7qixfRglkDsvAAYCNKIGADLAsHGCvUo3onNr0Y7nn5sst5WmbanVfgbkPBgAAlqmtKlZNVZGqygvmNTHCpJA508Xejs2rVFm+zJJrHD0f02cnbzA1nCOuRN5R0O9jqWAzWAYOAGz2hukAgEvtlNQhKWg2BuB9pRrRJZ1XQO75QH5MFdqvatMxAACApLauu8+mscpW5GnH5pWqKi9IeU+5aYFFC1VTWfTC1Gl37KGiPQ/UNzCqaM8DCoQsmy7w5jPRNReWf8tNQ8MJFebzsJYBcU3eTwEA2IhJICBD/lDkY0n/wXQOwMvqdFtHddV0jJQl5NMebVS7ik1HAQAAcyjMD0xOCFUUZLyP0A/dH36s3oER9d4ZeTYtRDGUusL8gKoqls1rb6d0tFzp175IlN+jHNRYv0ahigJtCl8wHSXX/EMyGj5iOgQA5BpKIGAe/KFIh8Tj/oAV9qpHB9VpOkbKWP4NAAB3q60qniwgKovntWzcD90ffqz7w4lnE0NDwwmWkpsyXfpUVRTMe7m+dNwffqzdB6+pq+eBLdeD81ACGdGZjIbXmw4BALmIEgiYB38o8qakmFgWDsiqY7qq7bptOkbKzmqV9mij6RgAACBLnp8SClUUWLIU2fOF0P3hhIaGH3t6cijo96lsRZ6qypepbEWeykrybCt9piXGnuizk9f1xdcxW68L56mtKtaH75ZTAtknLqk8GQ3fMx0EAHIRJRAwTywLB2RPUOM6pqvaInesyZ6QT/tVrRatMh0FAABYaHJSZZlCFQWqLF9m+fW6Yw8lSdGpSZWuqX92Q0lUtiJPQb9PVeXLtGSxT2UleSpbkWfZnj6pSIw90R+/6tEXX8cc/+8P9pj+O93UfMN0lFzBMnAAYBAlEJAF/lCkVdLfmc4BuFlQ47qk81otdyyPckt5+kAb1ac801EAAIDNqioKVFtVpKryApWWLLX9+tNLzEmTG9wP/XXyf8eT4+odGH3h2PkWR9MTPNOW+H3P/j9PlzySbCnH0kX5g1ehBLLVN8lo+G3TIQAgl71hOgDgETsl3RPLwgEZKdWIjuuqawqgs1ql/apWXD7TUQAAgAFdPQ+e7Sfz/DJndk0KLc9f/GwptUo5r3wx7f7wYzU1X9eZy/2mo8ChunoeqMqBxaUHxTV5vwQAYBCTQECW+EORtyX9o+kcgNuUakSXdF4BuePpzL3ayPJvAABgVlUVBSorWWrpnkJ4WcuVfp253P+soANm01i/hkkg6/19MhpuNR0CAHIdJRCQRf5Q5Iik35jOAbhFnW7rkDpdUQB9r4C2qZbl3wAAQNoK8wOT00IVy1RWkufIpdPcqr17UO1dd9XWNciSb0hLbVWx2rrcsRepS32ejIY/Nh0CAEAJBGSVPxRZIikmqdBsEsD56nRbR3XVdIyUXFSx9mgjy78BAICsKVuRp7KSpVP/TTGUqsTYE0V7HlD8AM42JKk8GQ0/Mh0EAEAJBGSdPxQpl9RjOgfgZMd0Vdt123SMlDSoWkdVYToGAADIAdMTQ6XPlUPTe//ksr6BUXXFHqita5Cl3gB3qEhGwzHTIQAAkyiBAAv4Q5EDkn5nOAbgSG4pgBLyaZtq1a0C01EAAECOq6oo0BK/71k5tMTv8+zk0PSkT++dEXXFHlL6AO7zaTIaPmA6BADgbyiBAIv4Q5EOSdWmcwBOEdS4Lum8VmvEdJQ5datA21XL8m8AAMDRgn7fs1KotGSpliz2qawkT8Gpf3ayxNgT9d4ZUe/AiB49HldX7KF674ywvBvgbp3JaHi96RAAgBdRAgEW8Ycib2pyf6Cg2SSAecuV0Dm1uaIAOqYK7ae/BQAAHlG2YrIUWvKDYihU8bdp52yWRveHH+v+cOLZP0enJnnuDyc0NPxY8eS4eu84/z0hgLTFNbkP0D3TQQAAL6IEAizkD0XelvSPpnMAJpVqRJd0XgE5+6nOhHzao41qV7HpKAAAAI5T9VxpxMQOgBn8fTIabjUdAgDwMkogwGL+UOSUpPdN5wBMqNQDnVOb4wugW8rTNtXqvgKmowAAAACA25xORsM7TYcAAMzsddMBgBzwsaQh0yEAu9Xpti66YALorFbpLW2lAAIAAACA9A1p8r4HAMChmAQCbOAPRcol9ZjOAdhlr3p0UJ2mY8wqIZ/2q1otWmU6CgAAAAC4VUUyGo6ZDgEAeDUmgQAbTL0h+gfTOQA7HNNVxxdA3yugt7SVAggAAAAAMvcPFEAA4HxMAgE28ocirZL+znQOwApBjeuYrmqL7pqOMquLKtYebVRcPtNRAAAAAMCtvklGw2+bDgEAmNsbpgMAOWanpHuSgmZjANkV1Lgu6bxWa8R0lFkd0lod1FrTMQAAAADAzeKavL8BAHABloMDbJSMhh9JettwDCCrSjXi+AIoIZ+2aCsFEAAAAADM39tT9zcAAC5ACQTYLBkNd0j61HQOIBvcUADdUp7WqU7dKjAdBQAAAADc7tOp+xoAAJdgTyDAEH8o0iGp2nQOIFM1uqtjuqqAxk1HeaWzWqU92mg6BgAAAAB4QWcyGl5vOgQAID3sCQSY87bYHwguVafbOqqrpmO8UkI+7Ve1WrTKdBQAAAAA8IK4WN4eAFyJ5eAAQ9gfCG7VoOuOLoC+V0BvaSsFEAAAAABkD/sAAYBLUQIBBrE/ENzmmK5qv66bjvFKF1WsdapTn/JMRwEAAAAAr2AfIABwMfYEAhyA/YHgdEGN65iuaovumo7ySoe0Vge11nQMAAAAAPAS9gECAJdjTyDAGd4W+wPBoYIa1yWd12qNmI4yo4R82qZadavAdBQAAAAA8BL2AQIAD2A5OMAB2B8ITrVcCUcXQLeUp3WqowACAAAAgOxjHyAA8ABKIMAh2B8ITlOqEX2rFscWQGe1SutUp/sKmI4CAAAAAF7DPkAA4BHsCQQ4jD8UaZX0d6ZzILdV6oHOqU0BjZuOMqO92qgWrTIdAwAAAAC86JtkNPy26RAAgOxgTyDAeXZKikkqNBsDuapOt3VUV03HmNH3CmibatWnPNNRAAAAAMCLhjR5XwIA4BFMAgEO5A9FyiX1mM6B3LNXPTqoTtMxZtStAm1XreLymY4CAAAAAF5VkYyGY6ZDAACyhxIIcCh/KLJTUrPpHMgdx3RV23XbdIwZHVOF9qvadAwAeKWyFXkK+n2KJ8fVe8eZe6kBAADMoT4ZDZ8yHQIAkF2UQICD+UORU5LeN50D3ufUAighn/Zoo9pVbDoKAMyosX6N/v17FQosWvjsa4mxJ/rjVz1qar5hMBkAAEBaTiej4Z2mQwAAso89gQBn+1hSuaSfmI0BrwpqXJd0XqvlvKfWbylPH2gj+/8AcKwTjRtUt2nlS18PLFqoxvo1KvxRQLubrhlIBgAAkJabmrz/AADwICaBAIfzhyJvSopJCppNAq9xcgF0UcXao43s/zOHwvyAPnyvXGUlfyvKegdG9MVXMQ0NJwwmA7yvsX6NGuvXzHlcU/MNJoIAAICTxSWVJ6Phe6aDAACsQQkEuIA/FFkv6c+mc8A7SjWic2rTj+W8ouCQ1uqg1pqO4Xg7Nq/U4XD1C0tQTUuMPdG+SKfOXO43kAzIDf98+YMZ//79UGLsif7N5uM2JAIAAMjIz5PRcIfpEAAA67xuOgCAuU29IfvUdA54Q6lGdEnnHVcAJeRTnWopgFJQVVGg4w0bXnkDOrBooY43bFDZCpbSA6xQtiIvpQJImvz7yN9FAADgUJ9SAAGA91ECAS6RjIYPSPrGdA64W51u65LOK6Bx01FecEt5Wqc6tavYdBRX+CSFJagk6fBHIYuTALkp6E9vqcp0jwcAALDBN1P3GQAAHkcJBLjLTk1u2AikrU63dVRXHVcAndUqvaWtuq+A6SiuUJgfUGX5spSOrSxfpsJ8/r0C2RZPpvd9NN3jAQAALHZTk/cXAAA5gBIIcJFkNPxIk2/U4maTwG0adF1HddV0jJc0qFp7tFFx8ZR8qpb/KL1SJ93jAcyt986IEmNPUjo2MfZEvXdGLE4EAACQsriknVP3FwAAOYASCHCZZDQcE0/sIA3HdFX7dd10jBck5NMWbdVRVZiOAgAZ+eNXPVk9DgAAwCY7p+4rAAByBCUQ4ELJaLhV0qemc8DZghrXMV3Vdt02HeUF0/v/dKvAdBRXSneigAkEwBpNzTfUcqV/1mNarvSrqfmGTYkAAADm9OnU/QQAQA6hBAJcamoDx9Omc8CZghrXJZ13XAHE/j/zF0+Oz3njeVrLlX72IgEstLvpmpqab7y0NFxi7Imamm9od9M1Q8kAAABecnrqPgIAIMe89vTpU9MZAGTIH4oskdQh6Sdmk8BJpgug1XLWBEiDqln+LUuCfp/6v65XYNHCVx6TGHuile82UwIBNilbkaeg36d4cpwJPAAA4DQ3Ja1nHyAAyE2UQIDL+UORNyXFJAXNJoETlGpEl3ReATnnxn9CPm1TLcu/ZVnZijydaNig0pKlL/1a38Codh+8xo1oAAAAAHFJ5clo+J7pIAAAMyiBAA/whyLrJf3ZdA6Y5cQC6JbytE21LP9modqq4heKoL6BUbV13TWYCAAAAICD/DwZDXeYDgEAMIcSCPAIfyiyU1Kz6Rwwo063dUidjiqAzmqV9qtacflMRwEAAACAXFSfjIZPmQ4BADCLEgjwEH8ockrS+6ZzwF51uq2jumo6xgvY/wcAAAAAjDqdjIZ3mg4BADCPEgjwGH8o0iGp2nQO2KNB17Vf103HeIb9f+BkhfkBffheucpK8p59rXdgRF98FdPQcMJgMgAAACCrOpPR8HrTIQAAzkAJBHiMPxRZIqlD0k/MJoHVjumqtuu26RjPsP8PnGzH5pU6HK5WYNHCl34tMfZE+yKdOnO530AyAAAAIKtuSlqfjIYfmQ4CAHAGSiDAg/yhSLkmi6Cg2SSwitMKIPb/gZNVVRTo8ue/mPO4n/36nHrvjNiQCAAAALBEXJMFUMx0EACAc7xuOgCA7Jt6w/e24RiwQFDj+lYtjiqAGlStPdpIAQTH+qR+TUrHHf4oZHESAAAAwFJvUwABAH6IEgjwqGQ03CGp3nQOZE9Q47qk81otZ0wqJORTnWp1VBWmowCvVJgfUGX5spSOrSxfpsJ8ljMEAACAK9VP3QcAAOAFlECAhyWj4VOSTpvOgfkr1Yi+VYtjCqBbytNb2qp2FZuOAsxq+Y/SK3XSPR4AAABwgNNTn/8BAHgJJRDgccloeKekb0znQOZKNaJLOq8fK2E6iiTpoor1lraqT3mmowAAAABArvtm6nM/AAAzogQCcsNOSTdNh0D6KvVAl3ReAY2bjiJJOqS12q5a9v+Ba/TeSW96Lt3jAQAAAINuavLzPgAAr0QJBOSAZDT8SNJ6SXGzSZCOOt3WRYcUQAn5tFcbdVBrTUcB0hJPjqvlSn9Kx7Zc6Vc8af7vGwAAAJCCuKT1U5/3AQB4pdeePn1qOgMAm/hDkXJJHZKCZpNgLnW6raO6ajqGJOl7BbRNtSz/BtcK+n3q/7pegUULX3lMYuyJVr7bTAkEAAAAN5gugGKmgwAAnI9JICCHTL1B3Gk4BuZwTFcdUwB1q0DrVEcBBFeLJ8e1KXxBfQOjM/5638CoNoUvUAABAADALXZSAAEAUsUkEJCD/KHITknNpnPgZcd0Vdt123QMSdJZrdIebTQdA8iq2qpilZYsffbPfQOjauu6azARAAAAkJb6ZDR8ynQIAIB7UAIBOcofipyS9L7pHJgU1LiO6aq2yBk3o/dqo1q0ynQMAAAAAMDfnE5GwztNhwAAuAslEJDDKIKcIahxXdJ5rdaI6ShKyKe3tJXl3wAAAADAWSiAAAAZYU8gILd9LOmm6RC5zEkF0C3lsf8PAAAAADjPTU1+fgcAIG1MAgE5zh+KLJHUIeknZpPknlKN6JLOKyDzm9Gf1SrtV7Xi8pmOAgAAAAD4m5uS1iej4UemgwAA3IkSCID8oUi5JougoNkkucNJBVCDqnVUFaZjAAAAAABeFNdkARQzHQQA4F6UQAAkUQTZqUZ3dUxXjRdACfm0RxvVrmKjOQAAAAAAL6EAAgBkBSUQgGf8ocjbkv7RdA4vq9NtHdVV0zH0vQLaplr2/wEAAAAAZ/r7ZDTcajoEAMD9XjcdAIBzTL3BrDedw6ucUgB1q0DrVEcBBAAAAADOVE8BBADIFkogAC9IRsOnJH1qOofXHNNVRxRAZ7VKW7RVcflMRwEAAAAAvOzTqc/lAABkBcvBAZiRPxQ5Jel90zm84Jiuartum46hvdqoFq0yHQMAAAAAMLPTyWh4p+kQAABvoQQC8EoUQfMT1LiO6aq26K7RHAn59Ja2svwbAAAAADgXBRAAwBKUQABm5Q9FYpJ+YjqH2wQ1rks6r9UaMZrjlvK0TbW6r4DRHAAAAACAV7qZjIbLTYcAAHgTewIBmMt6STdNh3ATpxRAF1Wst7SVAggAAAAAnOumJj93AwBgCSaBAMzJH4oskdQhJoLmVKoRXdJ5BTRuNMcxVWi/qo1mAAAAAADM6qak9clo+JHpIAAA76IEApASfyhSrskiKGg2iXM5oQBKyKf9qlaLVhnLAAAAAACYU1yTBVDMdBAAgLdRAgFIGUXQq1Xqgc6pzXgB9Ja2qk95xjIAAAAAAOZEAQQAsA0lEIC0UAS9rE63dVRXjWa4pTy9pa2Ky2c0BwAAAABgVhRAAABbvW46AAB3mXqjutNwDMdwQgF0VqsogAAAAADAHXZSAAEA7MQkEICM+EORnZKaTecw6ZA6tUc9hjOs1UGtNZoBAAAAAJCS+mQ0fMp0CABAbqEEApCxXC6Cjumqtuu2sesn5NN+VatFq4xlAAAAAACkjAIIAGAEJRCAecnFIsgJBdBb2qo+5RnLAAAAAABIGQUQAMAYSiAA8+YPRQ5I+p3hGJYLalyXdF6rNWIswy3lsf8PAAAAALjHp8lo+IDpEACA3EUJBCAr/KHIKUnvm85hFScUQGe1SvtVTQEEAAAAAO5wOhkN7zQdAgCQ2yiBAGSNV4ug5UronNqMFkCHtFYHtdbY9QEAAAAAaaEAAgA4AiUQgKzyWhFUqhFd0nkFNG7k+gn5tF/VatEqI9cHAAAAAKSNAggA4BiUQACyzitFkBMKoLe0VX3KM3J9AAAAAEDaKIAAAI5CCQTAEm4vgup0W4fUaawAuqU8vaWt7P8DAAAAAO5BAQQAcBxKIACW8YciHZKqTedIV51u66iuGrv+Wa3SflVTAAEAAACAe3Qmo+H1pkMAAPBDr5sOAMDT3pZ003SIdJgugA5prfZoIwUQAAAAALjHTU1+/gUAwHGYBAJgKX8oskRSh6SfmE0yt2O6qu26beTaCfm0X9Vq0Soj1wcAAAAAZOSmpPXJaPiR6SAAAMyEEgiA5dxQBJkugN7SVvUpz8j1AQAAAAAZoQACADgey8EBsNzUG+L1cuDScEGNGy2AbilP61RHAQTHqKooMB0BAAAAcAMKIACAK1ACAbCFE4ugoMZ1SeeNFUAXVay3tFX3FTByfWAmVeXLTEcAAAAAnI4CCADgGpRAAGzjpCJougBarREj1z+mCm1XreLyGbk+AAAAACAjFEAAAFehBAJgKycUQcuVMFoA7dVG7Ve1kWsDcylbwdKEAAAAwCtQAAEAXIcSCIDtTBZBpRrRt2oxUgAl5FOl6tSiVbZfG0hF0O/TEj/TaQAAAMAMKIAAAK5ECQTACBNFUKlGdEnnFdC4XZd85pby9Ja2qk9MWcC5ylbkKUgJBAAAAPwQBRAAwLXeMB0AQO5KRsOP/KHIekkdkn5i5bVqdFfHdNVIAdStAvb/gWuUliw1HQEAACAthfkBffheucpK/vbAVe/AiL74Kqah4YTBZPAICiAAgKtRAgEwyo4iqE63dVRXrTj1nM5qlfZoo5FrAwAAAF63Y/NKHQ5XK7Bo4Qtfryxfph2bV2lfpFNnLvcbSgcPoAACALgey8EBMM7KpeFMFkANqqYAgisV5gdMRwAAAJhTVUWBjjdseKkAmhZYtFDHGzaobAVLMiMjFEAAAE+gBALgCFYUQYfUaaQASsinOtXqqCpsvzYwH2VTS8Et/xElEAAAcL5P6tekdNzhj0IWJ4EHUQABADyDEgiAYzxXBHXO91zHdFV71DPf06QtIZ/e0la1q9j2awPzFfSzbxUAAHCHwvyAKsuXpXRsZfkyJp2Rjk5RAAEAPIQSCICjJKPhR8loeL2k05me45iuartuZy9Uim4pT6u1S31iuQm4W1WKN1QAAABMSXdymUlnpOh0MhqmAAIAeAolEABHSkbDO5VmERTUuC7qvJEC6KxW6S1tVVxMUgAAAACAC52e+hwKAICnUAIBcKx0iqCgxnVJ51WpB9aGmsExVWiPNlIAwfUKp56QLeRJWQAA4HC9d0YsPR45hwIIAOBZlEAAHC2VImi6AFot+z/Y7dVG7Ve17dcFrDC9Vj5r5gMAAKeLJ8fVcqU/pWNbrvQrnhy3OBFcjAIIAOBplEAAHG+2IqhUI7qlk7YXQAn5VKk6tWiVrdcFAAAAMGlfJKrE2JNZj0mMPdG+SNSmRHAhCiAAgOdRAgFwhak35p8+/7VSjeiSzisge5/qu6U8vaWt6lOerdcF7FK2gj/bAADA+eLJcW0KX1DfwOiMv943MKpN4QtMAeFVPqUAAgDkgteePn1qOgMApMwfiuyU1Gy6AGL/H3jRlcg7qixfJknyhyKG0wAAAKSutqpYpSVLn/1z38Co2rruGkwEh6tPRsOnTIcAAMAOlEAAXOdUqPb/8X/Vf/m13dc9q1Xao412XxawTTIafva/l711gqdmAQAA4EUUQACAnEIJBMBVJkJFOyU1233dQ1qrg1pr92UBW1RVFGjH5pWq27Ty2dfuDz9WV+yBzlzuV1fPA4PpAAAAgKyhAAIA5BxKIACuYaIASsin/apWi1bZeVnAFkG/T/+xqebZEnCv0h17qF82tjMZBAAAALeKS9qZjIZbTQcBAMBulEAAXGEiVHRK0vt2XjMhn97SVvUpz87LArYozA/ou+btCixamNLx94cfa3P4goaGExYnAwAAALIqLml9MhqOmQ4CAIAJr5sOAABzMVEA3VKe1qmOAgie9WVTTcoFkCQtz1+sL5tqLEwEAAAAZB0FEAAg51ECAXA0EwVQtwr0lrbqvgJ2XhawTWP9GpWWLE37daUlS9VYv8aCRAAAAEDW3RQFEAAAlEAAnGkiVLRkIlQUk80F0Fmt0hZtVVw+Oy8L2GrH5sz3uJrPawEAAACbUAABADCFEgiA40yEipZI6pD0Ezuv26Bq7dFGOy8J2K5sRZ6W5y/O+PXL8xerbAXLJAIAAMCxpgugR6aDAADgBK89ffrUdAYAeMZEAZSQT/tVrRYx4QDvKFuRp6B/cqKtqnyZJGnJYp+qygsyWgruVbpjD1/456HhhIb+mnjha10/OKb3zojiyfGsZQAAAACmnE5GwztNhwAAwEkogQA4xkSoqFyTBVDQrmsm5NNb2qo+MdkA53tVsVNWMvnnd3l+YF5TPla5P/xY94cni6HegRE9ejyueHJcXbGH6r0zYjgdAAAAPIICCACAGVACAXAEEwXQLeVpm2p1XwG7LglkpDA/oOU/CmiJ3/fSFE/Zijwt8b+4h1XlVEFktb6BUcWT43qUHH9W5vQNjOrR1JRPV88DW3IAAAAg532ajIYPmA4BAIATUQIBMM5EAdStAm1XreLyzX0w4HJBv+/ZPj5L/D6d+2zLvM737947paHhxNwHAgAAANarT0bDp0yHAADAqd4wHQBAbpsIFe2U1GznNc9qlfZoo52XBIyKJ8dfmMrpGxjNeF+gvoFRCiAAAAA4QVzSzmQ03Go6CAAATva66QAAcpeJAuh/VtX/hwIIue6Lr3syfm1T840sJgEAAAAyEpe0ngIIAIC5UQIBMMJAARSXVB/R/+mnkm7aeF3Acc5c7ld792Dar2vvHlRb110LEgEAAAApu6nJAihmOggAAG7AnkAAbDcRKjoi6Tc2XjIuaf2C6GBMkvyhyBJN7kH0ExszAI4S9Pt0JfJOysvCdcce6peN7Yonxy1OBgAAALzSdAH0yHQQAADcgkkgALaaCBWdkr0F0E1J5dMFkCRNfWBYL+m0jTkAR4knx/XTXWfV1HxDibEnrzwuMfZETc03tCl8gQIIAAAAJp0WBRAAAGljEgiAbaYKoPdtvGSnpLcXRAcfveoAfyhySvZmAhwn6Pdpx+aVqq0qVmX5MkmTkz9nLt9WW9cg5Q8AAABMO52MhneaDgEAgBtRAgGw3ESoaImkVknVNl729ILo4M5UDvSHIjtl7/5EgCM11q9RY/0aSdLm3/wndfU8MJwIAAAAUH0yGj5lOgQAAG7FcnAALDVVAHXI3gLo01QLIEma+kDx95rcOwgAAAAAYF5c0t9TAAEAMD+UQAAs81wB9BMbL1u/IDp4IN0XJaPhVk3uE0QRhJzVNzBqOgIAAAAgTX4uWz/1OQ0AAMwDJRAAS0yEisplbwEUl1SxIDp4KtMTJKPhmKQ3Jd3MTiTAXR6x9w8AAADMuynpzanPZwAAYJ4ogQBknYEC6Kak9Quig7H5nigZDT/S5ETQN/M9F+Bm9/+aMB0BAAAAuecbTU4APTIdBAAAr3jt6dOnpjMA8JDnCqCgTZecLoAeZfvE/lDklKT3s31ewMmS0bAkyR+KGE4CAACAHHM6GQ3vNB0CAACvYRIIQNZMhIrWy94C6LQsKoAkaeoDSL0V5wYAAAAAPFNPAQQAgDUogQBkxUSoaKekP8u+AujzBdHBnVYVQNOS0fApST/X5J5DgOclxp6YjgAAAIDcEZf086nPXQAAwAKUQADmbaoAarbxkvULooMf23WxZDTcocl9gm7adU3AlN47I6YjAAAAIDfc1OT+Px2mgwAA4GWUQADmZSJU9LHsK4Dikn6+IDp4yqbrPZOMhmOaLII67b42YLe+gVHTEQAAAOBtnZosgGKmgwAA4HVvmA4AwL0mQkWnJL1v0+Ximtz/J2bT9V6SjIYfSVrvD0VOyb7/34CthoYTKswPmI4BAAAA7zrN/j8AANiHSSAAGbG5ALop6U2TBdDzpj6w1JvOAVhh6K8J0xEAAADgXfUUQAAA2IsSCEDabC6AvtHkBNAjm66XkqmNS3+uyQklAAAAAMCrxSX9fOpzFAAAsBElEICUTYSKlkyEimKyrwA6vSA6+LbTCqBpUxuYlmtyUgnwBPYDAgAAQJbdlFQ+9fkJAADYjBIIQEomQkVLJHVI+olNl/yHBdHBnTZdK2PJaPiepPWSTptNAmTHo+S4oj0PTMcAAACAN5yWtH7qcxMAADDgDdMBADifgQKofkF08JRN15q3ZDT8SNJOfyhyT9LvzKYBAAAAAEf4NBkNHzAdAgCAXMckEIBZTYSKyiXFZE8BFJdU4aYC6HlTH3D+XuwTBBfrYgoIAAAA8xOX9PcUQAAAOAMlEIBXmiqAOiQV2nC5m5LWL4gOxmy4lmWS0XCrJpeHY58gAAAAALnmpiaXf2s1HQQAAEyiBAIwo+cKoKANl/NEATQtGQ3HNFkEfWM2CZCZvoFR0xEAAADgPt9osgCKmQ4CAAD+5rWnT5+azgDAYSZCRW9LOiV7CqDTkj5eEB18ZMO1bOcPRQ6IfYIAAAAAeBv7/wAA4FCUQABeMBEq2imp2abLnV4QHdxp07WM8Yci6yW1yp5SDQAAAADsEpf0djIa7jAdBAAAzIzl4AA8Y3MBVJ8LBZAkTX0gKhf7BAEAAADwjpuSyimAAABwNkogAJJsLYDimiyATtlwLcdIRsP3NLlP0GmzSQAAAABg3k5rcv+fe6aDAACA2bEcHABNhIpOSXrfhkvFJa1fEB2M2XAtx/KHIjtl38QVAAAAAGRTfTIaPmU6BAAASA0lEJDjbCyAbkp6e0F08J4N13I8fyhSrsl9ggrNJgEAAACAlAxpcv+fmOkgAAAgdSwHB+Qwmwug9RRAfzP1walc0jdmkwAAAADAnL7R5P4/MdNBAABAepgEAnLQRKhoiSanUKptuNzpBdHBnTZcx7X8ocgBSb8zHAMAAAAAZvJpMho+YDoEAADIDCUQkGOmCqAOST+x4XKfL4gOfmzDdVzPH4qs12QxFzSbBAAAAAAkTe7p+nYyGu4wHQQAAGSOEgjIITYXQPULooOnbLiOZ/hDkSWyb0ILAAAAAF6lU5MF0CPTQQAAwPxQAgE5YiJU9KYmCwarC6C4pJ0LooOtFl/Hs1geDgAAAIBBLP8GAICHUAIBOWAiVFSuyQkgq5cai0tavyA6GLP4Op7H8nAAAAAAbMbybwAAeNDrpgMAsJaNBdBNSeUUQNkx9cHrTU0uwwAAAAAAVuqU9CYFEAAA3sMkEOBhNhdA6xdEBx9ZfJ2cxPJwAAAAACzE8m8AAHgYJRDgUROhop2Sjsj6Auj0gujgTouvkfNYHg4AAABAlrH8GwAAOYDl4AAPmiqAmmV9YfA5BZA9nlse7huzSQD8/9u7w5w2snSPw3+178eSwg6CvIGwgop3EHbQzgYY7gqGXsFN1wbGrGDICga8AtiABTvAEl8t3Q9lBpJJZwi4fMrl55EQadKpeqVOpA4/vecAAAzA1zj+DQD2gk0gGJhnAahrn0fzxWwL7+E7Vd2cJvm/0nMAAAA76X8f5idfSg8BAGyHCAQDsqrHZ+n+7phlklMBqKyqbo7SHg/3vuwkAADAjrhLe/zbdelBAIDtEYFgIFb1eJbk945fs0wyGc0X1x2/hxeo6uYg7b1PXf93BwAAdtt5ktOH+cl96UEAgO0SgWAAthSAbpJMBaD+qermOMks3d8BBQAA7JZlkunD/OSi9CAAQBkiEOy4LQagyWi+uO/4PbxSVTeHaUPQx7KTAAAAPXGVNgDdlh4EAChHBIIdtarHB0kuk3zo+FXnae8Auu/4PWxAVTdn6f5eKAAAoN/+eJifnJUeAgAoTwSCHbTNADSaL6Ydv4MNq+rmKMlFkvdlJwEAALbsLsnxw/zkuvQgAEA//FZ6AODXbDEAfRaAdtP6L3xHSf4sOwkAALBFfyY5EoAAgOdsAsEOWdXjo7T3vmwjAM06fgdbUNXNcdrfM+/KTgIAAHRkmfbun4vSgwAA/SMCwY5YB6DLdPvN/GWSyWi+uO7wHWxZVTcHaUPQp7KTAAAAG/Y1bQC6Lz0IANBPIhDsgC0FoLskxwLQcFV1c5rkLLaCAABg1y2TnD3MT76UHgQA6DcRCHpuSwHoJu0G0H2H76AHqro5TLsV9LHsJAAAwCtdpd3+uS09CADQfyIQ9NiqHk+T/KPj13xNMhWA9outIAAA2Dm2fwCAXyYCQU9tKQCdj+aLacfvoKequjlKuxX0oewkAADAf3GTdvvnuvQgAMBuEYGgh7YUgP4YzRdnHb+DHVDVzVmSvxceAwAA+LE/HuYnZ6WHAAB2kwgEPbOqx2fp/hvyn0fzxazjd7BDbAUBAEDv2P4BAN5MBIIeWdXjWZLfO3zFMsnxaL647PAd7DBbQQAA0Au2fwCAjRCBoCe2FIAmo/niusN3MAC2ggAAoBjbPwDARolA0ANbCEA3aTeAbjt8BwNjKwgAALbK9g8AsHEiEBS0qscHSS7T7cbFTdoNoPsO38FA2QoCAIDO2f4BADojAkEhWwpA50lOBSDeqqqb0yRnSd6VnQQAAAZjmeTsYX7ypfQgAMBwiUBQwLYC0Gi+mHb4fPZMVTeHabeCPpadBAAAdt5V2u2f29KDAADDJgLBlq3q8WGSi3QbgD6P5otZh89nj9kKAgCAV7P9AwBslQgEW7Sqx0dpN4C6/Oa5AETnqro5SLsV9KnsJAAAsDO+pt3+uS89CACwP0Qg2JItBKBlkslovrju6PnwH6q6OU4bg2wFAQDAjy3Txp+L0oMAAPvnt9IDwD4QgBiq9V9kD5P8WXYSAADopT+THApAAEApNoGgY6t6PE3yJd0FoJu0Aei+o+fDi1R1M0n7e73L+64AAGAX3CQ5fZifXJYeBADYbyIQdGgdgP7R4SsEIHqnqpuzJKdxRBwAAPtnmeTLw/zkrPQgAACJCASd2UIAOh/NF9MOnw+vVtXNYdq7gj6WnQQAALbmKu3dP7elBwEAeCQCQQdW9fg0yf91+AoBiJ1Q1c1x2hhkKwgAgKFapo0/F6UHAQD43m+lB4ChWdXjWboNQJ8FIHbF+i/Ch2kvxAUAgKH5M8mhAAQA9JVNINigdQD6vaPHL5OcjuaLWUfPh05VdXOU5EscEQcAwO67SnL6MD+5Lj0IAMDPiECwIVsIQJPRfHHd0fNha6q6maaNQY6IAwBg1yzTxp9Z6UEAAF5CBII3WtXjg7R3nnzq6BV3SY4FIIakqpuDJGdJ/lZ2EgAAeLE/k5w9zE/uSw8CAPBSIhC8wToAXSb50NErbtJuAN139HwoyhFxAADsAEe/AQA7SwSCV9pCALpKuwF039HzoTccEQcAQA85+g0A2HkiELzCFgLQ+Wi+mHb0bOglR8QBANAjjn4DAAZBBIJftKrHR2kDUFcbCwIQe80RcQAAFOToNwBgUEQg+AVbCECfR/PFrKNnw06p6uY4bQx6X3YSAAD2wF3a+HNRehAAgE0SgeCFBCAoo6qbsySncV8QAACbt0zy5WF+clZ6EACALohA8AKrenycZJZuvgm9TDIZzRfXHTwbBqGqm8O09wX9XnYSAAAG5DztvT+3pQcBAOiKCAT/xaoeT5P8o6PHC0DwC6q6maSNQe4LAgDgta7Sxp/L0oMAAHRNBIKf6DgA3aQNQPcdPR8Gq6qbadoY5L4gAABe6i5t/JmVHgQAYFtEIPgLAhD0n/uCAAB4Aff+AAB7SwSCH1jV41m6u3vkfDRfTDt6Nuydqm4OknyJ+4IAAPhP50lOH+Yn96UHAQAoQQSC7whAsJuqujlMMov7ggAAaO/9mT7MT25LDwIAUJIIBM90HIA+j+aLWUfPBtaqupmkvS9IDAIA2D9Xae/9uSw9CABAH4hAsCYAwbBUdTNNG4Pel50EAIAtuEsbf2alBwEA6BMRCNZW9fgym98cWCY5Hs0Xlxt+LvBCVd2cpo1B78pOAgBAB5Zp48+X0oMAAPTRb6UHgAFbJpkIQFDW+hsCh0n+SPvnEgCA3bdM+/93hwIQAMBfswkEa6t6fJ/NbQrcpN0Aut3Q84ANqOrmIO1W0N/KTgIAwBv8mXb75770IAAAfScCwdqqHm/qD8NN2g2g+w09D9iwqm4O08agru4BAwBg887Txp/b0oMAAOwKEQjWNhSBzpOcCkCwG9Yx6EuST2UnAQDgJ74mORV/AAB+nQgESVb1eJLkX298zPlovpi+fRpg26q6maTdDPpYdhIAAJ65Srv5c1l6EACAXSUCQTYSgf4YzRdnm5kGKEUMAgDoBfEHAGBDRCBIsqrHx0n++cpf/nk0X8w2Nw1QmhgEAFCE+AMAsGEiECRZ1eOzJH//xV+2TDIdzRcXm54H6AcxCABgK8QfAICO/E/pAWBHLZNMRvPFdelBgO6svxExWcegWZL3JecBABiYuyRT8QcAoDs2gSDJqh7Pkvz+wn/9LsmxAAT7p6qbadrNIDEIAOD17tJu/sxKDwIAMHQiECRZ1ePLvOy4p5u0G0D3nQ4E9FpVN8dJTuOYOACAX3GV5MvD/OSi9CAAAPtCBIK8OAIJQMA33BkEAPAi7vwBAChEBIIkq3p8n+TdT/6V89F8Md3ONMCuEYMAAH5I/AEAKEwEgiSrevyzPwgCEPAiYhAAQBLxBwCgN0QgyE8j0OfRfDHb5izA7lvHoNMkn8pOAgCwVV/T3vlzWXoQAABaIhB7b1WPJ0n+9YOfEoCAN6nq5jDtZtDvZScBAOjUedrNn9vSgwAA8C0RiL33gwi0THI8mi8uiwwEDI4YBAAMlPgDANBzIhB7b1WPj5P8c/2PyyST0XxxXWwgYLCqujlIe0zcaZJ3JWcBAHilZZIvaY99uy87CgAA/40IxN5b1eOzJH9PcpNkKgABXVvHoGnaGPS+5CwAAC90lzb+zMQfAIDdIQKx99YR6DjtBtB9yVmA/VPVzTTtUXFiEADQR3dpj3yblR4EAIBfJwKx99Z3Al0LQEBJVd1M0sagj2UnAQBIklyljT+XpQcBAOD1RCAA6JGqbg7TxqDfy04CAOyp87Tx57b0IAAAvJ0IBAA9tI5B07T3Br0rOQsAMHjLPN33c1t2FAAANkkEAoCec28QANAR9/0AAAycCAQAO2J9b9Bpkk9lJwEAdtzXJF/c9wMAMHwiEADsmGf3Bh3HUXEAwMssk1zEfT8AAHtFBAKAHVXVzUHaEHQWR8UBAD92l/b/FS4e5if3ZUcBAGDbRCAAGABHxQEA33HkGwAAIhAADMn6qLjTJNM4Kg4A9s0yyZckM0e+AQCQiEAAMFhV3UzTxqCPZScBADp2lTb8zEoPAgBAv4hAADBwVd0cpd0OOo7tIAAYimWSi7RHvl2XHQUAgL4SgQBgT1R1c5A2BJ0m+VByFgDg1W7SHvl28TA/uS87CgAAfScCAcAesh0EADvF1g8AAK8iAgHAHrMdBAC9ZusHAIA3EYEAgCRJVTeHaWPQNLaDAKCUZZJZ2q2f27KjAACw60QgAOA/VHUzTbsh9KnsJACwN76m3fiZlR4EAIDhEIEAgL+03g46Trsh9L7kLAAwQHd5Ou7ttuwoAAAMkQgEALxIVTdHaWPQcRwXBwCvtUxykfa4t+uyowAAMHQiEADwyxwXBwC/zHFvAABsnQgEALzas+Pipkk+lJwFAHroJsksjnsDAKAQEQgA2Ij1cXHTtFHI/UEA7Ku7tMe9zRz3BgBAaSIQALBxVd1M8hSE3B8EwNA93vMze5ifXJYdBQAAnohAAECnqro5ThuDjiMIATAcj+Hn4mF+clF2FAAA+DERCADYiqpuDvIUgz6VnAUA3uBrnuLPfdlRAADg50QgAGDrBCEAdozwAwDAThKBAICiBCEAekr4AQBg54lAAEBvCEIAFCb8AAAwKCIQANBL3wWhSZJ35aYBYKCWSS4j/AAAMFAiEACwE6q6Oc5TFBKEAHitZZ6iz0XZUQAAoFsiEACwc6q6meQpCL0vOQsAO+EuT+HnsuwoAACwPSIQALDTqro5ylMQ+lByFgB65SZP4ee67CgAAFCGCAQADEZVN4dp7w86TvKp5CwAFPE1bfi5fJif3JYdBQAAyhOBAIDBenaP0CSOjQMYorskl3G/DwAA/JAIBADshfWxcZO0UehjyVkAeJOrPG37XJcdBQAA+k0EAgD2TlU3B3kKQpPYEgLos39v+6QNP/clhwEAgF0iAgEAe+/ZltAk7hIC6IOvacOPbR8AAHgDEQgA4DtV3UzytCX0oeQsAHviJk93+1yWHQUAAIZDBAIA+AlHxwF0whFvAACwBSIQAMAvqOrmME9Hx00iCgG8xGP0uUwbfW5LDgMAAPtCBAIAeIN1FDrOUxR6V24agN5Y5ttNn9uSwwAAwL4SgQAANsimELCnbPoAAEAPiUAAAB36LgodJflQbhqAjblJch3RBwAAek0EAgDYoqpuDvJtFPpYbhqAF7vKt9HnvuQwAADAy4hAAACFVXUzSRuEHj87Qg4o6S5Pwef6YX5yWXIYAADg9UQgAICeWR8hdxTbQsB2PN/yuXa0GwAADIcIBACwA6q6OcpTFDqKu4WA13m8y+c67bFu1yWHAQAAuiUCAQDsqGfHyD1+CEPAc8+Dj2PdAABgD4lAAAAD8l0YOoyj5GBfXCW5jeADAAA8IwIBAAzc+ii5o7RRaLL+8btS8wBvsszT/T23aYPPdblxAACAPhOBAAD2UFU3B2lj0CRtHDqMrSHom8ftntu00ef6YX5yX24cAABg14hAAAD8W1U3h3naGHr8sTgE3fo+9tw+zE9uy40DAAAMhQgEAMB/9Rdx6CiOlYOXejzG7TZiDwAAsCUiEAAAr/bsWLnDPIWhg9geYn9dJbnPt8HHMW4AAEARIhAAAJ34QSB6/DiKDSJ21/cbPY8fQg8AANA7IhAAAEVUdXOUdmvoR59FIkp5jDz3339+mJ9clxkJAADgdUQgAAB66VkkOlx/HKQNRInj5ni9q/Xn67SB53b9IfIAAACDIwIBALCzqro5TBuIkmSy/vz8a0exVbQPHrd3kqeokySXj197mJ/cBgAAYM+IQAAA7IVnm0XJUzBKno6hS9p49H47E/ETN2m3dJKn49geXT5+3eYOAADAz4lAAADwF74LR8m3wSj5duvo+df2OSTd5WkT59Htd1+7z7dhR9ABAADogAgEAABb8IOg9L3JVgb5NZc/+TnhBgAAoOdEIAAAAAAAgAH6rfQAAAAAAAAAbJ4IBAAAAAAAMEAiEAAAAAAAwACJQAAAAAAAAAMkAgEAAAAAAAyQCAQAAAAAADBAIhAAAAAAAMAAiUAAAAAAAAADJAIBAAAAAAAMkAgEAAAAAAAwQCIQAAAAAADAAIlAAAAAAAAAAyQCAQAAAAAADJAIBAAAAAAAMEAiEAAAAAAAwACJQAAAAAAAAAMkAgEAAAAAAAyQCAQAAAAAADBAIhAAAAAAAMAA/T/tdSANnYN76AAAAABJRU5ErkJggg==;" parent="1" vertex="1">
          <mxGeometry x="445" y="487.99" width="130" height="108.01" as="geometry" />
        </mxCell>
        <mxCell id="OxTTLq5b9ruWIfGuJGXQ-17" value="&lt;font style=&quot;font-size: 14px;&quot;&gt;DynamoDB table stores all asteroid data from the NASA API&lt;/font&gt;" style="text;strokeColor=none;align=center;fillColor=none;html=1;verticalAlign=middle;whiteSpace=wrap;rounded=0;" parent="1" vertex="1">
          <mxGeometry x="395.75" y="667" width="130" height="30" as="geometry" />
        </mxCell>
        <mxCell id="OxTTLq5b9ruWIfGuJGXQ-19" value="&lt;font style=&quot;font-size: 14px;&quot;&gt;Python Lambda function that pulls data from the DynamoDB table with Boto3 and returns a JSON response to API Gateway&lt;/font&gt;" style="text;strokeColor=none;align=center;fillColor=none;html=1;verticalAlign=middle;whiteSpace=wrap;rounded=0;" parent="1" vertex="1">
          <mxGeometry x="-24" y="421" width="146" height="30" as="geometry" />
        </mxCell>
        <mxCell id="OxTTLq5b9ruWIfGuJGXQ-23" value="&lt;font style=&quot;font-size: 14px;&quot;&gt;API Gateway Generates an endpoint URL that is used to access the asteroid data&lt;/font&gt;" style="text;strokeColor=none;align=center;fillColor=none;html=1;verticalAlign=middle;whiteSpace=wrap;rounded=0;" parent="1" vertex="1">
          <mxGeometry x="-202.75" y="420.99" width="149.5" height="67" as="geometry" />
        </mxCell>
        <mxCell id="OxTTLq5b9ruWIfGuJGXQ-26" value="" style="sketch=0;points=[[0,0,0],[0.25,0,0],[0.5,0,0],[0.75,0,0],[1,0,0],[0,1,0],[0.25,1,0],[0.5,1,0],[0.75,1,0],[1,1,0],[0,0.25,0],[0,0.5,0],[0,0.75,0],[1,0.25,0],[1,0.5,0],[1,0.75,0]];outlineConnect=0;fontColor=#232F3E;gradientColor=#60A337;gradientDirection=north;fillColor=#277116;strokeColor=#ffffff;dashed=0;verticalLabelPosition=bottom;verticalAlign=top;align=center;html=1;fontSize=12;fontStyle=0;aspect=fixed;shape=mxgraph.aws4.resourceIcon;resIcon=mxgraph.aws4.s3;" parent="1" vertex="1">
          <mxGeometry x="-363" y="491.25" width="21.5" height="21.5" as="geometry" />
        </mxCell>
        <mxCell id="OxTTLq5b9ruWIfGuJGXQ-28" value="&lt;font style=&quot;font-size: 14px;&quot;&gt;HTML page that pulls data from the API using JavaScript and displays it in a table&lt;/font&gt;" style="text;strokeColor=none;align=center;fillColor=none;html=1;verticalAlign=middle;whiteSpace=wrap;rounded=0;" parent="1" vertex="1">
          <mxGeometry x="-380.94" y="417" width="133.25" height="38" as="geometry" />
        </mxCell>
        <mxCell id="OxTTLq5b9ruWIfGuJGXQ-29" value="&lt;span style=&quot;font-size: 14px;&quot;&gt;&lt;b&gt;Automatic Data Collection&lt;/b&gt;&lt;/span&gt;" style="text;strokeColor=none;align=center;fillColor=none;html=1;verticalAlign=middle;whiteSpace=wrap;rounded=0;" parent="1" vertex="1">
          <mxGeometry x="136" y="319" width="268" height="30" as="geometry" />
        </mxCell>
        <mxCell id="OxTTLq5b9ruWIfGuJGXQ-31" style="edgeStyle=orthogonalEdgeStyle;rounded=0;orthogonalLoop=1;jettySize=auto;html=1;" parent="1" source="OxTTLq5b9ruWIfGuJGXQ-30" target="OxTTLq5b9ruWIfGuJGXQ-27" edge="1">
          <mxGeometry relative="1" as="geometry" />
        </mxCell>
        <mxCell id="OxTTLq5b9ruWIfGuJGXQ-30" value="" style="sketch=0;outlineConnect=0;fontColor=#232F3E;gradientColor=none;fillColor=#232F3D;strokeColor=none;dashed=0;verticalLabelPosition=bottom;verticalAlign=top;align=center;html=1;fontSize=12;fontStyle=0;aspect=fixed;pointerEvents=1;shape=mxgraph.aws4.users;" parent="1" vertex="1">
          <mxGeometry x="-513" y="494" width="94" height="94" as="geometry" />
        </mxCell>
        <mxCell id="OxTTLq5b9ruWIfGuJGXQ-32" value="&lt;font style=&quot;font-size: 14px;&quot;&gt;Users&lt;/font&gt;" style="text;strokeColor=none;align=center;fillColor=none;html=1;verticalAlign=middle;whiteSpace=wrap;rounded=0;" parent="1" vertex="1">
          <mxGeometry x="-496" y="596" width="60" height="30" as="geometry" />
        </mxCell>
      </root>
    </mxGraphModel>
  </diagram>
</mxfile>
